<?xml version="1.0"?>
<!-- Generated by SVGo and Plotinum VG -->
<svg width="987pt" height="610pt" viewBox="0 0 987 610"
	xmlns="http://www.w3.org/2000/svg"
	xmlns:xlink="http://www.w3.org/1999/xlink">
<g transform="scale(1, -1) translate(0, -610)">
<path d="M0,0L987,0L987,610L0,610Z" style="fill:#FFFFFF" />
<text x="181.2" y="-594.48" transform="scale(1, -1)"
	style="font-family:Liberation Serif;font-variant:normal;font-weight:normal;font-style:normal;font-size:19.84px">Total: 1806, Done: 19, Remaining: 1787, Progress: 1.05, Updated: 2022-07-25</text>
<text x="58.434" y="-3.252" transform="scale(1, -1)"
	style="font-family:Liberation Serif;font-variant:normal;font-weight:normal;font-style:normal;font-size:10px">2022-07-16</text>
<text x="352.4" y="-3.252" transform="scale(1, -1)"
	style="font-family:Liberation Serif;font-variant:normal;font-weight:normal;font-style:normal;font-size:10px">2022-07-19</text>
<text x="646.37" y="-3.252" transform="scale(1, -1)"
	style="font-family:Liberation Serif;font-variant:normal;font-weight:normal;font-style:normal;font-size:10px">2022-07-22</text>
<text x="940.34" y="-3.252" transform="scale(1, -1)"
	style="font-family:Liberation Serif;font-variant:normal;font-weight:normal;font-style:normal;font-size:10px">2022-07-25</text>
<text x="117.23" y="-3.252" transform="scale(1, -1)"
	style="font-family:Liberation Serif;font-variant:normal;font-weight:normal;font-style:normal;font-size:10px">2022-07-17</text>
<text x="176.02" y="-3.252" transform="scale(1, -1)"
	style="font-family:Liberation Serif;font-variant:normal;font-weight:normal;font-style:normal;font-size:10px">2022-07-17</text>
<text x="234.82" y="-3.252" transform="scale(1, -1)"
	style="font-family:Liberation Serif;font-variant:normal;font-weight:normal;font-style:normal;font-size:10px">2022-07-18</text>
<text x="293.61" y="-3.252" transform="scale(1, -1)"
	style="font-family:Liberation Serif;font-variant:normal;font-weight:normal;font-style:normal;font-size:10px">2022-07-19</text>
<text x="411.2" y="-3.252" transform="scale(1, -1)"
	style="font-family:Liberation Serif;font-variant:normal;font-weight:normal;font-style:normal;font-size:10px">2022-07-20</text>
<text x="469.99" y="-3.252" transform="scale(1, -1)"
	style="font-family:Liberation Serif;font-variant:normal;font-weight:normal;font-style:normal;font-size:10px">2022-07-20</text>
<text x="528.78" y="-3.252" transform="scale(1, -1)"
	style="font-family:Liberation Serif;font-variant:normal;font-weight:normal;font-style:normal;font-size:10px">2022-07-21</text>
<text x="587.58" y="-3.252" transform="scale(1, -1)"
	style="font-family:Liberation Serif;font-variant:normal;font-weight:normal;font-style:normal;font-size:10px">2022-07-22</text>
<text x="705.17" y="-3.252" transform="scale(1, -1)"
	style="font-family:Liberation Serif;font-variant:normal;font-weight:normal;font-style:normal;font-size:10px">2022-07-23</text>
<text x="763.96" y="-3.252" transform="scale(1, -1)"
	style="font-family:Liberation Serif;font-variant:normal;font-weight:normal;font-style:normal;font-size:10px">2022-07-23</text>
<text x="822.75" y="-3.252" transform="scale(1, -1)"
	style="font-family:Liberation Serif;font-variant:normal;font-weight:normal;font-style:normal;font-size:10px">2022-07-24</text>
<text x="881.55" y="-3.252" transform="scale(1, -1)"
	style="font-family:Liberation Serif;font-variant:normal;font-weight:normal;font-style:normal;font-size:10px">2022-07-24</text>
<path d="M81.765,11.074L81.765,19.074" style="fill:none;stroke:#000000;stroke-width:0.5" />
<path d="M375.73,11.074L375.73,19.074" style="fill:none;stroke:#000000;stroke-width:0.5" />
<path d="M669.7,11.074L669.7,19.074" style="fill:none;stroke:#000000;stroke-width:0.5" />
<path d="M963.67,11.074L963.67,19.074" style="fill:none;stroke:#000000;stroke-width:0.5" />
<path d="M140.56,11.074L140.56,19.074" style="fill:none;stroke:#000000;stroke-width:0.5" />
<path d="M199.35,11.074L199.35,19.074" style="fill:none;stroke:#000000;stroke-width:0.5" />
<path d="M258.15,11.074L258.15,19.074" style="fill:none;stroke:#000000;stroke-width:0.5" />
<path d="M316.94,11.074L316.94,19.074" style="fill:none;stroke:#000000;stroke-width:0.5" />
<path d="M434.53,11.074L434.53,19.074" style="fill:none;stroke:#000000;stroke-width:0.5" />
<path d="M493.32,11.074L493.32,19.074" style="fill:none;stroke:#000000;stroke-width:0.5" />
<path d="M552.11,11.074L552.11,19.074" style="fill:none;stroke:#000000;stroke-width:0.5" />
<path d="M610.91,11.074L610.91,19.074" style="fill:none;stroke:#000000;stroke-width:0.5" />
<path d="M728.5,11.074L728.5,19.074" style="fill:none;stroke:#000000;stroke-width:0.5" />
<path d="M787.29,11.074L787.29,19.074" style="fill:none;stroke:#000000;stroke-width:0.5" />
<path d="M846.08,11.074L846.08,19.074" style="fill:none;stroke:#000000;stroke-width:0.5" />
<path d="M904.88,11.074L904.88,19.074" style="fill:none;stroke:#000000;stroke-width:0.5" />
<path d="M39.58,19.074L966.94,19.074" style="fill:none;stroke:#000000;stroke-width:0.5" />
<text x="18.33" y="-22.039" transform="scale(1, -1)"
	style="font-family:Liberation Serif;font-variant:normal;font-weight:normal;font-style:normal;font-size:10px">0</text>
<text x="5" y="-295.12" transform="scale(1, -1)"
	style="font-family:Liberation Serif;font-variant:normal;font-weight:normal;font-style:normal;font-size:10px">50%</text>
<text x="0" y="-568.21" transform="scale(1, -1)"
	style="font-family:Liberation Serif;font-variant:normal;font-weight:normal;font-style:normal;font-size:10px">100%</text>
<text x="5" y="-76.656" transform="scale(1, -1)"
	style="font-family:Liberation Serif;font-variant:normal;font-weight:normal;font-style:normal;font-size:10px">10%</text>
<text x="5" y="-131.27" transform="scale(1, -1)"
	style="font-family:Liberation Serif;font-variant:normal;font-weight:normal;font-style:normal;font-size:10px">20%</text>
<text x="5" y="-185.89" transform="scale(1, -1)"
	style="font-family:Liberation Serif;font-variant:normal;font-weight:normal;font-style:normal;font-size:10px">30%</text>
<text x="5" y="-240.51" transform="scale(1, -1)"
	style="font-family:Liberation Serif;font-variant:normal;font-weight:normal;font-style:normal;font-size:10px">40%</text>
<text x="5" y="-349.74" transform="scale(1, -1)"
	style="font-family:Liberation Serif;font-variant:normal;font-weight:normal;font-style:normal;font-size:10px">60%</text>
<text x="5" y="-404.36" transform="scale(1, -1)"
	style="font-family:Liberation Serif;font-variant:normal;font-weight:normal;font-style:normal;font-size:10px">70%</text>
<text x="5" y="-458.97" transform="scale(1, -1)"
	style="font-family:Liberation Serif;font-variant:normal;font-weight:normal;font-style:normal;font-size:10px">80%</text>
<text x="5" y="-513.59" transform="scale(1, -1)"
	style="font-family:Liberation Serif;font-variant:normal;font-weight:normal;font-style:normal;font-size:10px">90%</text>
<path d="M25.83,24.324L33.83,24.324" style="fill:none;stroke:#000000;stroke-width:0.5" />
<path d="M25.83,297.41L33.83,297.41" style="fill:none;stroke:#000000;stroke-width:0.5" />
<path d="M25.83,570.49L33.83,570.49" style="fill:none;stroke:#000000;stroke-width:0.5" />
<path d="M25.83,78.941L33.83,78.941" style="fill:none;stroke:#000000;stroke-width:0.5" />
<path d="M25.83,133.56L33.83,133.56" style="fill:none;stroke:#000000;stroke-width:0.5" />
<path d="M25.83,188.17L33.83,188.17" style="fill:none;stroke:#000000;stroke-width:0.5" />
<path d="M25.83,242.79L33.83,242.79" style="fill:none;stroke:#000000;stroke-width:0.5" />
<path d="M25.83,352.02L33.83,352.02" style="fill:none;stroke:#000000;stroke-width:0.5" />
<path d="M25.83,406.64L33.83,406.64" style="fill:none;stroke:#000000;stroke-width:0.5" />
<path d="M25.83,461.26L33.83,461.26" style="fill:none;stroke:#000000;stroke-width:0.5" />
<path d="M25.83,515.87L33.83,515.87" style="fill:none;stroke:#000000;stroke-width:0.5" />
<path d="M33.83,24.324L33.83,570.49" style="fill:none;stroke:#000000;stroke-width:0.5" />
<path d="M81.765,24.324L81.765,570.49" style="fill:none;stroke:#808080;stroke-width:0.25" />
<path d="M375.73,24.324L375.73,570.49" style="fill:none;stroke:#808080;stroke-width:0.25" />
<path d="M669.7,24.324L669.7,570.49" style="fill:none;stroke:#808080;stroke-width:0.25" />
<path d="M963.67,24.324L963.67,570.49" style="fill:none;stroke:#808080;stroke-width:0.25" />
<path d="M140.56,24.324L140.56,570.49" style="fill:none;stroke:#808080;stroke-width:0.25" />
<path d="M199.35,24.324L199.35,570.49" style="fill:none;stroke:#808080;stroke-width:0.25" />
<path d="M258.15,24.324L258.15,570.49" style="fill:none;stroke:#808080;stroke-width:0.25" />
<path d="M316.94,24.324L316.94,570.49" style="fill:none;stroke:#808080;stroke-width:0.25" />
<path d="M434.53,24.324L434.53,570.49" style="fill:none;stroke:#808080;stroke-width:0.25" />
<path d="M493.32,24.324L493.32,570.49" style="fill:none;stroke:#808080;stroke-width:0.25" />
<path d="M552.11,24.324L552.11,570.49" style="fill:none;stroke:#808080;stroke-width:0.25" />
<path d="M610.91,24.324L610.91,570.49" style="fill:none;stroke:#808080;stroke-width:0.25" />
<path d="M728.5,24.324L728.5,570.49" style="fill:none;stroke:#808080;stroke-width:0.25" />
<path d="M787.29,24.324L787.29,570.49" style="fill:none;stroke:#808080;stroke-width:0.25" />
<path d="M846.08,24.324L846.08,570.49" style="fill:none;stroke:#808080;stroke-width:0.25" />
<path d="M904.88,24.324L904.88,570.49" style="fill:none;stroke:#808080;stroke-width:0.25" />
<path d="M39.58,24.324L966.94,24.324" style="fill:none;stroke:#808080;stroke-width:0.25" />
<path d="M39.58,297.41L966.94,297.41" style="fill:none;stroke:#808080;stroke-width:0.25" />
<path d="M39.58,570.49L966.94,570.49" style="fill:none;stroke:#808080;stroke-width:0.25" />
<path d="M39.58,78.941L966.94,78.941" style="fill:none;stroke:#808080;stroke-width:0.25" />
<path d="M39.58,133.56L966.94,133.56" style="fill:none;stroke:#808080;stroke-width:0.25" />
<path d="M39.58,188.17L966.94,188.17" style="fill:none;stroke:#808080;stroke-width:0.25" />
<path d="M39.58,242.79L966.94,242.79" style="fill:none;stroke:#808080;stroke-width:0.25" />
<path d="M39.58,352.02L966.94,352.02" style="fill:none;stroke:#808080;stroke-width:0.25" />
<path d="M39.58,406.64L966.94,406.64" style="fill:none;stroke:#808080;stroke-width:0.25" />
<path d="M39.58,461.26L966.94,461.26" style="fill:none;stroke:#808080;stroke-width:0.25" />
<path d="M39.58,515.87L966.94,515.87" style="fill:none;stroke:#808080;stroke-width:0.25" />
<path d="M39.58,24.324L40.649,24.627L40.869,24.627L43.663,24.929L114.92,25.231L117.6,25.231L125.77,25.534L253.4,25.836L254.46,26.139L363.34,26.441L364.23,26.744L366.12,26.744L461.23,27.046L462.64,27.046L463.18,27.348L466.29,27.348L725.41,27.651L726.8,27.953L729.87,27.953L743.26,28.256L759.08,28.558L824.39,28.86L824.95,28.86L827.38,29.163L864.45,29.465L867.04,29.768L966.94,30.07" style="fill:none;stroke:#FAA75B" />
</g>
</svg>
