<?xml version="1.0"?>
<!-- Generated by SVGo and Plotinum VG -->
<svg width="987pt" height="610pt" viewBox="0 0 987 610"
	xmlns="http://www.w3.org/2000/svg"
	xmlns:xlink="http://www.w3.org/1999/xlink">
<g transform="scale(1, -1) translate(0, -610)">
<path d="M0,0L987,0L987,610L0,610Z" style="fill:#FFFFFF" />
<text x="181.2" y="-594.48" transform="scale(1, -1)"
	style="font-family:Liberation Serif;font-variant:normal;font-weight:normal;font-style:normal;font-size:19.84px">Total: 1806, Done: 25, Remaining: 1781, Progress: 1.38, Updated: 2022-07-30</text>
<text x="44.872" y="-3.252" transform="scale(1, -1)"
	style="font-family:Liberation Serif;font-variant:normal;font-weight:normal;font-style:normal;font-size:10px">2022-07-16</text>
<text x="443.78" y="-3.252" transform="scale(1, -1)"
	style="font-family:Liberation Serif;font-variant:normal;font-weight:normal;font-style:normal;font-size:10px">2022-07-22</text>
<text x="842.69" y="-3.252" transform="scale(1, -1)"
	style="font-family:Liberation Serif;font-variant:normal;font-weight:normal;font-style:normal;font-size:10px">2022-07-28</text>
<text x="124.65" y="-3.252" transform="scale(1, -1)"
	style="font-family:Liberation Serif;font-variant:normal;font-weight:normal;font-style:normal;font-size:10px">2022-07-17</text>
<text x="204.44" y="-3.252" transform="scale(1, -1)"
	style="font-family:Liberation Serif;font-variant:normal;font-weight:normal;font-style:normal;font-size:10px">2022-07-19</text>
<text x="284.22" y="-3.252" transform="scale(1, -1)"
	style="font-family:Liberation Serif;font-variant:normal;font-weight:normal;font-style:normal;font-size:10px">2022-07-20</text>
<text x="364" y="-3.252" transform="scale(1, -1)"
	style="font-family:Liberation Serif;font-variant:normal;font-weight:normal;font-style:normal;font-size:10px">2022-07-21</text>
<text x="523.56" y="-3.252" transform="scale(1, -1)"
	style="font-family:Liberation Serif;font-variant:normal;font-weight:normal;font-style:normal;font-size:10px">2022-07-23</text>
<text x="603.35" y="-3.252" transform="scale(1, -1)"
	style="font-family:Liberation Serif;font-variant:normal;font-weight:normal;font-style:normal;font-size:10px">2022-07-24</text>
<text x="683.13" y="-3.252" transform="scale(1, -1)"
	style="font-family:Liberation Serif;font-variant:normal;font-weight:normal;font-style:normal;font-size:10px">2022-07-26</text>
<text x="762.91" y="-3.252" transform="scale(1, -1)"
	style="font-family:Liberation Serif;font-variant:normal;font-weight:normal;font-style:normal;font-size:10px">2022-07-27</text>
<text x="922.47" y="-3.252" transform="scale(1, -1)"
	style="font-family:Liberation Serif;font-variant:normal;font-weight:normal;font-style:normal;font-size:10px">2022-07-29</text>
<path d="M68.202,11.074L68.202,19.074" style="fill:none;stroke:#000000;stroke-width:0.5" />
<path d="M467.11,11.074L467.11,19.074" style="fill:none;stroke:#000000;stroke-width:0.5" />
<path d="M866.02,11.074L866.02,19.074" style="fill:none;stroke:#000000;stroke-width:0.5" />
<path d="M147.98,11.074L147.98,19.074" style="fill:none;stroke:#000000;stroke-width:0.5" />
<path d="M227.77,11.074L227.77,19.074" style="fill:none;stroke:#000000;stroke-width:0.5" />
<path d="M307.55,11.074L307.55,19.074" style="fill:none;stroke:#000000;stroke-width:0.5" />
<path d="M387.33,11.074L387.33,19.074" style="fill:none;stroke:#000000;stroke-width:0.5" />
<path d="M546.89,11.074L546.89,19.074" style="fill:none;stroke:#000000;stroke-width:0.5" />
<path d="M626.68,11.074L626.68,19.074" style="fill:none;stroke:#000000;stroke-width:0.5" />
<path d="M706.46,11.074L706.46,19.074" style="fill:none;stroke:#000000;stroke-width:0.5" />
<path d="M786.24,11.074L786.24,19.074" style="fill:none;stroke:#000000;stroke-width:0.5" />
<path d="M945.8,11.074L945.8,19.074" style="fill:none;stroke:#000000;stroke-width:0.5" />
<path d="M39.58,19.074L987,19.074" style="fill:none;stroke:#000000;stroke-width:0.5" />
<text x="18.33" y="-22.039" transform="scale(1, -1)"
	style="font-family:Liberation Serif;font-variant:normal;font-weight:normal;font-style:normal;font-size:10px">0</text>
<text x="5" y="-295.12" transform="scale(1, -1)"
	style="font-family:Liberation Serif;font-variant:normal;font-weight:normal;font-style:normal;font-size:10px">50%</text>
<text x="0" y="-568.21" transform="scale(1, -1)"
	style="font-family:Liberation Serif;font-variant:normal;font-weight:normal;font-style:normal;font-size:10px">100%</text>
<text x="5" y="-76.656" transform="scale(1, -1)"
	style="font-family:Liberation Serif;font-variant:normal;font-weight:normal;font-style:normal;font-size:10px">10%</text>
<text x="5" y="-131.27" transform="scale(1, -1)"
	style="font-family:Liberation Serif;font-variant:normal;font-weight:normal;font-style:normal;font-size:10px">20%</text>
<text x="5" y="-185.89" transform="scale(1, -1)"
	style="font-family:Liberation Serif;font-variant:normal;font-weight:normal;font-style:normal;font-size:10px">30%</text>
<text x="5" y="-240.51" transform="scale(1, -1)"
	style="font-family:Liberation Serif;font-variant:normal;font-weight:normal;font-style:normal;font-size:10px">40%</text>
<text x="5" y="-349.74" transform="scale(1, -1)"
	style="font-family:Liberation Serif;font-variant:normal;font-weight:normal;font-style:normal;font-size:10px">60%</text>
<text x="5" y="-404.36" transform="scale(1, -1)"
	style="font-family:Liberation Serif;font-variant:normal;font-weight:normal;font-style:normal;font-size:10px">70%</text>
<text x="5" y="-458.97" transform="scale(1, -1)"
	style="font-family:Liberation Serif;font-variant:normal;font-weight:normal;font-style:normal;font-size:10px">80%</text>
<text x="5" y="-513.59" transform="scale(1, -1)"
	style="font-family:Liberation Serif;font-variant:normal;font-weight:normal;font-style:normal;font-size:10px">90%</text>
<path d="M25.83,24.324L33.83,24.324" style="fill:none;stroke:#000000;stroke-width:0.5" />
<path d="M25.83,297.41L33.83,297.41" style="fill:none;stroke:#000000;stroke-width:0.5" />
<path d="M25.83,570.49L33.83,570.49" style="fill:none;stroke:#000000;stroke-width:0.5" />
<path d="M25.83,78.941L33.83,78.941" style="fill:none;stroke:#000000;stroke-width:0.5" />
<path d="M25.83,133.56L33.83,133.56" style="fill:none;stroke:#000000;stroke-width:0.5" />
<path d="M25.83,188.17L33.83,188.17" style="fill:none;stroke:#000000;stroke-width:0.5" />
<path d="M25.83,242.79L33.83,242.79" style="fill:none;stroke:#000000;stroke-width:0.5" />
<path d="M25.83,352.02L33.83,352.02" style="fill:none;stroke:#000000;stroke-width:0.5" />
<path d="M25.83,406.64L33.83,406.64" style="fill:none;stroke:#000000;stroke-width:0.5" />
<path d="M25.83,461.26L33.83,461.26" style="fill:none;stroke:#000000;stroke-width:0.5" />
<path d="M25.83,515.87L33.83,515.87" style="fill:none;stroke:#000000;stroke-width:0.5" />
<path d="M33.83,24.324L33.83,570.49" style="fill:none;stroke:#000000;stroke-width:0.5" />
<path d="M68.202,24.324L68.202,570.49" style="fill:none;stroke:#808080;stroke-width:0.25" />
<path d="M467.11,24.324L467.11,570.49" style="fill:none;stroke:#808080;stroke-width:0.25" />
<path d="M866.02,24.324L866.02,570.49" style="fill:none;stroke:#808080;stroke-width:0.25" />
<path d="M147.98,24.324L147.98,570.49" style="fill:none;stroke:#808080;stroke-width:0.25" />
<path d="M227.77,24.324L227.77,570.49" style="fill:none;stroke:#808080;stroke-width:0.25" />
<path d="M307.55,24.324L307.55,570.49" style="fill:none;stroke:#808080;stroke-width:0.25" />
<path d="M387.33,24.324L387.33,570.49" style="fill:none;stroke:#808080;stroke-width:0.25" />
<path d="M546.89,24.324L546.89,570.49" style="fill:none;stroke:#808080;stroke-width:0.25" />
<path d="M626.68,24.324L626.68,570.49" style="fill:none;stroke:#808080;stroke-width:0.25" />
<path d="M706.46,24.324L706.46,570.49" style="fill:none;stroke:#808080;stroke-width:0.25" />
<path d="M786.24,24.324L786.24,570.49" style="fill:none;stroke:#808080;stroke-width:0.25" />
<path d="M945.8,24.324L945.8,570.49" style="fill:none;stroke:#808080;stroke-width:0.25" />
<path d="M39.58,24.324L987,24.324" style="fill:none;stroke:#808080;stroke-width:0.25" />
<path d="M39.58,297.41L987,297.41" style="fill:none;stroke:#808080;stroke-width:0.25" />
<path d="M39.58,570.49L987,570.49" style="fill:none;stroke:#808080;stroke-width:0.25" />
<path d="M39.58,78.941L987,78.941" style="fill:none;stroke:#808080;stroke-width:0.25" />
<path d="M39.58,133.56L987,133.56" style="fill:none;stroke:#808080;stroke-width:0.25" />
<path d="M39.58,188.17L987,188.17" style="fill:none;stroke:#808080;stroke-width:0.25" />
<path d="M39.58,242.79L987,242.79" style="fill:none;stroke:#808080;stroke-width:0.25" />
<path d="M39.58,352.02L987,352.02" style="fill:none;stroke:#808080;stroke-width:0.25" />
<path d="M39.58,406.64L987,406.64" style="fill:none;stroke:#808080;stroke-width:0.25" />
<path d="M39.58,461.26L987,461.26" style="fill:none;stroke:#808080;stroke-width:0.25" />
<path d="M39.58,515.87L987,515.87" style="fill:none;stroke:#808080;stroke-width:0.25" />
<path d="M39.58,24.324L40.305,24.627L40.454,24.627L42.35,24.929L90.7,25.231L92.515,25.231L98.06,25.534L184.66,25.836L185.37,26.139L259.25,26.441L259.85,26.744L261.14,26.744L325.66,27.046L326.62,27.046L326.99,27.348L329.1,27.348L504.91,27.651L505.85,27.953L507.94,27.953L517.02,28.256L527.75,28.558L572.07,28.86L572.45,28.86L574.1,29.163L599.25,29.465L601.01,29.768L668.79,30.07L669.55,30.07L670.81,30.373L880.17,30.675L880.85,30.977L881.41,31.28L984.64,31.582L986.2,31.582L987,31.885" style="fill:none;stroke:#FAA75B" />
</g>
</svg>
