<?xml version="1.0"?>
<!-- Generated by SVGo and Plotinum VG -->
<svg width="987pt" height="610pt" viewBox="0 0 987 610"
	xmlns="http://www.w3.org/2000/svg"
	xmlns:xlink="http://www.w3.org/1999/xlink">
<g transform="scale(1, -1) translate(0, -610)">
<path d="M0,0L987,0L987,610L0,610Z" style="fill:#FFFFFF" />
<text x="181.2" y="-594.48" transform="scale(1, -1)"
	style="font-family:Liberation Serif;font-variant:normal;font-weight:normal;font-style:normal;font-size:19.84px">Total: 1806, Done: 24, Remaining: 1782, Progress: 1.33, Updated: 2022-07-30</text>
<text x="44.896" y="-3.252" transform="scale(1, -1)"
	style="font-family:Liberation Serif;font-variant:normal;font-weight:normal;font-style:normal;font-size:10px">2022-07-16</text>
<text x="444.14" y="-3.252" transform="scale(1, -1)"
	style="font-family:Liberation Serif;font-variant:normal;font-weight:normal;font-style:normal;font-size:10px">2022-07-22</text>
<text x="843.39" y="-3.252" transform="scale(1, -1)"
	style="font-family:Liberation Serif;font-variant:normal;font-weight:normal;font-style:normal;font-size:10px">2022-07-28</text>
<text x="124.75" y="-3.252" transform="scale(1, -1)"
	style="font-family:Liberation Serif;font-variant:normal;font-weight:normal;font-style:normal;font-size:10px">2022-07-17</text>
<text x="204.59" y="-3.252" transform="scale(1, -1)"
	style="font-family:Liberation Serif;font-variant:normal;font-weight:normal;font-style:normal;font-size:10px">2022-07-19</text>
<text x="284.44" y="-3.252" transform="scale(1, -1)"
	style="font-family:Liberation Serif;font-variant:normal;font-weight:normal;font-style:normal;font-size:10px">2022-07-20</text>
<text x="364.29" y="-3.252" transform="scale(1, -1)"
	style="font-family:Liberation Serif;font-variant:normal;font-weight:normal;font-style:normal;font-size:10px">2022-07-21</text>
<text x="523.99" y="-3.252" transform="scale(1, -1)"
	style="font-family:Liberation Serif;font-variant:normal;font-weight:normal;font-style:normal;font-size:10px">2022-07-23</text>
<text x="603.84" y="-3.252" transform="scale(1, -1)"
	style="font-family:Liberation Serif;font-variant:normal;font-weight:normal;font-style:normal;font-size:10px">2022-07-24</text>
<text x="683.69" y="-3.252" transform="scale(1, -1)"
	style="font-family:Liberation Serif;font-variant:normal;font-weight:normal;font-style:normal;font-size:10px">2022-07-26</text>
<text x="763.54" y="-3.252" transform="scale(1, -1)"
	style="font-family:Liberation Serif;font-variant:normal;font-weight:normal;font-style:normal;font-size:10px">2022-07-27</text>
<text x="923.24" y="-3.252" transform="scale(1, -1)"
	style="font-family:Liberation Serif;font-variant:normal;font-weight:normal;font-style:normal;font-size:10px">2022-07-29</text>
<path d="M68.226,11.074L68.226,19.074" style="fill:none;stroke:#000000;stroke-width:0.5" />
<path d="M467.47,11.074L467.47,19.074" style="fill:none;stroke:#000000;stroke-width:0.5" />
<path d="M866.72,11.074L866.72,19.074" style="fill:none;stroke:#000000;stroke-width:0.5" />
<path d="M148.08,11.074L148.08,19.074" style="fill:none;stroke:#000000;stroke-width:0.5" />
<path d="M227.92,11.074L227.92,19.074" style="fill:none;stroke:#000000;stroke-width:0.5" />
<path d="M307.77,11.074L307.77,19.074" style="fill:none;stroke:#000000;stroke-width:0.5" />
<path d="M387.62,11.074L387.62,19.074" style="fill:none;stroke:#000000;stroke-width:0.5" />
<path d="M547.32,11.074L547.32,19.074" style="fill:none;stroke:#000000;stroke-width:0.5" />
<path d="M627.17,11.074L627.17,19.074" style="fill:none;stroke:#000000;stroke-width:0.5" />
<path d="M707.02,11.074L707.02,19.074" style="fill:none;stroke:#000000;stroke-width:0.5" />
<path d="M786.87,11.074L786.87,19.074" style="fill:none;stroke:#000000;stroke-width:0.5" />
<path d="M946.57,11.074L946.57,19.074" style="fill:none;stroke:#000000;stroke-width:0.5" />
<path d="M39.58,19.074L987,19.074" style="fill:none;stroke:#000000;stroke-width:0.5" />
<text x="18.33" y="-22.039" transform="scale(1, -1)"
	style="font-family:Liberation Serif;font-variant:normal;font-weight:normal;font-style:normal;font-size:10px">0</text>
<text x="5" y="-295.12" transform="scale(1, -1)"
	style="font-family:Liberation Serif;font-variant:normal;font-weight:normal;font-style:normal;font-size:10px">50%</text>
<text x="0" y="-568.21" transform="scale(1, -1)"
	style="font-family:Liberation Serif;font-variant:normal;font-weight:normal;font-style:normal;font-size:10px">100%</text>
<text x="5" y="-76.656" transform="scale(1, -1)"
	style="font-family:Liberation Serif;font-variant:normal;font-weight:normal;font-style:normal;font-size:10px">10%</text>
<text x="5" y="-131.27" transform="scale(1, -1)"
	style="font-family:Liberation Serif;font-variant:normal;font-weight:normal;font-style:normal;font-size:10px">20%</text>
<text x="5" y="-185.89" transform="scale(1, -1)"
	style="font-family:Liberation Serif;font-variant:normal;font-weight:normal;font-style:normal;font-size:10px">30%</text>
<text x="5" y="-240.51" transform="scale(1, -1)"
	style="font-family:Liberation Serif;font-variant:normal;font-weight:normal;font-style:normal;font-size:10px">40%</text>
<text x="5" y="-349.74" transform="scale(1, -1)"
	style="font-family:Liberation Serif;font-variant:normal;font-weight:normal;font-style:normal;font-size:10px">60%</text>
<text x="5" y="-404.36" transform="scale(1, -1)"
	style="font-family:Liberation Serif;font-variant:normal;font-weight:normal;font-style:normal;font-size:10px">70%</text>
<text x="5" y="-458.97" transform="scale(1, -1)"
	style="font-family:Liberation Serif;font-variant:normal;font-weight:normal;font-style:normal;font-size:10px">80%</text>
<text x="5" y="-513.59" transform="scale(1, -1)"
	style="font-family:Liberation Serif;font-variant:normal;font-weight:normal;font-style:normal;font-size:10px">90%</text>
<path d="M25.83,24.324L33.83,24.324" style="fill:none;stroke:#000000;stroke-width:0.5" />
<path d="M25.83,297.41L33.83,297.41" style="fill:none;stroke:#000000;stroke-width:0.5" />
<path d="M25.83,570.49L33.83,570.49" style="fill:none;stroke:#000000;stroke-width:0.5" />
<path d="M25.83,78.941L33.83,78.941" style="fill:none;stroke:#000000;stroke-width:0.5" />
<path d="M25.83,133.56L33.83,133.56" style="fill:none;stroke:#000000;stroke-width:0.5" />
<path d="M25.83,188.17L33.83,188.17" style="fill:none;stroke:#000000;stroke-width:0.5" />
<path d="M25.83,242.79L33.83,242.79" style="fill:none;stroke:#000000;stroke-width:0.5" />
<path d="M25.83,352.02L33.83,352.02" style="fill:none;stroke:#000000;stroke-width:0.5" />
<path d="M25.83,406.64L33.83,406.64" style="fill:none;stroke:#000000;stroke-width:0.5" />
<path d="M25.83,461.26L33.83,461.26" style="fill:none;stroke:#000000;stroke-width:0.5" />
<path d="M25.83,515.87L33.83,515.87" style="fill:none;stroke:#000000;stroke-width:0.5" />
<path d="M33.83,24.324L33.83,570.49" style="fill:none;stroke:#000000;stroke-width:0.5" />
<path d="M68.226,24.324L68.226,570.49" style="fill:none;stroke:#808080;stroke-width:0.25" />
<path d="M467.47,24.324L467.47,570.49" style="fill:none;stroke:#808080;stroke-width:0.25" />
<path d="M866.72,24.324L866.72,570.49" style="fill:none;stroke:#808080;stroke-width:0.25" />
<path d="M148.08,24.324L148.08,570.49" style="fill:none;stroke:#808080;stroke-width:0.25" />
<path d="M227.92,24.324L227.92,570.49" style="fill:none;stroke:#808080;stroke-width:0.25" />
<path d="M307.77,24.324L307.77,570.49" style="fill:none;stroke:#808080;stroke-width:0.25" />
<path d="M387.62,24.324L387.62,570.49" style="fill:none;stroke:#808080;stroke-width:0.25" />
<path d="M547.32,24.324L547.32,570.49" style="fill:none;stroke:#808080;stroke-width:0.25" />
<path d="M627.17,24.324L627.17,570.49" style="fill:none;stroke:#808080;stroke-width:0.25" />
<path d="M707.02,24.324L707.02,570.49" style="fill:none;stroke:#808080;stroke-width:0.25" />
<path d="M786.87,24.324L786.87,570.49" style="fill:none;stroke:#808080;stroke-width:0.25" />
<path d="M946.57,24.324L946.57,570.49" style="fill:none;stroke:#808080;stroke-width:0.25" />
<path d="M39.58,24.324L987,24.324" style="fill:none;stroke:#808080;stroke-width:0.25" />
<path d="M39.58,297.41L987,297.41" style="fill:none;stroke:#808080;stroke-width:0.25" />
<path d="M39.58,570.49L987,570.49" style="fill:none;stroke:#808080;stroke-width:0.25" />
<path d="M39.58,78.941L987,78.941" style="fill:none;stroke:#808080;stroke-width:0.25" />
<path d="M39.58,133.56L987,133.56" style="fill:none;stroke:#808080;stroke-width:0.25" />
<path d="M39.58,188.17L987,188.17" style="fill:none;stroke:#808080;stroke-width:0.25" />
<path d="M39.58,242.79L987,242.79" style="fill:none;stroke:#808080;stroke-width:0.25" />
<path d="M39.58,352.02L987,352.02" style="fill:none;stroke:#808080;stroke-width:0.25" />
<path d="M39.58,406.64L987,406.64" style="fill:none;stroke:#808080;stroke-width:0.25" />
<path d="M39.58,461.26L987,461.26" style="fill:none;stroke:#808080;stroke-width:0.25" />
<path d="M39.58,515.87L987,515.87" style="fill:none;stroke:#808080;stroke-width:0.25" />
<path d="M39.58,24.324L40.306,24.627L40.455,24.627L42.352,24.929L90.744,25.231L92.559,25.231L98.11,25.534L184.78,25.836L185.5,26.139L259.43,26.441L260.04,26.744L261.33,26.744L325.91,27.046L326.86,27.046L327.23,27.348L329.35,27.348L505.3,27.651L506.25,27.953L508.33,27.953L517.42,28.256L528.17,28.558L572.52,28.86L572.9,28.86L574.55,29.163L599.72,29.465L601.48,29.768L669.32,30.07L670.08,30.07L671.34,30.373L880.88,30.675L881.56,30.977L882.12,31.28L985.44,31.582L987,31.582" style="fill:none;stroke:#FAA75B" />
</g>
</svg>
