<?xml version="1.0"?>
<!-- Generated by SVGo and Plotinum VG -->
<svg width="987pt" height="610pt" viewBox="0 0 987 610"
	xmlns="http://www.w3.org/2000/svg"
	xmlns:xlink="http://www.w3.org/1999/xlink">
<g transform="scale(1, -1) translate(0, -610)">
<path d="M0,0L987,0L987,610L0,610Z" style="fill:#FFFFFF" />
<text x="181.2" y="-594.48" transform="scale(1, -1)"
	style="font-family:Liberation Serif;font-variant:normal;font-weight:normal;font-style:normal;font-size:19.84px">Total: 2315, Done: 79, Remaining: 2236, Progress: 3.41, Updated: 2024-04-27</text>
<text x="50.548" y="-3.252" transform="scale(1, -1)"
	style="font-family:Liberation Serif;font-variant:normal;font-weight:normal;font-style:normal;font-size:10px">2022-08-08</text>
<text x="387.49" y="-3.252" transform="scale(1, -1)"
	style="font-family:Liberation Serif;font-variant:normal;font-weight:normal;font-style:normal;font-size:10px">2023-03-28</text>
<text x="724.61" y="-3.252" transform="scale(1, -1)"
	style="font-family:Liberation Serif;font-variant:normal;font-weight:normal;font-style:normal;font-size:10px">2023-11-14</text>
<text x="219.02" y="-3.252" transform="scale(1, -1)"
	style="font-family:Liberation Serif;font-variant:normal;font-weight:normal;font-style:normal;font-size:10px">2022-12-02</text>
<text x="555.96" y="-3.252" transform="scale(1, -1)"
	style="font-family:Liberation Serif;font-variant:normal;font-weight:normal;font-style:normal;font-size:10px">2023-07-22</text>
<text x="892.89" y="-3.252" transform="scale(1, -1)"
	style="font-family:Liberation Serif;font-variant:normal;font-weight:normal;font-style:normal;font-size:10px">2024-03-09</text>
<path d="M73.878,11.074L73.878,19.074" style="fill:none;stroke:#000000;stroke-width:0.5" />
<path d="M410.82,11.074L410.82,19.074" style="fill:none;stroke:#000000;stroke-width:0.5" />
<path d="M747.76,11.074L747.76,19.074" style="fill:none;stroke:#000000;stroke-width:0.5" />
<path d="M242.35,11.074L242.35,19.074" style="fill:none;stroke:#000000;stroke-width:0.5" />
<path d="M579.29,11.074L579.29,19.074" style="fill:none;stroke:#000000;stroke-width:0.5" />
<path d="M916.22,11.074L916.22,19.074" style="fill:none;stroke:#000000;stroke-width:0.5" />
<path d="M39.58,19.074L987,19.074" style="fill:none;stroke:#000000;stroke-width:0.5" />
<text x="18.33" y="-22.039" transform="scale(1, -1)"
	style="font-family:Liberation Serif;font-variant:normal;font-weight:normal;font-style:normal;font-size:10px">0</text>
<text x="5" y="-295.12" transform="scale(1, -1)"
	style="font-family:Liberation Serif;font-variant:normal;font-weight:normal;font-style:normal;font-size:10px">50%</text>
<text x="0" y="-568.21" transform="scale(1, -1)"
	style="font-family:Liberation Serif;font-variant:normal;font-weight:normal;font-style:normal;font-size:10px">100%</text>
<text x="5" y="-76.656" transform="scale(1, -1)"
	style="font-family:Liberation Serif;font-variant:normal;font-weight:normal;font-style:normal;font-size:10px">10%</text>
<text x="5" y="-131.27" transform="scale(1, -1)"
	style="font-family:Liberation Serif;font-variant:normal;font-weight:normal;font-style:normal;font-size:10px">20%</text>
<text x="5" y="-185.89" transform="scale(1, -1)"
	style="font-family:Liberation Serif;font-variant:normal;font-weight:normal;font-style:normal;font-size:10px">30%</text>
<text x="5" y="-240.51" transform="scale(1, -1)"
	style="font-family:Liberation Serif;font-variant:normal;font-weight:normal;font-style:normal;font-size:10px">40%</text>
<text x="5" y="-349.74" transform="scale(1, -1)"
	style="font-family:Liberation Serif;font-variant:normal;font-weight:normal;font-style:normal;font-size:10px">60%</text>
<text x="5" y="-404.36" transform="scale(1, -1)"
	style="font-family:Liberation Serif;font-variant:normal;font-weight:normal;font-style:normal;font-size:10px">70%</text>
<text x="5" y="-458.97" transform="scale(1, -1)"
	style="font-family:Liberation Serif;font-variant:normal;font-weight:normal;font-style:normal;font-size:10px">80%</text>
<text x="5" y="-513.59" transform="scale(1, -1)"
	style="font-family:Liberation Serif;font-variant:normal;font-weight:normal;font-style:normal;font-size:10px">90%</text>
<path d="M25.83,24.324L33.83,24.324" style="fill:none;stroke:#000000;stroke-width:0.5" />
<path d="M25.83,297.41L33.83,297.41" style="fill:none;stroke:#000000;stroke-width:0.5" />
<path d="M25.83,570.49L33.83,570.49" style="fill:none;stroke:#000000;stroke-width:0.5" />
<path d="M25.83,78.941L33.83,78.941" style="fill:none;stroke:#000000;stroke-width:0.5" />
<path d="M25.83,133.56L33.83,133.56" style="fill:none;stroke:#000000;stroke-width:0.5" />
<path d="M25.83,188.17L33.83,188.17" style="fill:none;stroke:#000000;stroke-width:0.5" />
<path d="M25.83,242.79L33.83,242.79" style="fill:none;stroke:#000000;stroke-width:0.5" />
<path d="M25.83,352.02L33.83,352.02" style="fill:none;stroke:#000000;stroke-width:0.5" />
<path d="M25.83,406.64L33.83,406.64" style="fill:none;stroke:#000000;stroke-width:0.5" />
<path d="M25.83,461.26L33.83,461.26" style="fill:none;stroke:#000000;stroke-width:0.5" />
<path d="M25.83,515.87L33.83,515.87" style="fill:none;stroke:#000000;stroke-width:0.5" />
<path d="M33.83,24.324L33.83,570.49" style="fill:none;stroke:#000000;stroke-width:0.5" />
<path d="M73.878,24.324L73.878,570.49" style="fill:none;stroke:#808080;stroke-width:0.25" />
<path d="M410.82,24.324L410.82,570.49" style="fill:none;stroke:#808080;stroke-width:0.25" />
<path d="M747.76,24.324L747.76,570.49" style="fill:none;stroke:#808080;stroke-width:0.25" />
<path d="M242.35,24.324L242.35,570.49" style="fill:none;stroke:#808080;stroke-width:0.25" />
<path d="M579.29,24.324L579.29,570.49" style="fill:none;stroke:#808080;stroke-width:0.25" />
<path d="M916.22,24.324L916.22,570.49" style="fill:none;stroke:#808080;stroke-width:0.25" />
<path d="M39.58,24.324L987,24.324" style="fill:none;stroke:#808080;stroke-width:0.25" />
<path d="M39.58,297.41L987,297.41" style="fill:none;stroke:#808080;stroke-width:0.25" />
<path d="M39.58,570.49L987,570.49" style="fill:none;stroke:#808080;stroke-width:0.25" />
<path d="M39.58,78.941L987,78.941" style="fill:none;stroke:#808080;stroke-width:0.25" />
<path d="M39.58,133.56L987,133.56" style="fill:none;stroke:#808080;stroke-width:0.25" />
<path d="M39.58,188.17L987,188.17" style="fill:none;stroke:#808080;stroke-width:0.25" />
<path d="M39.58,242.79L987,242.79" style="fill:none;stroke:#808080;stroke-width:0.25" />
<path d="M39.58,352.02L987,352.02" style="fill:none;stroke:#808080;stroke-width:0.25" />
<path d="M39.58,406.64L987,406.64" style="fill:none;stroke:#808080;stroke-width:0.25" />
<path d="M39.58,461.26L987,461.26" style="fill:none;stroke:#808080;stroke-width:0.25" />
<path d="M39.58,515.87L987,515.87" style="fill:none;stroke:#808080;stroke-width:0.25" />
<path d="M39.58,24.324L39.595,24.56L39.599,24.56L39.639,24.796L40.66,25.032L40.698,25.032L40.815,25.268L42.644,25.504L42.659,25.74L44.219,25.976L44.231,26.212L44.259,26.212L45.621,26.448L45.641,26.448L45.649,26.683L45.694,26.683L49.406,26.919L49.426,27.155L49.47,27.155L49.662,27.391L49.888,27.627L50.824,27.863L50.832,27.863L50.867,28.099L51.398,28.335L51.435,28.571L52.867,28.807L52.883,28.807L52.909,29.043L57.33,29.279L57.345,29.515L57.356,29.751L59.536,29.986L59.569,29.986L59.586,30.222L59.596,30.458L61.104,30.694L61.113,30.694L61.274,30.93L61.312,31.166L63.051,31.402L63.061,31.402L63.09,31.638L63.111,31.874L64.523,32.11L348.41,32.346L348.43,32.582L349.95,32.818L351.38,33.053L351.38,33.053L352.77,33.289L352.78,33.525L352.8,33.761L352.82,33.997L355.62,34.233L355.76,34.469L356.63,34.705L361.58,34.941L361.59,35.177L361.6,35.177L364.49,35.413L364.52,35.649L367.25,35.885L367.26,35.885L367.29,36.12L925.7,36.356L925.71,36.356L925.82,36.356L926.03,36.592L926.04,36.828L926.1,37.064L927.41,37.3L927.45,37.3L927.52,37.536L929.22,37.772L930.75,38.008L932.22,38.244L933.59,38.48L935.75,38.716L935.76,38.952L935.78,39.188L937.78,39.423L937.81,39.659L943.85,39.895L959.75,40.131L959.76,40.367L962.65,40.603L964.2,40.839L968.32,41.075L968.36,41.311L971.46,41.547L978.62,41.783L978.65,42.019L984.52,42.255L984.54,42.49L986.98,42.726L987,42.962" style="fill:none;stroke:#FAA75B" />
</g>
</svg>
