<?xml version="1.0"?>
<!-- Generated by SVGo and Plotinum VG -->
<svg width="987pt" height="610pt" viewBox="0 0 987 610"
	xmlns="http://www.w3.org/2000/svg"
	xmlns:xlink="http://www.w3.org/1999/xlink">
<g transform="scale(1, -1) translate(0, -610)">
<path d="M0,0L987,0L987,610L0,610Z" style="fill:#FFFFFF" />
<text x="181.2" y="-594.48" transform="scale(1, -1)"
	style="font-family:Liberation Serif;font-variant:normal;font-weight:normal;font-style:normal;font-size:19.84px">Total: 1806, Done: 28, Remaining: 1778, Progress: 1.55, Updated: 2022-07-31</text>
<text x="42.645" y="-3.252" transform="scale(1, -1)"
	style="font-family:Liberation Serif;font-variant:normal;font-weight:normal;font-style:normal;font-size:10px">2022-07-16</text>
<text x="336.94" y="-3.252" transform="scale(1, -1)"
	style="font-family:Liberation Serif;font-variant:normal;font-weight:normal;font-style:normal;font-size:10px">2022-07-21</text>
<text x="631.24" y="-3.252" transform="scale(1, -1)"
	style="font-family:Liberation Serif;font-variant:normal;font-weight:normal;font-style:normal;font-size:10px">2022-07-26</text>
<text x="925.54" y="-3.252" transform="scale(1, -1)"
	style="font-family:Liberation Serif;font-variant:normal;font-weight:normal;font-style:normal;font-size:10px">2022-07-30</text>
<text x="116.22" y="-3.252" transform="scale(1, -1)"
	style="font-family:Liberation Serif;font-variant:normal;font-weight:normal;font-style:normal;font-size:10px">2022-07-17</text>
<text x="189.79" y="-3.252" transform="scale(1, -1)"
	style="font-family:Liberation Serif;font-variant:normal;font-weight:normal;font-style:normal;font-size:10px">2022-07-19</text>
<text x="263.37" y="-3.252" transform="scale(1, -1)"
	style="font-family:Liberation Serif;font-variant:normal;font-weight:normal;font-style:normal;font-size:10px">2022-07-20</text>
<text x="410.52" y="-3.252" transform="scale(1, -1)"
	style="font-family:Liberation Serif;font-variant:normal;font-weight:normal;font-style:normal;font-size:10px">2022-07-22</text>
<text x="484.09" y="-3.252" transform="scale(1, -1)"
	style="font-family:Liberation Serif;font-variant:normal;font-weight:normal;font-style:normal;font-size:10px">2022-07-23</text>
<text x="557.67" y="-3.252" transform="scale(1, -1)"
	style="font-family:Liberation Serif;font-variant:normal;font-weight:normal;font-style:normal;font-size:10px">2022-07-24</text>
<text x="704.82" y="-3.252" transform="scale(1, -1)"
	style="font-family:Liberation Serif;font-variant:normal;font-weight:normal;font-style:normal;font-size:10px">2022-07-27</text>
<text x="778.39" y="-3.252" transform="scale(1, -1)"
	style="font-family:Liberation Serif;font-variant:normal;font-weight:normal;font-style:normal;font-size:10px">2022-07-28</text>
<text x="851.97" y="-3.252" transform="scale(1, -1)"
	style="font-family:Liberation Serif;font-variant:normal;font-weight:normal;font-style:normal;font-size:10px">2022-07-29</text>
<path d="M65.975,11.074L65.975,19.074" style="fill:none;stroke:#000000;stroke-width:0.5" />
<path d="M360.27,11.074L360.27,19.074" style="fill:none;stroke:#000000;stroke-width:0.5" />
<path d="M654.57,11.074L654.57,19.074" style="fill:none;stroke:#000000;stroke-width:0.5" />
<path d="M948.87,11.074L948.87,19.074" style="fill:none;stroke:#000000;stroke-width:0.5" />
<path d="M139.55,11.074L139.55,19.074" style="fill:none;stroke:#000000;stroke-width:0.5" />
<path d="M213.12,11.074L213.12,19.074" style="fill:none;stroke:#000000;stroke-width:0.5" />
<path d="M286.7,11.074L286.7,19.074" style="fill:none;stroke:#000000;stroke-width:0.5" />
<path d="M433.85,11.074L433.85,19.074" style="fill:none;stroke:#000000;stroke-width:0.5" />
<path d="M507.42,11.074L507.42,19.074" style="fill:none;stroke:#000000;stroke-width:0.5" />
<path d="M581,11.074L581,19.074" style="fill:none;stroke:#000000;stroke-width:0.5" />
<path d="M728.15,11.074L728.15,19.074" style="fill:none;stroke:#000000;stroke-width:0.5" />
<path d="M801.72,11.074L801.72,19.074" style="fill:none;stroke:#000000;stroke-width:0.5" />
<path d="M875.3,11.074L875.3,19.074" style="fill:none;stroke:#000000;stroke-width:0.5" />
<path d="M39.58,19.074L987,19.074" style="fill:none;stroke:#000000;stroke-width:0.5" />
<text x="18.33" y="-22.039" transform="scale(1, -1)"
	style="font-family:Liberation Serif;font-variant:normal;font-weight:normal;font-style:normal;font-size:10px">0</text>
<text x="5" y="-295.12" transform="scale(1, -1)"
	style="font-family:Liberation Serif;font-variant:normal;font-weight:normal;font-style:normal;font-size:10px">50%</text>
<text x="0" y="-568.21" transform="scale(1, -1)"
	style="font-family:Liberation Serif;font-variant:normal;font-weight:normal;font-style:normal;font-size:10px">100%</text>
<text x="5" y="-76.656" transform="scale(1, -1)"
	style="font-family:Liberation Serif;font-variant:normal;font-weight:normal;font-style:normal;font-size:10px">10%</text>
<text x="5" y="-131.27" transform="scale(1, -1)"
	style="font-family:Liberation Serif;font-variant:normal;font-weight:normal;font-style:normal;font-size:10px">20%</text>
<text x="5" y="-185.89" transform="scale(1, -1)"
	style="font-family:Liberation Serif;font-variant:normal;font-weight:normal;font-style:normal;font-size:10px">30%</text>
<text x="5" y="-240.51" transform="scale(1, -1)"
	style="font-family:Liberation Serif;font-variant:normal;font-weight:normal;font-style:normal;font-size:10px">40%</text>
<text x="5" y="-349.74" transform="scale(1, -1)"
	style="font-family:Liberation Serif;font-variant:normal;font-weight:normal;font-style:normal;font-size:10px">60%</text>
<text x="5" y="-404.36" transform="scale(1, -1)"
	style="font-family:Liberation Serif;font-variant:normal;font-weight:normal;font-style:normal;font-size:10px">70%</text>
<text x="5" y="-458.97" transform="scale(1, -1)"
	style="font-family:Liberation Serif;font-variant:normal;font-weight:normal;font-style:normal;font-size:10px">80%</text>
<text x="5" y="-513.59" transform="scale(1, -1)"
	style="font-family:Liberation Serif;font-variant:normal;font-weight:normal;font-style:normal;font-size:10px">90%</text>
<path d="M25.83,24.324L33.83,24.324" style="fill:none;stroke:#000000;stroke-width:0.5" />
<path d="M25.83,297.41L33.83,297.41" style="fill:none;stroke:#000000;stroke-width:0.5" />
<path d="M25.83,570.49L33.83,570.49" style="fill:none;stroke:#000000;stroke-width:0.5" />
<path d="M25.83,78.941L33.83,78.941" style="fill:none;stroke:#000000;stroke-width:0.5" />
<path d="M25.83,133.56L33.83,133.56" style="fill:none;stroke:#000000;stroke-width:0.5" />
<path d="M25.83,188.17L33.83,188.17" style="fill:none;stroke:#000000;stroke-width:0.5" />
<path d="M25.83,242.79L33.83,242.79" style="fill:none;stroke:#000000;stroke-width:0.5" />
<path d="M25.83,352.02L33.83,352.02" style="fill:none;stroke:#000000;stroke-width:0.5" />
<path d="M25.83,406.64L33.83,406.64" style="fill:none;stroke:#000000;stroke-width:0.5" />
<path d="M25.83,461.26L33.83,461.26" style="fill:none;stroke:#000000;stroke-width:0.5" />
<path d="M25.83,515.87L33.83,515.87" style="fill:none;stroke:#000000;stroke-width:0.5" />
<path d="M33.83,24.324L33.83,570.49" style="fill:none;stroke:#000000;stroke-width:0.5" />
<path d="M65.975,24.324L65.975,570.49" style="fill:none;stroke:#808080;stroke-width:0.25" />
<path d="M360.27,24.324L360.27,570.49" style="fill:none;stroke:#808080;stroke-width:0.25" />
<path d="M654.57,24.324L654.57,570.49" style="fill:none;stroke:#808080;stroke-width:0.25" />
<path d="M948.87,24.324L948.87,570.49" style="fill:none;stroke:#808080;stroke-width:0.25" />
<path d="M139.55,24.324L139.55,570.49" style="fill:none;stroke:#808080;stroke-width:0.25" />
<path d="M213.12,24.324L213.12,570.49" style="fill:none;stroke:#808080;stroke-width:0.25" />
<path d="M286.7,24.324L286.7,570.49" style="fill:none;stroke:#808080;stroke-width:0.25" />
<path d="M433.85,24.324L433.85,570.49" style="fill:none;stroke:#808080;stroke-width:0.25" />
<path d="M507.42,24.324L507.42,570.49" style="fill:none;stroke:#808080;stroke-width:0.25" />
<path d="M581,24.324L581,570.49" style="fill:none;stroke:#808080;stroke-width:0.25" />
<path d="M728.15,24.324L728.15,570.49" style="fill:none;stroke:#808080;stroke-width:0.25" />
<path d="M801.72,24.324L801.72,570.49" style="fill:none;stroke:#808080;stroke-width:0.25" />
<path d="M875.3,24.324L875.3,570.49" style="fill:none;stroke:#808080;stroke-width:0.25" />
<path d="M39.58,24.324L987,24.324" style="fill:none;stroke:#808080;stroke-width:0.25" />
<path d="M39.58,297.41L987,297.41" style="fill:none;stroke:#808080;stroke-width:0.25" />
<path d="M39.58,570.49L987,570.49" style="fill:none;stroke:#808080;stroke-width:0.25" />
<path d="M39.58,78.941L987,78.941" style="fill:none;stroke:#808080;stroke-width:0.25" />
<path d="M39.58,133.56L987,133.56" style="fill:none;stroke:#808080;stroke-width:0.25" />
<path d="M39.58,188.17L987,188.17" style="fill:none;stroke:#808080;stroke-width:0.25" />
<path d="M39.58,242.79L987,242.79" style="fill:none;stroke:#808080;stroke-width:0.25" />
<path d="M39.58,352.02L987,352.02" style="fill:none;stroke:#808080;stroke-width:0.25" />
<path d="M39.58,406.64L987,406.64" style="fill:none;stroke:#808080;stroke-width:0.25" />
<path d="M39.58,461.26L987,461.26" style="fill:none;stroke:#808080;stroke-width:0.25" />
<path d="M39.58,515.87L987,515.87" style="fill:none;stroke:#808080;stroke-width:0.25" />
<path d="M39.58,24.324L40.249,24.627L40.386,24.627L42.135,24.929L86.723,25.231L88.396,25.231L93.51,25.534L173.37,25.836L174.03,26.139L242.16,26.441L242.71,26.744L243.9,26.744L303.41,27.046L304.29,27.046L304.63,27.348L306.58,27.348L468.71,27.651L469.57,27.953L471.5,27.953L479.87,28.256L489.77,28.558L530.64,28.86L530.99,28.86L532.51,29.163L555.7,29.465L557.33,29.768L619.83,30.07L620.54,30.07L621.69,30.373L814.77,30.675L815.4,30.977L815.91,31.28L911.12,31.582L912.55,31.582L913.29,31.885L913.74,32.187L979.59,32.49L979.97,32.49L987,32.792" style="fill:none;stroke:#FAA75B" />
</g>
</svg>
