<?xml version="1.0"?>
<!-- Generated by SVGo and Plotinum VG -->
<svg width="987pt" height="610pt" viewBox="0 0 987 610"
	xmlns="http://www.w3.org/2000/svg"
	xmlns:xlink="http://www.w3.org/1999/xlink">
<g transform="scale(1, -1) translate(0, -610)">
<path d="M0,0L987,0L987,610L0,610Z" style="fill:#FFFFFF" />
<text x="181.2" y="-594.48" transform="scale(1, -1)"
	style="font-family:Liberation Serif;font-variant:normal;font-weight:normal;font-style:normal;font-size:19.84px">Total: 2315, Done: 75, Remaining: 2240, Progress: 3.24, Updated: 2024-04-21</text>
<text x="50.853" y="-3.252" transform="scale(1, -1)"
	style="font-family:Liberation Serif;font-variant:normal;font-weight:normal;font-style:normal;font-size:10px">2022-08-08</text>
<text x="390.79" y="-3.252" transform="scale(1, -1)"
	style="font-family:Liberation Serif;font-variant:normal;font-weight:normal;font-style:normal;font-size:10px">2023-03-28</text>
<text x="730.91" y="-3.252" transform="scale(1, -1)"
	style="font-family:Liberation Serif;font-variant:normal;font-weight:normal;font-style:normal;font-size:10px">2023-11-14</text>
<text x="220.82" y="-3.252" transform="scale(1, -1)"
	style="font-family:Liberation Serif;font-variant:normal;font-weight:normal;font-style:normal;font-size:10px">2022-12-02</text>
<text x="560.76" y="-3.252" transform="scale(1, -1)"
	style="font-family:Liberation Serif;font-variant:normal;font-weight:normal;font-style:normal;font-size:10px">2023-07-22</text>
<text x="900.69" y="-3.252" transform="scale(1, -1)"
	style="font-family:Liberation Serif;font-variant:normal;font-weight:normal;font-style:normal;font-size:10px">2024-03-09</text>
<path d="M74.183,11.074L74.183,19.074" style="fill:none;stroke:#000000;stroke-width:0.5" />
<path d="M414.12,11.074L414.12,19.074" style="fill:none;stroke:#000000;stroke-width:0.5" />
<path d="M754.05,11.074L754.05,19.074" style="fill:none;stroke:#000000;stroke-width:0.5" />
<path d="M244.15,11.074L244.15,19.074" style="fill:none;stroke:#000000;stroke-width:0.5" />
<path d="M584.09,11.074L584.09,19.074" style="fill:none;stroke:#000000;stroke-width:0.5" />
<path d="M924.02,11.074L924.02,19.074" style="fill:none;stroke:#000000;stroke-width:0.5" />
<path d="M39.58,19.074L987,19.074" style="fill:none;stroke:#000000;stroke-width:0.5" />
<text x="18.33" y="-22.039" transform="scale(1, -1)"
	style="font-family:Liberation Serif;font-variant:normal;font-weight:normal;font-style:normal;font-size:10px">0</text>
<text x="5" y="-295.12" transform="scale(1, -1)"
	style="font-family:Liberation Serif;font-variant:normal;font-weight:normal;font-style:normal;font-size:10px">50%</text>
<text x="0" y="-568.21" transform="scale(1, -1)"
	style="font-family:Liberation Serif;font-variant:normal;font-weight:normal;font-style:normal;font-size:10px">100%</text>
<text x="5" y="-76.656" transform="scale(1, -1)"
	style="font-family:Liberation Serif;font-variant:normal;font-weight:normal;font-style:normal;font-size:10px">10%</text>
<text x="5" y="-131.27" transform="scale(1, -1)"
	style="font-family:Liberation Serif;font-variant:normal;font-weight:normal;font-style:normal;font-size:10px">20%</text>
<text x="5" y="-185.89" transform="scale(1, -1)"
	style="font-family:Liberation Serif;font-variant:normal;font-weight:normal;font-style:normal;font-size:10px">30%</text>
<text x="5" y="-240.51" transform="scale(1, -1)"
	style="font-family:Liberation Serif;font-variant:normal;font-weight:normal;font-style:normal;font-size:10px">40%</text>
<text x="5" y="-349.74" transform="scale(1, -1)"
	style="font-family:Liberation Serif;font-variant:normal;font-weight:normal;font-style:normal;font-size:10px">60%</text>
<text x="5" y="-404.36" transform="scale(1, -1)"
	style="font-family:Liberation Serif;font-variant:normal;font-weight:normal;font-style:normal;font-size:10px">70%</text>
<text x="5" y="-458.97" transform="scale(1, -1)"
	style="font-family:Liberation Serif;font-variant:normal;font-weight:normal;font-style:normal;font-size:10px">80%</text>
<text x="5" y="-513.59" transform="scale(1, -1)"
	style="font-family:Liberation Serif;font-variant:normal;font-weight:normal;font-style:normal;font-size:10px">90%</text>
<path d="M25.83,24.324L33.83,24.324" style="fill:none;stroke:#000000;stroke-width:0.5" />
<path d="M25.83,297.41L33.83,297.41" style="fill:none;stroke:#000000;stroke-width:0.5" />
<path d="M25.83,570.49L33.83,570.49" style="fill:none;stroke:#000000;stroke-width:0.5" />
<path d="M25.83,78.941L33.83,78.941" style="fill:none;stroke:#000000;stroke-width:0.5" />
<path d="M25.83,133.56L33.83,133.56" style="fill:none;stroke:#000000;stroke-width:0.5" />
<path d="M25.83,188.17L33.83,188.17" style="fill:none;stroke:#000000;stroke-width:0.5" />
<path d="M25.83,242.79L33.83,242.79" style="fill:none;stroke:#000000;stroke-width:0.5" />
<path d="M25.83,352.02L33.83,352.02" style="fill:none;stroke:#000000;stroke-width:0.5" />
<path d="M25.83,406.64L33.83,406.64" style="fill:none;stroke:#000000;stroke-width:0.5" />
<path d="M25.83,461.26L33.83,461.26" style="fill:none;stroke:#000000;stroke-width:0.5" />
<path d="M25.83,515.87L33.83,515.87" style="fill:none;stroke:#000000;stroke-width:0.5" />
<path d="M33.83,24.324L33.83,570.49" style="fill:none;stroke:#000000;stroke-width:0.5" />
<path d="M74.183,24.324L74.183,570.49" style="fill:none;stroke:#808080;stroke-width:0.25" />
<path d="M414.12,24.324L414.12,570.49" style="fill:none;stroke:#808080;stroke-width:0.25" />
<path d="M754.05,24.324L754.05,570.49" style="fill:none;stroke:#808080;stroke-width:0.25" />
<path d="M244.15,24.324L244.15,570.49" style="fill:none;stroke:#808080;stroke-width:0.25" />
<path d="M584.09,24.324L584.09,570.49" style="fill:none;stroke:#808080;stroke-width:0.25" />
<path d="M924.02,24.324L924.02,570.49" style="fill:none;stroke:#808080;stroke-width:0.25" />
<path d="M39.58,24.324L987,24.324" style="fill:none;stroke:#808080;stroke-width:0.25" />
<path d="M39.58,297.41L987,297.41" style="fill:none;stroke:#808080;stroke-width:0.25" />
<path d="M39.58,570.49L987,570.49" style="fill:none;stroke:#808080;stroke-width:0.25" />
<path d="M39.58,78.941L987,78.941" style="fill:none;stroke:#808080;stroke-width:0.25" />
<path d="M39.58,133.56L987,133.56" style="fill:none;stroke:#808080;stroke-width:0.25" />
<path d="M39.58,188.17L987,188.17" style="fill:none;stroke:#808080;stroke-width:0.25" />
<path d="M39.58,242.79L987,242.79" style="fill:none;stroke:#808080;stroke-width:0.25" />
<path d="M39.58,352.02L987,352.02" style="fill:none;stroke:#808080;stroke-width:0.25" />
<path d="M39.58,406.64L987,406.64" style="fill:none;stroke:#808080;stroke-width:0.25" />
<path d="M39.58,461.26L987,461.26" style="fill:none;stroke:#808080;stroke-width:0.25" />
<path d="M39.58,515.87L987,515.87" style="fill:none;stroke:#808080;stroke-width:0.25" />
<path d="M39.58,24.324L39.596,24.56L39.599,24.56L39.639,24.796L40.669,25.032L40.708,25.032L40.826,25.268L42.671,25.504L42.686,25.74L44.26,25.976L44.273,26.212L44.3,26.212L45.675,26.448L45.695,26.448L45.703,26.683L45.748,26.683L49.493,26.919L49.514,27.155L49.558,27.155L49.751,27.391L49.98,27.627L50.924,27.863L50.932,27.863L50.967,28.099L51.503,28.335L51.541,28.571L52.985,28.807L53.001,28.807L53.028,29.043L57.488,29.279L57.502,29.515L57.514,29.751L59.714,29.986L59.747,29.986L59.764,30.222L59.774,30.458L61.296,30.694L61.304,30.694L61.467,30.93L61.506,31.166L63.26,31.402L63.269,31.402L63.299,31.638L63.32,31.874L64.745,32.11L351.16,32.346L351.17,32.582L352.71,32.818L354.15,33.053L354.15,33.053L355.55,33.289L355.57,33.525L355.58,33.761L355.61,33.997L358.43,34.233L358.57,34.469L359.45,34.705L364.44,34.941L364.45,35.177L364.47,35.177L367.38,35.413L367.41,35.649L370.17,35.885L370.18,35.885L370.21,36.12L933.58,36.356L933.59,36.356L933.7,36.356L933.91,36.592L933.92,36.828L933.98,37.064L935.3,37.3L935.35,37.3L935.42,37.536L937.13,37.772L938.67,38.008L940.16,38.244L941.54,38.48L943.72,38.716L943.73,38.952L943.75,39.188L945.77,39.423L945.79,39.659L951.89,39.895L967.93,40.131L967.94,40.367L970.86,40.603L972.42,40.839L976.58,41.075L976.62,41.311L979.75,41.547L986.97,41.783L987,42.019" style="fill:none;stroke:#FAA75B" />
</g>
</svg>
