<?xml version="1.0"?>
<!-- Generated by SVGo and Plotinum VG -->
<svg width="987pt" height="610pt" viewBox="0 0 987 610"
	xmlns="http://www.w3.org/2000/svg"
	xmlns:xlink="http://www.w3.org/1999/xlink">
<g transform="scale(1, -1) translate(0, -610)">
<path d="M0,0L987,0L987,610L0,610Z" style="fill:#FFFFFF" />
<text x="181.2" y="-594.48" transform="scale(1, -1)"
	style="font-family:Liberation Serif;font-variant:normal;font-weight:normal;font-style:normal;font-size:19.84px">Total: 1798, Done: 12, Remaining: 1786, Progress: 0.67, Updated: 2022-07-23</text>
<text x="74.407" y="-3.252" transform="scale(1, -1)"
	style="font-family:Liberation Serif;font-variant:normal;font-weight:normal;font-style:normal;font-size:10px">2022-07-16</text>
<text x="479.68" y="-3.252" transform="scale(1, -1)"
	style="font-family:Liberation Serif;font-variant:normal;font-weight:normal;font-style:normal;font-size:10px">2022-07-19</text>
<text x="884.95" y="-3.252" transform="scale(1, -1)"
	style="font-family:Liberation Serif;font-variant:normal;font-weight:normal;font-style:normal;font-size:10px">2022-07-22</text>
<text x="155.46" y="-3.252" transform="scale(1, -1)"
	style="font-family:Liberation Serif;font-variant:normal;font-weight:normal;font-style:normal;font-size:10px">2022-07-17</text>
<text x="236.52" y="-3.252" transform="scale(1, -1)"
	style="font-family:Liberation Serif;font-variant:normal;font-weight:normal;font-style:normal;font-size:10px">2022-07-17</text>
<text x="317.57" y="-3.252" transform="scale(1, -1)"
	style="font-family:Liberation Serif;font-variant:normal;font-weight:normal;font-style:normal;font-size:10px">2022-07-18</text>
<text x="398.63" y="-3.252" transform="scale(1, -1)"
	style="font-family:Liberation Serif;font-variant:normal;font-weight:normal;font-style:normal;font-size:10px">2022-07-19</text>
<text x="560.74" y="-3.252" transform="scale(1, -1)"
	style="font-family:Liberation Serif;font-variant:normal;font-weight:normal;font-style:normal;font-size:10px">2022-07-20</text>
<text x="641.79" y="-3.252" transform="scale(1, -1)"
	style="font-family:Liberation Serif;font-variant:normal;font-weight:normal;font-style:normal;font-size:10px">2022-07-20</text>
<text x="722.84" y="-3.252" transform="scale(1, -1)"
	style="font-family:Liberation Serif;font-variant:normal;font-weight:normal;font-style:normal;font-size:10px">2022-07-21</text>
<text x="803.9" y="-3.252" transform="scale(1, -1)"
	style="font-family:Liberation Serif;font-variant:normal;font-weight:normal;font-style:normal;font-size:10px">2022-07-22</text>
<path d="M97.737,11.074L97.737,19.074" style="fill:none;stroke:#000000;stroke-width:0.5" />
<path d="M503.01,11.074L503.01,19.074" style="fill:none;stroke:#000000;stroke-width:0.5" />
<path d="M908.28,11.074L908.28,19.074" style="fill:none;stroke:#000000;stroke-width:0.5" />
<path d="M178.79,11.074L178.79,19.074" style="fill:none;stroke:#000000;stroke-width:0.5" />
<path d="M259.85,11.074L259.85,19.074" style="fill:none;stroke:#000000;stroke-width:0.5" />
<path d="M340.9,11.074L340.9,19.074" style="fill:none;stroke:#000000;stroke-width:0.5" />
<path d="M421.96,11.074L421.96,19.074" style="fill:none;stroke:#000000;stroke-width:0.5" />
<path d="M584.07,11.074L584.07,19.074" style="fill:none;stroke:#000000;stroke-width:0.5" />
<path d="M665.12,11.074L665.12,19.074" style="fill:none;stroke:#000000;stroke-width:0.5" />
<path d="M746.17,11.074L746.17,19.074" style="fill:none;stroke:#000000;stroke-width:0.5" />
<path d="M827.23,11.074L827.23,19.074" style="fill:none;stroke:#000000;stroke-width:0.5" />
<path d="M39.58,19.074L987,19.074" style="fill:none;stroke:#000000;stroke-width:0.5" />
<text x="18.33" y="-22.039" transform="scale(1, -1)"
	style="font-family:Liberation Serif;font-variant:normal;font-weight:normal;font-style:normal;font-size:10px">0</text>
<text x="5" y="-295.12" transform="scale(1, -1)"
	style="font-family:Liberation Serif;font-variant:normal;font-weight:normal;font-style:normal;font-size:10px">50%</text>
<text x="0" y="-568.21" transform="scale(1, -1)"
	style="font-family:Liberation Serif;font-variant:normal;font-weight:normal;font-style:normal;font-size:10px">100%</text>
<text x="5" y="-76.656" transform="scale(1, -1)"
	style="font-family:Liberation Serif;font-variant:normal;font-weight:normal;font-style:normal;font-size:10px">10%</text>
<text x="5" y="-131.27" transform="scale(1, -1)"
	style="font-family:Liberation Serif;font-variant:normal;font-weight:normal;font-style:normal;font-size:10px">20%</text>
<text x="5" y="-185.89" transform="scale(1, -1)"
	style="font-family:Liberation Serif;font-variant:normal;font-weight:normal;font-style:normal;font-size:10px">30%</text>
<text x="5" y="-240.51" transform="scale(1, -1)"
	style="font-family:Liberation Serif;font-variant:normal;font-weight:normal;font-style:normal;font-size:10px">40%</text>
<text x="5" y="-349.74" transform="scale(1, -1)"
	style="font-family:Liberation Serif;font-variant:normal;font-weight:normal;font-style:normal;font-size:10px">60%</text>
<text x="5" y="-404.36" transform="scale(1, -1)"
	style="font-family:Liberation Serif;font-variant:normal;font-weight:normal;font-style:normal;font-size:10px">70%</text>
<text x="5" y="-458.97" transform="scale(1, -1)"
	style="font-family:Liberation Serif;font-variant:normal;font-weight:normal;font-style:normal;font-size:10px">80%</text>
<text x="5" y="-513.59" transform="scale(1, -1)"
	style="font-family:Liberation Serif;font-variant:normal;font-weight:normal;font-style:normal;font-size:10px">90%</text>
<path d="M25.83,24.324L33.83,24.324" style="fill:none;stroke:#000000;stroke-width:0.5" />
<path d="M25.83,297.41L33.83,297.41" style="fill:none;stroke:#000000;stroke-width:0.5" />
<path d="M25.83,570.49L33.83,570.49" style="fill:none;stroke:#000000;stroke-width:0.5" />
<path d="M25.83,78.941L33.83,78.941" style="fill:none;stroke:#000000;stroke-width:0.5" />
<path d="M25.83,133.56L33.83,133.56" style="fill:none;stroke:#000000;stroke-width:0.5" />
<path d="M25.83,188.17L33.83,188.17" style="fill:none;stroke:#000000;stroke-width:0.5" />
<path d="M25.83,242.79L33.83,242.79" style="fill:none;stroke:#000000;stroke-width:0.5" />
<path d="M25.83,352.02L33.83,352.02" style="fill:none;stroke:#000000;stroke-width:0.5" />
<path d="M25.83,406.64L33.83,406.64" style="fill:none;stroke:#000000;stroke-width:0.5" />
<path d="M25.83,461.26L33.83,461.26" style="fill:none;stroke:#000000;stroke-width:0.5" />
<path d="M25.83,515.87L33.83,515.87" style="fill:none;stroke:#000000;stroke-width:0.5" />
<path d="M33.83,24.324L33.83,570.49" style="fill:none;stroke:#000000;stroke-width:0.5" />
<path d="M97.737,24.324L97.737,570.49" style="fill:none;stroke:#808080;stroke-width:0.25" />
<path d="M503.01,24.324L503.01,570.49" style="fill:none;stroke:#808080;stroke-width:0.25" />
<path d="M908.28,24.324L908.28,570.49" style="fill:none;stroke:#808080;stroke-width:0.25" />
<path d="M178.79,24.324L178.79,570.49" style="fill:none;stroke:#808080;stroke-width:0.25" />
<path d="M259.85,24.324L259.85,570.49" style="fill:none;stroke:#808080;stroke-width:0.25" />
<path d="M340.9,24.324L340.9,570.49" style="fill:none;stroke:#808080;stroke-width:0.25" />
<path d="M421.96,24.324L421.96,570.49" style="fill:none;stroke:#808080;stroke-width:0.25" />
<path d="M584.07,24.324L584.07,570.49" style="fill:none;stroke:#808080;stroke-width:0.25" />
<path d="M665.12,24.324L665.12,570.49" style="fill:none;stroke:#808080;stroke-width:0.25" />
<path d="M746.17,24.324L746.17,570.49" style="fill:none;stroke:#808080;stroke-width:0.25" />
<path d="M827.23,24.324L827.23,570.49" style="fill:none;stroke:#808080;stroke-width:0.25" />
<path d="M39.58,24.324L987,24.324" style="fill:none;stroke:#808080;stroke-width:0.25" />
<path d="M39.58,297.41L987,297.41" style="fill:none;stroke:#808080;stroke-width:0.25" />
<path d="M39.58,570.49L987,570.49" style="fill:none;stroke:#808080;stroke-width:0.25" />
<path d="M39.58,78.941L987,78.941" style="fill:none;stroke:#808080;stroke-width:0.25" />
<path d="M39.58,133.56L987,133.56" style="fill:none;stroke:#808080;stroke-width:0.25" />
<path d="M39.58,188.17L987,188.17" style="fill:none;stroke:#808080;stroke-width:0.25" />
<path d="M39.58,242.79L987,242.79" style="fill:none;stroke:#808080;stroke-width:0.25" />
<path d="M39.58,352.02L987,352.02" style="fill:none;stroke:#808080;stroke-width:0.25" />
<path d="M39.58,406.64L987,406.64" style="fill:none;stroke:#808080;stroke-width:0.25" />
<path d="M39.58,461.26L987,461.26" style="fill:none;stroke:#808080;stroke-width:0.25" />
<path d="M39.58,515.87L987,515.87" style="fill:none;stroke:#808080;stroke-width:0.25" />
<path d="M39.58,24.324L41.054,24.628L41.357,24.628L45.209,24.932L143.45,25.236L147.14,25.236L158.41,25.539L334.36,25.843L335.82,26.147L485.92,26.451L487.15,26.754L489.76,26.754L620.88,27.058L622.82,27.058L623.57,27.362L627.86,27.362L985.09,27.666L987,27.969" style="fill:none;stroke:#FAA75B" />
</g>
</svg>
