<?xml version="1.0"?>
<!-- Generated by SVGo and Plotinum VG -->
<svg width="987pt" height="610pt" viewBox="0 0 987 610"
	xmlns="http://www.w3.org/2000/svg"
	xmlns:xlink="http://www.w3.org/1999/xlink">
<g transform="scale(1, -1) translate(0, -610)">
<path d="M0,0L987,0L987,610L0,610Z" style="fill:#FFFFFF" />
<text x="181.2" y="-594.48" transform="scale(1, -1)"
	style="font-family:Liberation Serif;font-variant:normal;font-weight:normal;font-style:normal;font-size:19.84px">Total: 2315, Done: 68, Remaining: 2247, Progress: 2.94, Updated: 2024-04-08</text>
<text x="51.564" y="-3.252" transform="scale(1, -1)"
	style="font-family:Liberation Serif;font-variant:normal;font-weight:normal;font-style:normal;font-size:10px">2022-08-08</text>
<text x="398.48" y="-3.252" transform="scale(1, -1)"
	style="font-family:Liberation Serif;font-variant:normal;font-weight:normal;font-style:normal;font-size:10px">2023-03-28</text>
<text x="745.58" y="-3.252" transform="scale(1, -1)"
	style="font-family:Liberation Serif;font-variant:normal;font-weight:normal;font-style:normal;font-size:10px">2023-11-14</text>
<text x="225.02" y="-3.252" transform="scale(1, -1)"
	style="font-family:Liberation Serif;font-variant:normal;font-weight:normal;font-style:normal;font-size:10px">2022-12-02</text>
<text x="571.93" y="-3.252" transform="scale(1, -1)"
	style="font-family:Liberation Serif;font-variant:normal;font-weight:normal;font-style:normal;font-size:10px">2023-07-22</text>
<text x="918.85" y="-3.252" transform="scale(1, -1)"
	style="font-family:Liberation Serif;font-variant:normal;font-weight:normal;font-style:normal;font-size:10px">2024-03-09</text>
<path d="M74.894,11.074L74.894,19.074" style="fill:none;stroke:#000000;stroke-width:0.5" />
<path d="M421.81,11.074L421.81,19.074" style="fill:none;stroke:#000000;stroke-width:0.5" />
<path d="M768.72,11.074L768.72,19.074" style="fill:none;stroke:#000000;stroke-width:0.5" />
<path d="M248.35,11.074L248.35,19.074" style="fill:none;stroke:#000000;stroke-width:0.5" />
<path d="M595.26,11.074L595.26,19.074" style="fill:none;stroke:#000000;stroke-width:0.5" />
<path d="M942.18,11.074L942.18,19.074" style="fill:none;stroke:#000000;stroke-width:0.5" />
<path d="M39.58,19.074L987,19.074" style="fill:none;stroke:#000000;stroke-width:0.5" />
<text x="18.33" y="-22.039" transform="scale(1, -1)"
	style="font-family:Liberation Serif;font-variant:normal;font-weight:normal;font-style:normal;font-size:10px">0</text>
<text x="5" y="-295.12" transform="scale(1, -1)"
	style="font-family:Liberation Serif;font-variant:normal;font-weight:normal;font-style:normal;font-size:10px">50%</text>
<text x="0" y="-568.21" transform="scale(1, -1)"
	style="font-family:Liberation Serif;font-variant:normal;font-weight:normal;font-style:normal;font-size:10px">100%</text>
<text x="5" y="-76.656" transform="scale(1, -1)"
	style="font-family:Liberation Serif;font-variant:normal;font-weight:normal;font-style:normal;font-size:10px">10%</text>
<text x="5" y="-131.27" transform="scale(1, -1)"
	style="font-family:Liberation Serif;font-variant:normal;font-weight:normal;font-style:normal;font-size:10px">20%</text>
<text x="5" y="-185.89" transform="scale(1, -1)"
	style="font-family:Liberation Serif;font-variant:normal;font-weight:normal;font-style:normal;font-size:10px">30%</text>
<text x="5" y="-240.51" transform="scale(1, -1)"
	style="font-family:Liberation Serif;font-variant:normal;font-weight:normal;font-style:normal;font-size:10px">40%</text>
<text x="5" y="-349.74" transform="scale(1, -1)"
	style="font-family:Liberation Serif;font-variant:normal;font-weight:normal;font-style:normal;font-size:10px">60%</text>
<text x="5" y="-404.36" transform="scale(1, -1)"
	style="font-family:Liberation Serif;font-variant:normal;font-weight:normal;font-style:normal;font-size:10px">70%</text>
<text x="5" y="-458.97" transform="scale(1, -1)"
	style="font-family:Liberation Serif;font-variant:normal;font-weight:normal;font-style:normal;font-size:10px">80%</text>
<text x="5" y="-513.59" transform="scale(1, -1)"
	style="font-family:Liberation Serif;font-variant:normal;font-weight:normal;font-style:normal;font-size:10px">90%</text>
<path d="M25.83,24.324L33.83,24.324" style="fill:none;stroke:#000000;stroke-width:0.5" />
<path d="M25.83,297.41L33.83,297.41" style="fill:none;stroke:#000000;stroke-width:0.5" />
<path d="M25.83,570.49L33.83,570.49" style="fill:none;stroke:#000000;stroke-width:0.5" />
<path d="M25.83,78.941L33.83,78.941" style="fill:none;stroke:#000000;stroke-width:0.5" />
<path d="M25.83,133.56L33.83,133.56" style="fill:none;stroke:#000000;stroke-width:0.5" />
<path d="M25.83,188.17L33.83,188.17" style="fill:none;stroke:#000000;stroke-width:0.5" />
<path d="M25.83,242.79L33.83,242.79" style="fill:none;stroke:#000000;stroke-width:0.5" />
<path d="M25.83,352.02L33.83,352.02" style="fill:none;stroke:#000000;stroke-width:0.5" />
<path d="M25.83,406.64L33.83,406.64" style="fill:none;stroke:#000000;stroke-width:0.5" />
<path d="M25.83,461.26L33.83,461.26" style="fill:none;stroke:#000000;stroke-width:0.5" />
<path d="M25.83,515.87L33.83,515.87" style="fill:none;stroke:#000000;stroke-width:0.5" />
<path d="M33.83,24.324L33.83,570.49" style="fill:none;stroke:#000000;stroke-width:0.5" />
<path d="M74.894,24.324L74.894,570.49" style="fill:none;stroke:#808080;stroke-width:0.25" />
<path d="M421.81,24.324L421.81,570.49" style="fill:none;stroke:#808080;stroke-width:0.25" />
<path d="M768.72,24.324L768.72,570.49" style="fill:none;stroke:#808080;stroke-width:0.25" />
<path d="M248.35,24.324L248.35,570.49" style="fill:none;stroke:#808080;stroke-width:0.25" />
<path d="M595.26,24.324L595.26,570.49" style="fill:none;stroke:#808080;stroke-width:0.25" />
<path d="M942.18,24.324L942.18,570.49" style="fill:none;stroke:#808080;stroke-width:0.25" />
<path d="M39.58,24.324L987,24.324" style="fill:none;stroke:#808080;stroke-width:0.25" />
<path d="M39.58,297.41L987,297.41" style="fill:none;stroke:#808080;stroke-width:0.25" />
<path d="M39.58,570.49L987,570.49" style="fill:none;stroke:#808080;stroke-width:0.25" />
<path d="M39.58,78.941L987,78.941" style="fill:none;stroke:#808080;stroke-width:0.25" />
<path d="M39.58,133.56L987,133.56" style="fill:none;stroke:#808080;stroke-width:0.25" />
<path d="M39.58,188.17L987,188.17" style="fill:none;stroke:#808080;stroke-width:0.25" />
<path d="M39.58,242.79L987,242.79" style="fill:none;stroke:#808080;stroke-width:0.25" />
<path d="M39.58,352.02L987,352.02" style="fill:none;stroke:#808080;stroke-width:0.25" />
<path d="M39.58,406.64L987,406.64" style="fill:none;stroke:#808080;stroke-width:0.25" />
<path d="M39.58,461.26L987,461.26" style="fill:none;stroke:#808080;stroke-width:0.25" />
<path d="M39.58,515.87L987,515.87" style="fill:none;stroke:#808080;stroke-width:0.25" />
<path d="M39.58,24.324L39.596,24.56L39.599,24.56L39.64,24.796L40.692,25.032L40.731,25.032L40.852,25.268L42.734,25.504L42.75,25.74L44.356,25.976L44.369,26.212L44.397,26.212L45.8,26.448L45.821,26.448L45.829,26.683L45.875,26.683L49.697,26.919L49.717,27.155L49.763,27.155L49.96,27.391L50.194,27.627L51.157,27.863L51.165,27.863L51.201,28.099L51.748,28.335L51.786,28.571L53.26,28.807L53.276,28.807L53.304,29.043L57.856,29.279L57.87,29.515L57.883,29.751L60.127,29.986L60.161,29.986L60.178,30.222L60.189,30.458L61.741,30.694L61.75,30.694L61.916,30.93L61.956,31.166L63.746,31.402L63.756,31.402L63.786,31.638L63.807,31.874L65.261,32.11L357.55,32.346L357.57,32.582L359.14,32.818L360.61,33.053L360.61,33.053L362.04,33.289L362.05,33.525L362.07,33.761L362.1,33.997L364.98,34.233L365.12,34.469L366.02,34.705L371.11,34.941L371.12,35.177L371.14,35.177L374.11,35.413L374.14,35.649L376.95,35.885L376.96,35.885L376.99,36.12L951.93,36.356L951.94,36.356L952.06,36.356L952.27,36.592L952.28,36.828L952.35,37.064L953.69,37.3L953.74,37.3L953.81,37.536L955.56,37.772L957.13,38.008L958.65,38.244L960.06,38.48L962.28,38.716L962.29,38.952L962.32,39.188L964.38,39.423L964.4,39.659L970.62,39.895L986.99,40.131L987,40.367" style="fill:none;stroke:#FAA75B" />
</g>
</svg>
