<?xml version="1.0"?>
<!-- Generated by SVGo and Plotinum VG -->
<svg width="987pt" height="610pt" viewBox="0 0 987 610"
	xmlns="http://www.w3.org/2000/svg"
	xmlns:xlink="http://www.w3.org/1999/xlink">
<g transform="scale(1, -1) translate(0, -610)">
<path d="M0,0L987,0L987,610L0,610Z" style="fill:#FFFFFF" />
<text x="181.57" y="-594.48" transform="scale(1, -1)"
	style="font-family:Liberation Serif;font-variant:normal;font-weight:normal;font-style:normal;font-size:19.84px">Total: 2315, Done: 72, Remaining: 2243, Progress: 3.11, Updated: 2024-04-14</text>
<text x="51.236" y="-3.252" transform="scale(1, -1)"
	style="font-family:Liberation Serif;font-variant:normal;font-weight:normal;font-style:normal;font-size:10px">2022-08-08</text>
<text x="394.94" y="-3.252" transform="scale(1, -1)"
	style="font-family:Liberation Serif;font-variant:normal;font-weight:normal;font-style:normal;font-size:10px">2023-03-28</text>
<text x="738.82" y="-3.252" transform="scale(1, -1)"
	style="font-family:Liberation Serif;font-variant:normal;font-weight:normal;font-style:normal;font-size:10px">2023-11-14</text>
<text x="223.09" y="-3.252" transform="scale(1, -1)"
	style="font-family:Liberation Serif;font-variant:normal;font-weight:normal;font-style:normal;font-size:10px">2022-12-02</text>
<text x="566.79" y="-3.252" transform="scale(1, -1)"
	style="font-family:Liberation Serif;font-variant:normal;font-weight:normal;font-style:normal;font-size:10px">2023-07-22</text>
<text x="910.49" y="-3.252" transform="scale(1, -1)"
	style="font-family:Liberation Serif;font-variant:normal;font-weight:normal;font-style:normal;font-size:10px">2024-03-09</text>
<path d="M74.567,11.074L74.567,19.074" style="fill:none;stroke:#000000;stroke-width:0.5" />
<path d="M418.27,11.074L418.27,19.074" style="fill:none;stroke:#000000;stroke-width:0.5" />
<path d="M761.97,11.074L761.97,19.074" style="fill:none;stroke:#000000;stroke-width:0.5" />
<path d="M246.42,11.074L246.42,19.074" style="fill:none;stroke:#000000;stroke-width:0.5" />
<path d="M590.12,11.074L590.12,19.074" style="fill:none;stroke:#000000;stroke-width:0.5" />
<path d="M933.82,11.074L933.82,19.074" style="fill:none;stroke:#000000;stroke-width:0.5" />
<path d="M39.58,19.074L987,19.074" style="fill:none;stroke:#000000;stroke-width:0.5" />
<text x="18.33" y="-22.039" transform="scale(1, -1)"
	style="font-family:Liberation Serif;font-variant:normal;font-weight:normal;font-style:normal;font-size:10px">0</text>
<text x="5" y="-295.12" transform="scale(1, -1)"
	style="font-family:Liberation Serif;font-variant:normal;font-weight:normal;font-style:normal;font-size:10px">50%</text>
<text x="0" y="-568.21" transform="scale(1, -1)"
	style="font-family:Liberation Serif;font-variant:normal;font-weight:normal;font-style:normal;font-size:10px">100%</text>
<text x="5" y="-76.656" transform="scale(1, -1)"
	style="font-family:Liberation Serif;font-variant:normal;font-weight:normal;font-style:normal;font-size:10px">10%</text>
<text x="5" y="-131.27" transform="scale(1, -1)"
	style="font-family:Liberation Serif;font-variant:normal;font-weight:normal;font-style:normal;font-size:10px">20%</text>
<text x="5" y="-185.89" transform="scale(1, -1)"
	style="font-family:Liberation Serif;font-variant:normal;font-weight:normal;font-style:normal;font-size:10px">30%</text>
<text x="5" y="-240.51" transform="scale(1, -1)"
	style="font-family:Liberation Serif;font-variant:normal;font-weight:normal;font-style:normal;font-size:10px">40%</text>
<text x="5" y="-349.74" transform="scale(1, -1)"
	style="font-family:Liberation Serif;font-variant:normal;font-weight:normal;font-style:normal;font-size:10px">60%</text>
<text x="5" y="-404.36" transform="scale(1, -1)"
	style="font-family:Liberation Serif;font-variant:normal;font-weight:normal;font-style:normal;font-size:10px">70%</text>
<text x="5" y="-458.97" transform="scale(1, -1)"
	style="font-family:Liberation Serif;font-variant:normal;font-weight:normal;font-style:normal;font-size:10px">80%</text>
<text x="5" y="-513.59" transform="scale(1, -1)"
	style="font-family:Liberation Serif;font-variant:normal;font-weight:normal;font-style:normal;font-size:10px">90%</text>
<path d="M25.83,24.324L33.83,24.324" style="fill:none;stroke:#000000;stroke-width:0.5" />
<path d="M25.83,297.41L33.83,297.41" style="fill:none;stroke:#000000;stroke-width:0.5" />
<path d="M25.83,570.49L33.83,570.49" style="fill:none;stroke:#000000;stroke-width:0.5" />
<path d="M25.83,78.941L33.83,78.941" style="fill:none;stroke:#000000;stroke-width:0.5" />
<path d="M25.83,133.56L33.83,133.56" style="fill:none;stroke:#000000;stroke-width:0.5" />
<path d="M25.83,188.17L33.83,188.17" style="fill:none;stroke:#000000;stroke-width:0.5" />
<path d="M25.83,242.79L33.83,242.79" style="fill:none;stroke:#000000;stroke-width:0.5" />
<path d="M25.83,352.02L33.83,352.02" style="fill:none;stroke:#000000;stroke-width:0.5" />
<path d="M25.83,406.64L33.83,406.64" style="fill:none;stroke:#000000;stroke-width:0.5" />
<path d="M25.83,461.26L33.83,461.26" style="fill:none;stroke:#000000;stroke-width:0.5" />
<path d="M25.83,515.87L33.83,515.87" style="fill:none;stroke:#000000;stroke-width:0.5" />
<path d="M33.83,24.324L33.83,570.49" style="fill:none;stroke:#000000;stroke-width:0.5" />
<path d="M74.567,24.324L74.567,570.49" style="fill:none;stroke:#808080;stroke-width:0.25" />
<path d="M418.27,24.324L418.27,570.49" style="fill:none;stroke:#808080;stroke-width:0.25" />
<path d="M761.97,24.324L761.97,570.49" style="fill:none;stroke:#808080;stroke-width:0.25" />
<path d="M246.42,24.324L246.42,570.49" style="fill:none;stroke:#808080;stroke-width:0.25" />
<path d="M590.12,24.324L590.12,570.49" style="fill:none;stroke:#808080;stroke-width:0.25" />
<path d="M933.82,24.324L933.82,570.49" style="fill:none;stroke:#808080;stroke-width:0.25" />
<path d="M39.58,24.324L987,24.324" style="fill:none;stroke:#808080;stroke-width:0.25" />
<path d="M39.58,297.41L987,297.41" style="fill:none;stroke:#808080;stroke-width:0.25" />
<path d="M39.58,570.49L987,570.49" style="fill:none;stroke:#808080;stroke-width:0.25" />
<path d="M39.58,78.941L987,78.941" style="fill:none;stroke:#808080;stroke-width:0.25" />
<path d="M39.58,133.56L987,133.56" style="fill:none;stroke:#808080;stroke-width:0.25" />
<path d="M39.58,188.17L987,188.17" style="fill:none;stroke:#808080;stroke-width:0.25" />
<path d="M39.58,242.79L987,242.79" style="fill:none;stroke:#808080;stroke-width:0.25" />
<path d="M39.58,352.02L987,352.02" style="fill:none;stroke:#808080;stroke-width:0.25" />
<path d="M39.58,406.64L987,406.64" style="fill:none;stroke:#808080;stroke-width:0.25" />
<path d="M39.58,461.26L987,461.26" style="fill:none;stroke:#808080;stroke-width:0.25" />
<path d="M39.58,515.87L987,515.87" style="fill:none;stroke:#808080;stroke-width:0.25" />
<path d="M39.58,24.324L39.596,24.56L39.599,24.56L39.64,24.796L40.681,25.032L40.72,25.032L40.84,25.268L42.705,25.504L42.72,25.74L44.312,25.976L44.325,26.212L44.352,26.212L45.742,26.448L45.763,26.448L45.771,26.683L45.816,26.683L49.603,26.919L49.624,27.155L49.668,27.155L49.864,27.391L50.095,27.627L51.05,27.863L51.058,27.863L51.093,28.099L51.635,28.335L51.673,28.571L53.133,28.807L53.15,28.807L53.177,29.043L57.686,29.279L57.701,29.515L57.713,29.751L59.937,29.986L59.97,29.986L59.987,30.222L59.998,30.458L61.536,30.694L61.545,30.694L61.709,30.93L61.748,31.166L63.522,31.402L63.532,31.402L63.562,31.638L63.583,31.874L65.023,32.11L354.61,32.346L354.62,32.582L356.18,32.818L357.63,33.053L357.64,33.053L359.05,33.289L359.06,33.525L359.08,33.761L359.11,33.997L361.97,34.233L362.11,34.469L362.99,34.705L368.04,34.941L368.05,35.177L368.06,35.177L371.01,35.413L371.04,35.649L373.83,35.885L373.84,35.885L373.87,36.12L943.48,36.356L943.49,36.356L943.6,36.356L943.82,36.592L943.83,36.828L943.89,37.064L945.22,37.3L945.27,37.3L945.34,37.536L947.07,37.772L948.63,38.008L950.14,38.244L951.53,38.48L953.73,38.716L953.74,38.952L953.77,39.188L955.81,39.423L955.83,39.659L961.99,39.895L978.21,40.131L978.22,40.367L981.18,40.603L982.75,40.839L986.96,41.075L987,41.311" style="fill:none;stroke:#FAA75B" />
</g>
</svg>
