<?xml version="1.0"?>
<!-- Generated by SVGo and Plotinum VG -->
<svg width="987pt" height="610pt" viewBox="0 0 987 610"
	xmlns="http://www.w3.org/2000/svg"
	xmlns:xlink="http://www.w3.org/1999/xlink">
<g transform="scale(1, -1) translate(0, -610)">
<path d="M0,0L987,0L987,610L0,610Z" style="fill:#FFFFFF" />
<text x="181.2" y="-594.48" transform="scale(1, -1)"
	style="font-family:Liberation Serif;font-variant:normal;font-weight:normal;font-style:normal;font-size:19.84px">Total: 2315, Done: 77, Remaining: 2238, Progress: 3.33, Updated: 2024-04-25</text>
<text x="50.637" y="-3.252" transform="scale(1, -1)"
	style="font-family:Liberation Serif;font-variant:normal;font-weight:normal;font-style:normal;font-size:10px">2022-08-08</text>
<text x="388.45" y="-3.252" transform="scale(1, -1)"
	style="font-family:Liberation Serif;font-variant:normal;font-weight:normal;font-style:normal;font-size:10px">2023-03-28</text>
<text x="726.45" y="-3.252" transform="scale(1, -1)"
	style="font-family:Liberation Serif;font-variant:normal;font-weight:normal;font-style:normal;font-size:10px">2023-11-14</text>
<text x="219.55" y="-3.252" transform="scale(1, -1)"
	style="font-family:Liberation Serif;font-variant:normal;font-weight:normal;font-style:normal;font-size:10px">2022-12-02</text>
<text x="557.36" y="-3.252" transform="scale(1, -1)"
	style="font-family:Liberation Serif;font-variant:normal;font-weight:normal;font-style:normal;font-size:10px">2023-07-22</text>
<text x="895.18" y="-3.252" transform="scale(1, -1)"
	style="font-family:Liberation Serif;font-variant:normal;font-weight:normal;font-style:normal;font-size:10px">2024-03-09</text>
<path d="M73.968,11.074L73.968,19.074" style="fill:none;stroke:#000000;stroke-width:0.5" />
<path d="M411.78,11.074L411.78,19.074" style="fill:none;stroke:#000000;stroke-width:0.5" />
<path d="M749.6,11.074L749.6,19.074" style="fill:none;stroke:#000000;stroke-width:0.5" />
<path d="M242.88,11.074L242.88,19.074" style="fill:none;stroke:#000000;stroke-width:0.5" />
<path d="M580.69,11.074L580.69,19.074" style="fill:none;stroke:#000000;stroke-width:0.5" />
<path d="M918.51,11.074L918.51,19.074" style="fill:none;stroke:#000000;stroke-width:0.5" />
<path d="M39.58,19.074L987,19.074" style="fill:none;stroke:#000000;stroke-width:0.5" />
<text x="18.33" y="-22.039" transform="scale(1, -1)"
	style="font-family:Liberation Serif;font-variant:normal;font-weight:normal;font-style:normal;font-size:10px">0</text>
<text x="5" y="-295.12" transform="scale(1, -1)"
	style="font-family:Liberation Serif;font-variant:normal;font-weight:normal;font-style:normal;font-size:10px">50%</text>
<text x="0" y="-568.21" transform="scale(1, -1)"
	style="font-family:Liberation Serif;font-variant:normal;font-weight:normal;font-style:normal;font-size:10px">100%</text>
<text x="5" y="-76.656" transform="scale(1, -1)"
	style="font-family:Liberation Serif;font-variant:normal;font-weight:normal;font-style:normal;font-size:10px">10%</text>
<text x="5" y="-131.27" transform="scale(1, -1)"
	style="font-family:Liberation Serif;font-variant:normal;font-weight:normal;font-style:normal;font-size:10px">20%</text>
<text x="5" y="-185.89" transform="scale(1, -1)"
	style="font-family:Liberation Serif;font-variant:normal;font-weight:normal;font-style:normal;font-size:10px">30%</text>
<text x="5" y="-240.51" transform="scale(1, -1)"
	style="font-family:Liberation Serif;font-variant:normal;font-weight:normal;font-style:normal;font-size:10px">40%</text>
<text x="5" y="-349.74" transform="scale(1, -1)"
	style="font-family:Liberation Serif;font-variant:normal;font-weight:normal;font-style:normal;font-size:10px">60%</text>
<text x="5" y="-404.36" transform="scale(1, -1)"
	style="font-family:Liberation Serif;font-variant:normal;font-weight:normal;font-style:normal;font-size:10px">70%</text>
<text x="5" y="-458.97" transform="scale(1, -1)"
	style="font-family:Liberation Serif;font-variant:normal;font-weight:normal;font-style:normal;font-size:10px">80%</text>
<text x="5" y="-513.59" transform="scale(1, -1)"
	style="font-family:Liberation Serif;font-variant:normal;font-weight:normal;font-style:normal;font-size:10px">90%</text>
<path d="M25.83,24.324L33.83,24.324" style="fill:none;stroke:#000000;stroke-width:0.5" />
<path d="M25.83,297.41L33.83,297.41" style="fill:none;stroke:#000000;stroke-width:0.5" />
<path d="M25.83,570.49L33.83,570.49" style="fill:none;stroke:#000000;stroke-width:0.5" />
<path d="M25.83,78.941L33.83,78.941" style="fill:none;stroke:#000000;stroke-width:0.5" />
<path d="M25.83,133.56L33.83,133.56" style="fill:none;stroke:#000000;stroke-width:0.5" />
<path d="M25.83,188.17L33.83,188.17" style="fill:none;stroke:#000000;stroke-width:0.5" />
<path d="M25.83,242.79L33.83,242.79" style="fill:none;stroke:#000000;stroke-width:0.5" />
<path d="M25.83,352.02L33.83,352.02" style="fill:none;stroke:#000000;stroke-width:0.5" />
<path d="M25.83,406.64L33.83,406.64" style="fill:none;stroke:#000000;stroke-width:0.5" />
<path d="M25.83,461.26L33.83,461.26" style="fill:none;stroke:#000000;stroke-width:0.5" />
<path d="M25.83,515.87L33.83,515.87" style="fill:none;stroke:#000000;stroke-width:0.5" />
<path d="M33.83,24.324L33.83,570.49" style="fill:none;stroke:#000000;stroke-width:0.5" />
<path d="M73.968,24.324L73.968,570.49" style="fill:none;stroke:#808080;stroke-width:0.25" />
<path d="M411.78,24.324L411.78,570.49" style="fill:none;stroke:#808080;stroke-width:0.25" />
<path d="M749.6,24.324L749.6,570.49" style="fill:none;stroke:#808080;stroke-width:0.25" />
<path d="M242.88,24.324L242.88,570.49" style="fill:none;stroke:#808080;stroke-width:0.25" />
<path d="M580.69,24.324L580.69,570.49" style="fill:none;stroke:#808080;stroke-width:0.25" />
<path d="M918.51,24.324L918.51,570.49" style="fill:none;stroke:#808080;stroke-width:0.25" />
<path d="M39.58,24.324L987,24.324" style="fill:none;stroke:#808080;stroke-width:0.25" />
<path d="M39.58,297.41L987,297.41" style="fill:none;stroke:#808080;stroke-width:0.25" />
<path d="M39.58,570.49L987,570.49" style="fill:none;stroke:#808080;stroke-width:0.25" />
<path d="M39.58,78.941L987,78.941" style="fill:none;stroke:#808080;stroke-width:0.25" />
<path d="M39.58,133.56L987,133.56" style="fill:none;stroke:#808080;stroke-width:0.25" />
<path d="M39.58,188.17L987,188.17" style="fill:none;stroke:#808080;stroke-width:0.25" />
<path d="M39.58,242.79L987,242.79" style="fill:none;stroke:#808080;stroke-width:0.25" />
<path d="M39.58,352.02L987,352.02" style="fill:none;stroke:#808080;stroke-width:0.25" />
<path d="M39.58,406.64L987,406.64" style="fill:none;stroke:#808080;stroke-width:0.25" />
<path d="M39.58,461.26L987,461.26" style="fill:none;stroke:#808080;stroke-width:0.25" />
<path d="M39.58,515.87L987,515.87" style="fill:none;stroke:#808080;stroke-width:0.25" />
<path d="M39.58,24.324L39.595,24.56L39.599,24.56L39.639,24.796L40.662,25.032L40.701,25.032L40.818,25.268L42.651,25.504L42.667,25.74L44.231,25.976L44.243,26.212L44.271,26.212L45.637,26.448L45.657,26.448L45.665,26.683L45.71,26.683L49.432,26.919L49.452,27.155L49.496,27.155L49.688,27.391L49.915,27.627L50.853,27.863L50.861,27.863L50.896,28.099L51.429,28.335L51.466,28.571L52.901,28.807L52.917,28.807L52.944,29.043L57.376,29.279L57.391,29.515L57.403,29.751L59.588,29.986L59.621,29.986L59.638,30.222L59.649,30.458L61.16,30.694L61.169,30.694L61.33,30.93L61.369,31.166L63.113,31.402L63.122,31.402L63.151,31.638L63.172,31.874L64.588,32.11L349.21,32.346L349.23,32.582L350.76,32.818L352.19,33.053L352.19,33.053L353.58,33.289L353.59,33.525L353.61,33.761L353.64,33.997L356.45,34.233L356.59,34.469L357.46,34.705L362.41,34.941L362.43,35.177L362.44,35.177L365.33,35.413L365.36,35.649L368.11,35.885L368.12,35.885L368.14,36.12L928,36.356L928.01,36.356L928.12,36.356L928.34,36.592L928.35,36.828L928.41,37.064L929.72,37.3L929.76,37.3L929.83,37.536L931.54,37.772L933.06,38.008L934.55,38.244L935.91,38.48L938.08,38.716L938.09,38.952L938.12,39.188L940.12,39.423L940.14,39.659L946.2,39.895L962.14,40.131L962.15,40.367L965.05,40.603L966.6,40.839L970.74,41.075L970.78,41.311L973.88,41.547L981.06,41.783L981.09,42.019L986.98,42.255L987,42.49" style="fill:none;stroke:#FAA75B" />
</g>
</svg>
