<?xml version="1.0"?>
<!-- Generated by SVGo and Plotinum VG -->
<svg width="987pt" height="610pt" viewBox="0 0 987 610"
	xmlns="http://www.w3.org/2000/svg"
	xmlns:xlink="http://www.w3.org/1999/xlink">
<g transform="scale(1, -1) translate(0, -610)">
<path d="M0,0L987,0L987,610L0,610Z" style="fill:#FFFFFF" />
<text x="181.2" y="-594.48" transform="scale(1, -1)"
	style="font-family:Liberation Serif;font-variant:normal;font-weight:normal;font-style:normal;font-size:19.84px">Total: 1979, Done: 39, Remaining: 1940, Progress: 1.97, Updated: 2023-02-16</text>
<text x="120" y="-3.252" transform="scale(1, -1)"
	style="font-family:Liberation Serif;font-variant:normal;font-weight:normal;font-style:normal;font-size:10px">2022-08-08</text>
<text x="527.88" y="-3.252" transform="scale(1, -1)"
	style="font-family:Liberation Serif;font-variant:normal;font-weight:normal;font-style:normal;font-size:10px">2022-11-09</text>
<text x="935.38" y="-3.252" transform="scale(1, -1)"
	style="font-family:Liberation Serif;font-variant:normal;font-weight:normal;font-style:normal;font-size:10px">2023-02-10</text>
<text x="323.85" y="-3.252" transform="scale(1, -1)"
	style="font-family:Liberation Serif;font-variant:normal;font-weight:normal;font-style:normal;font-size:10px">2022-09-24</text>
<text x="731.54" y="-3.252" transform="scale(1, -1)"
	style="font-family:Liberation Serif;font-variant:normal;font-weight:normal;font-style:normal;font-size:10px">2022-12-25</text>
<path d="M143.33,11.074L143.33,19.074" style="fill:none;stroke:#000000;stroke-width:0.5" />
<path d="M551.02,11.074L551.02,19.074" style="fill:none;stroke:#000000;stroke-width:0.5" />
<path d="M958.71,11.074L958.71,19.074" style="fill:none;stroke:#000000;stroke-width:0.5" />
<path d="M347.18,11.074L347.18,19.074" style="fill:none;stroke:#000000;stroke-width:0.5" />
<path d="M754.87,11.074L754.87,19.074" style="fill:none;stroke:#000000;stroke-width:0.5" />
<path d="M39.58,19.074L987,19.074" style="fill:none;stroke:#000000;stroke-width:0.5" />
<text x="18.33" y="-22.039" transform="scale(1, -1)"
	style="font-family:Liberation Serif;font-variant:normal;font-weight:normal;font-style:normal;font-size:10px">0</text>
<text x="5" y="-295.12" transform="scale(1, -1)"
	style="font-family:Liberation Serif;font-variant:normal;font-weight:normal;font-style:normal;font-size:10px">50%</text>
<text x="0" y="-568.21" transform="scale(1, -1)"
	style="font-family:Liberation Serif;font-variant:normal;font-weight:normal;font-style:normal;font-size:10px">100%</text>
<text x="5" y="-76.656" transform="scale(1, -1)"
	style="font-family:Liberation Serif;font-variant:normal;font-weight:normal;font-style:normal;font-size:10px">10%</text>
<text x="5" y="-131.27" transform="scale(1, -1)"
	style="font-family:Liberation Serif;font-variant:normal;font-weight:normal;font-style:normal;font-size:10px">20%</text>
<text x="5" y="-185.89" transform="scale(1, -1)"
	style="font-family:Liberation Serif;font-variant:normal;font-weight:normal;font-style:normal;font-size:10px">30%</text>
<text x="5" y="-240.51" transform="scale(1, -1)"
	style="font-family:Liberation Serif;font-variant:normal;font-weight:normal;font-style:normal;font-size:10px">40%</text>
<text x="5" y="-349.74" transform="scale(1, -1)"
	style="font-family:Liberation Serif;font-variant:normal;font-weight:normal;font-style:normal;font-size:10px">60%</text>
<text x="5" y="-404.36" transform="scale(1, -1)"
	style="font-family:Liberation Serif;font-variant:normal;font-weight:normal;font-style:normal;font-size:10px">70%</text>
<text x="5" y="-458.97" transform="scale(1, -1)"
	style="font-family:Liberation Serif;font-variant:normal;font-weight:normal;font-style:normal;font-size:10px">80%</text>
<text x="5" y="-513.59" transform="scale(1, -1)"
	style="font-family:Liberation Serif;font-variant:normal;font-weight:normal;font-style:normal;font-size:10px">90%</text>
<path d="M25.83,24.324L33.83,24.324" style="fill:none;stroke:#000000;stroke-width:0.5" />
<path d="M25.83,297.41L33.83,297.41" style="fill:none;stroke:#000000;stroke-width:0.5" />
<path d="M25.83,570.49L33.83,570.49" style="fill:none;stroke:#000000;stroke-width:0.5" />
<path d="M25.83,78.941L33.83,78.941" style="fill:none;stroke:#000000;stroke-width:0.5" />
<path d="M25.83,133.56L33.83,133.56" style="fill:none;stroke:#000000;stroke-width:0.5" />
<path d="M25.83,188.17L33.83,188.17" style="fill:none;stroke:#000000;stroke-width:0.5" />
<path d="M25.83,242.79L33.83,242.79" style="fill:none;stroke:#000000;stroke-width:0.5" />
<path d="M25.83,352.02L33.83,352.02" style="fill:none;stroke:#000000;stroke-width:0.5" />
<path d="M25.83,406.64L33.83,406.64" style="fill:none;stroke:#000000;stroke-width:0.5" />
<path d="M25.83,461.26L33.83,461.26" style="fill:none;stroke:#000000;stroke-width:0.5" />
<path d="M25.83,515.87L33.83,515.87" style="fill:none;stroke:#000000;stroke-width:0.5" />
<path d="M33.83,24.324L33.83,570.49" style="fill:none;stroke:#000000;stroke-width:0.5" />
<path d="M143.33,24.324L143.33,570.49" style="fill:none;stroke:#808080;stroke-width:0.25" />
<path d="M551.02,24.324L551.02,570.49" style="fill:none;stroke:#808080;stroke-width:0.25" />
<path d="M958.71,24.324L958.71,570.49" style="fill:none;stroke:#808080;stroke-width:0.25" />
<path d="M347.18,24.324L347.18,570.49" style="fill:none;stroke:#808080;stroke-width:0.25" />
<path d="M754.87,24.324L754.87,570.49" style="fill:none;stroke:#808080;stroke-width:0.25" />
<path d="M39.58,24.324L987,24.324" style="fill:none;stroke:#808080;stroke-width:0.25" />
<path d="M39.58,297.41L987,297.41" style="fill:none;stroke:#808080;stroke-width:0.25" />
<path d="M39.58,570.49L987,570.49" style="fill:none;stroke:#808080;stroke-width:0.25" />
<path d="M39.58,78.941L987,78.941" style="fill:none;stroke:#808080;stroke-width:0.25" />
<path d="M39.58,133.56L987,133.56" style="fill:none;stroke:#808080;stroke-width:0.25" />
<path d="M39.58,188.17L987,188.17" style="fill:none;stroke:#808080;stroke-width:0.25" />
<path d="M39.58,242.79L987,242.79" style="fill:none;stroke:#808080;stroke-width:0.25" />
<path d="M39.58,352.02L987,352.02" style="fill:none;stroke:#808080;stroke-width:0.25" />
<path d="M39.58,406.64L987,406.64" style="fill:none;stroke:#808080;stroke-width:0.25" />
<path d="M39.58,461.26L987,461.26" style="fill:none;stroke:#808080;stroke-width:0.25" />
<path d="M39.58,515.87L987,515.87" style="fill:none;stroke:#808080;stroke-width:0.25" />
<path d="M39.58,24.324L39.626,24.6L39.636,24.6L39.757,24.876L42.845,25.152L42.961,25.152L43.316,25.428L48.847,25.704L48.893,25.98L53.612,26.256L53.65,26.532L53.732,26.532L57.854,26.808L57.915,26.808L57.939,27.084L58.074,27.084L69.303,27.36L69.364,27.636L69.497,27.636L70.077,27.912L70.763,28.188L73.593,28.464L73.617,28.464L73.723,28.74L75.329,29.016L75.442,29.292L79.771,29.568L79.82,29.568L79.9,29.844L93.273,30.12L93.317,30.396L93.353,30.672L99.947,30.948L100.05,30.948L100.1,31.224L100.13,31.5L104.69,31.776L104.72,31.776L105.2,32.052L105.32,32.328L110.58,32.604L110.61,32.604L110.7,32.88L110.76,33.156L115.03,33.432L973.78,33.708L973.83,33.984L978.44,34.26L982.75,34.536L982.76,34.536L986.96,34.812L987,35.087" style="fill:none;stroke:#FAA75B" />
</g>
</svg>
