<?xml version="1.0"?>
<!-- Generated by SVGo and Plotinum VG -->
<svg width="987pt" height="610pt" viewBox="0 0 987 610"
	xmlns="http://www.w3.org/2000/svg"
	xmlns:xlink="http://www.w3.org/1999/xlink">
<g transform="scale(1, -1) translate(0, -610)">
<path d="M0,0L987,0L987,610L0,610Z" style="fill:#FFFFFF" />
<text x="181.2" y="-594.48" transform="scale(1, -1)"
	style="font-family:Liberation Serif;font-variant:normal;font-weight:normal;font-style:normal;font-size:19.84px">Total: 1806, Done: 27, Remaining: 1779, Progress: 1.50, Updated: 2022-07-31</text>
<text x="42.842" y="-3.252" transform="scale(1, -1)"
	style="font-family:Liberation Serif;font-variant:normal;font-weight:normal;font-style:normal;font-size:10px">2022-07-16</text>
<text x="339.34" y="-3.252" transform="scale(1, -1)"
	style="font-family:Liberation Serif;font-variant:normal;font-weight:normal;font-style:normal;font-size:10px">2022-07-21</text>
<text x="635.84" y="-3.252" transform="scale(1, -1)"
	style="font-family:Liberation Serif;font-variant:normal;font-weight:normal;font-style:normal;font-size:10px">2022-07-26</text>
<text x="932.34" y="-3.252" transform="scale(1, -1)"
	style="font-family:Liberation Serif;font-variant:normal;font-weight:normal;font-style:normal;font-size:10px">2022-07-30</text>
<text x="116.97" y="-3.252" transform="scale(1, -1)"
	style="font-family:Liberation Serif;font-variant:normal;font-weight:normal;font-style:normal;font-size:10px">2022-07-17</text>
<text x="191.09" y="-3.252" transform="scale(1, -1)"
	style="font-family:Liberation Serif;font-variant:normal;font-weight:normal;font-style:normal;font-size:10px">2022-07-19</text>
<text x="265.22" y="-3.252" transform="scale(1, -1)"
	style="font-family:Liberation Serif;font-variant:normal;font-weight:normal;font-style:normal;font-size:10px">2022-07-20</text>
<text x="413.46" y="-3.252" transform="scale(1, -1)"
	style="font-family:Liberation Serif;font-variant:normal;font-weight:normal;font-style:normal;font-size:10px">2022-07-22</text>
<text x="487.59" y="-3.252" transform="scale(1, -1)"
	style="font-family:Liberation Serif;font-variant:normal;font-weight:normal;font-style:normal;font-size:10px">2022-07-23</text>
<text x="561.71" y="-3.252" transform="scale(1, -1)"
	style="font-family:Liberation Serif;font-variant:normal;font-weight:normal;font-style:normal;font-size:10px">2022-07-24</text>
<text x="709.96" y="-3.252" transform="scale(1, -1)"
	style="font-family:Liberation Serif;font-variant:normal;font-weight:normal;font-style:normal;font-size:10px">2022-07-27</text>
<text x="784.09" y="-3.252" transform="scale(1, -1)"
	style="font-family:Liberation Serif;font-variant:normal;font-weight:normal;font-style:normal;font-size:10px">2022-07-28</text>
<text x="858.21" y="-3.252" transform="scale(1, -1)"
	style="font-family:Liberation Serif;font-variant:normal;font-weight:normal;font-style:normal;font-size:10px">2022-07-29</text>
<path d="M66.172,11.074L66.172,19.074" style="fill:none;stroke:#000000;stroke-width:0.5" />
<path d="M362.67,11.074L362.67,19.074" style="fill:none;stroke:#000000;stroke-width:0.5" />
<path d="M659.17,11.074L659.17,19.074" style="fill:none;stroke:#000000;stroke-width:0.5" />
<path d="M955.67,11.074L955.67,19.074" style="fill:none;stroke:#000000;stroke-width:0.5" />
<path d="M140.3,11.074L140.3,19.074" style="fill:none;stroke:#000000;stroke-width:0.5" />
<path d="M214.42,11.074L214.42,19.074" style="fill:none;stroke:#000000;stroke-width:0.5" />
<path d="M288.55,11.074L288.55,19.074" style="fill:none;stroke:#000000;stroke-width:0.5" />
<path d="M436.79,11.074L436.79,19.074" style="fill:none;stroke:#000000;stroke-width:0.5" />
<path d="M510.92,11.074L510.92,19.074" style="fill:none;stroke:#000000;stroke-width:0.5" />
<path d="M585.04,11.074L585.04,19.074" style="fill:none;stroke:#000000;stroke-width:0.5" />
<path d="M733.29,11.074L733.29,19.074" style="fill:none;stroke:#000000;stroke-width:0.5" />
<path d="M807.42,11.074L807.42,19.074" style="fill:none;stroke:#000000;stroke-width:0.5" />
<path d="M881.54,11.074L881.54,19.074" style="fill:none;stroke:#000000;stroke-width:0.5" />
<path d="M39.58,19.074L987,19.074" style="fill:none;stroke:#000000;stroke-width:0.5" />
<text x="18.33" y="-22.039" transform="scale(1, -1)"
	style="font-family:Liberation Serif;font-variant:normal;font-weight:normal;font-style:normal;font-size:10px">0</text>
<text x="5" y="-295.12" transform="scale(1, -1)"
	style="font-family:Liberation Serif;font-variant:normal;font-weight:normal;font-style:normal;font-size:10px">50%</text>
<text x="0" y="-568.21" transform="scale(1, -1)"
	style="font-family:Liberation Serif;font-variant:normal;font-weight:normal;font-style:normal;font-size:10px">100%</text>
<text x="5" y="-76.656" transform="scale(1, -1)"
	style="font-family:Liberation Serif;font-variant:normal;font-weight:normal;font-style:normal;font-size:10px">10%</text>
<text x="5" y="-131.27" transform="scale(1, -1)"
	style="font-family:Liberation Serif;font-variant:normal;font-weight:normal;font-style:normal;font-size:10px">20%</text>
<text x="5" y="-185.89" transform="scale(1, -1)"
	style="font-family:Liberation Serif;font-variant:normal;font-weight:normal;font-style:normal;font-size:10px">30%</text>
<text x="5" y="-240.51" transform="scale(1, -1)"
	style="font-family:Liberation Serif;font-variant:normal;font-weight:normal;font-style:normal;font-size:10px">40%</text>
<text x="5" y="-349.74" transform="scale(1, -1)"
	style="font-family:Liberation Serif;font-variant:normal;font-weight:normal;font-style:normal;font-size:10px">60%</text>
<text x="5" y="-404.36" transform="scale(1, -1)"
	style="font-family:Liberation Serif;font-variant:normal;font-weight:normal;font-style:normal;font-size:10px">70%</text>
<text x="5" y="-458.97" transform="scale(1, -1)"
	style="font-family:Liberation Serif;font-variant:normal;font-weight:normal;font-style:normal;font-size:10px">80%</text>
<text x="5" y="-513.59" transform="scale(1, -1)"
	style="font-family:Liberation Serif;font-variant:normal;font-weight:normal;font-style:normal;font-size:10px">90%</text>
<path d="M25.83,24.324L33.83,24.324" style="fill:none;stroke:#000000;stroke-width:0.5" />
<path d="M25.83,297.41L33.83,297.41" style="fill:none;stroke:#000000;stroke-width:0.5" />
<path d="M25.83,570.49L33.83,570.49" style="fill:none;stroke:#000000;stroke-width:0.5" />
<path d="M25.83,78.941L33.83,78.941" style="fill:none;stroke:#000000;stroke-width:0.5" />
<path d="M25.83,133.56L33.83,133.56" style="fill:none;stroke:#000000;stroke-width:0.5" />
<path d="M25.83,188.17L33.83,188.17" style="fill:none;stroke:#000000;stroke-width:0.5" />
<path d="M25.83,242.79L33.83,242.79" style="fill:none;stroke:#000000;stroke-width:0.5" />
<path d="M25.83,352.02L33.83,352.02" style="fill:none;stroke:#000000;stroke-width:0.5" />
<path d="M25.83,406.64L33.83,406.64" style="fill:none;stroke:#000000;stroke-width:0.5" />
<path d="M25.83,461.26L33.83,461.26" style="fill:none;stroke:#000000;stroke-width:0.5" />
<path d="M25.83,515.87L33.83,515.87" style="fill:none;stroke:#000000;stroke-width:0.5" />
<path d="M33.83,24.324L33.83,570.49" style="fill:none;stroke:#000000;stroke-width:0.5" />
<path d="M66.172,24.324L66.172,570.49" style="fill:none;stroke:#808080;stroke-width:0.25" />
<path d="M362.67,24.324L362.67,570.49" style="fill:none;stroke:#808080;stroke-width:0.25" />
<path d="M659.17,24.324L659.17,570.49" style="fill:none;stroke:#808080;stroke-width:0.25" />
<path d="M955.67,24.324L955.67,570.49" style="fill:none;stroke:#808080;stroke-width:0.25" />
<path d="M140.3,24.324L140.3,570.49" style="fill:none;stroke:#808080;stroke-width:0.25" />
<path d="M214.42,24.324L214.42,570.49" style="fill:none;stroke:#808080;stroke-width:0.25" />
<path d="M288.55,24.324L288.55,570.49" style="fill:none;stroke:#808080;stroke-width:0.25" />
<path d="M436.79,24.324L436.79,570.49" style="fill:none;stroke:#808080;stroke-width:0.25" />
<path d="M510.92,24.324L510.92,570.49" style="fill:none;stroke:#808080;stroke-width:0.25" />
<path d="M585.04,24.324L585.04,570.49" style="fill:none;stroke:#808080;stroke-width:0.25" />
<path d="M733.29,24.324L733.29,570.49" style="fill:none;stroke:#808080;stroke-width:0.25" />
<path d="M807.42,24.324L807.42,570.49" style="fill:none;stroke:#808080;stroke-width:0.25" />
<path d="M881.54,24.324L881.54,570.49" style="fill:none;stroke:#808080;stroke-width:0.25" />
<path d="M39.58,24.324L987,24.324" style="fill:none;stroke:#808080;stroke-width:0.25" />
<path d="M39.58,297.41L987,297.41" style="fill:none;stroke:#808080;stroke-width:0.25" />
<path d="M39.58,570.49L987,570.49" style="fill:none;stroke:#808080;stroke-width:0.25" />
<path d="M39.58,78.941L987,78.941" style="fill:none;stroke:#808080;stroke-width:0.25" />
<path d="M39.58,133.56L987,133.56" style="fill:none;stroke:#808080;stroke-width:0.25" />
<path d="M39.58,188.17L987,188.17" style="fill:none;stroke:#808080;stroke-width:0.25" />
<path d="M39.58,242.79L987,242.79" style="fill:none;stroke:#808080;stroke-width:0.25" />
<path d="M39.58,352.02L987,352.02" style="fill:none;stroke:#808080;stroke-width:0.25" />
<path d="M39.58,406.64L987,406.64" style="fill:none;stroke:#808080;stroke-width:0.25" />
<path d="M39.58,461.26L987,461.26" style="fill:none;stroke:#808080;stroke-width:0.25" />
<path d="M39.58,515.87L987,515.87" style="fill:none;stroke:#808080;stroke-width:0.25" />
<path d="M39.58,24.324L40.254,24.627L40.392,24.627L42.154,24.929L87.075,25.231L88.761,25.231L93.913,25.534L174.37,25.836L175.04,26.139L243.67,26.441L244.23,26.744L245.43,26.744L305.38,27.046L306.27,27.046L306.61,27.348L308.57,27.348L471.91,27.651L472.79,27.953L474.72,27.953L483.16,28.256L493.14,28.558L534.31,28.86L534.66,28.86L536.19,29.163L559.56,29.465L561.19,29.768L624.17,30.07L624.88,30.07L626.04,30.373L820.56,30.675L821.19,30.977L821.71,31.28L917.63,31.582L919.07,31.582L919.82,31.885L920.27,32.187L986.62,32.49L987,32.49" style="fill:none;stroke:#FAA75B" />
</g>
</svg>
