<?xml version="1.0"?>
<!-- Generated by SVGo and Plotinum VG -->
<svg width="987pt" height="610pt" viewBox="0 0 987 610"
	xmlns="http://www.w3.org/2000/svg"
	xmlns:xlink="http://www.w3.org/1999/xlink">
<g transform="scale(1, -1) translate(0, -610)">
<path d="M0,0L987,0L987,610L0,610Z" style="fill:#FFFFFF" />
<text x="181.57" y="-594.48" transform="scale(1, -1)"
	style="font-family:Liberation Serif;font-variant:normal;font-weight:normal;font-style:normal;font-size:19.84px">Total: 2315, Done: 70, Remaining: 2245, Progress: 3.02, Updated: 2024-04-11</text>
<text x="51.394" y="-3.252" transform="scale(1, -1)"
	style="font-family:Liberation Serif;font-variant:normal;font-weight:normal;font-style:normal;font-size:10px">2022-08-08</text>
<text x="396.64" y="-3.252" transform="scale(1, -1)"
	style="font-family:Liberation Serif;font-variant:normal;font-weight:normal;font-style:normal;font-size:10px">2023-03-28</text>
<text x="742.08" y="-3.252" transform="scale(1, -1)"
	style="font-family:Liberation Serif;font-variant:normal;font-weight:normal;font-style:normal;font-size:10px">2023-11-14</text>
<text x="224.02" y="-3.252" transform="scale(1, -1)"
	style="font-family:Liberation Serif;font-variant:normal;font-weight:normal;font-style:normal;font-size:10px">2022-12-02</text>
<text x="569.27" y="-3.252" transform="scale(1, -1)"
	style="font-family:Liberation Serif;font-variant:normal;font-weight:normal;font-style:normal;font-size:10px">2023-07-22</text>
<text x="914.51" y="-3.252" transform="scale(1, -1)"
	style="font-family:Liberation Serif;font-variant:normal;font-weight:normal;font-style:normal;font-size:10px">2024-03-09</text>
<path d="M74.724,11.074L74.724,19.074" style="fill:none;stroke:#000000;stroke-width:0.5" />
<path d="M419.97,11.074L419.97,19.074" style="fill:none;stroke:#000000;stroke-width:0.5" />
<path d="M765.22,11.074L765.22,19.074" style="fill:none;stroke:#000000;stroke-width:0.5" />
<path d="M247.35,11.074L247.35,19.074" style="fill:none;stroke:#000000;stroke-width:0.5" />
<path d="M592.6,11.074L592.6,19.074" style="fill:none;stroke:#000000;stroke-width:0.5" />
<path d="M937.84,11.074L937.84,19.074" style="fill:none;stroke:#000000;stroke-width:0.5" />
<path d="M39.58,19.074L987,19.074" style="fill:none;stroke:#000000;stroke-width:0.5" />
<text x="18.33" y="-22.039" transform="scale(1, -1)"
	style="font-family:Liberation Serif;font-variant:normal;font-weight:normal;font-style:normal;font-size:10px">0</text>
<text x="5" y="-295.12" transform="scale(1, -1)"
	style="font-family:Liberation Serif;font-variant:normal;font-weight:normal;font-style:normal;font-size:10px">50%</text>
<text x="0" y="-568.21" transform="scale(1, -1)"
	style="font-family:Liberation Serif;font-variant:normal;font-weight:normal;font-style:normal;font-size:10px">100%</text>
<text x="5" y="-76.656" transform="scale(1, -1)"
	style="font-family:Liberation Serif;font-variant:normal;font-weight:normal;font-style:normal;font-size:10px">10%</text>
<text x="5" y="-131.27" transform="scale(1, -1)"
	style="font-family:Liberation Serif;font-variant:normal;font-weight:normal;font-style:normal;font-size:10px">20%</text>
<text x="5" y="-185.89" transform="scale(1, -1)"
	style="font-family:Liberation Serif;font-variant:normal;font-weight:normal;font-style:normal;font-size:10px">30%</text>
<text x="5" y="-240.51" transform="scale(1, -1)"
	style="font-family:Liberation Serif;font-variant:normal;font-weight:normal;font-style:normal;font-size:10px">40%</text>
<text x="5" y="-349.74" transform="scale(1, -1)"
	style="font-family:Liberation Serif;font-variant:normal;font-weight:normal;font-style:normal;font-size:10px">60%</text>
<text x="5" y="-404.36" transform="scale(1, -1)"
	style="font-family:Liberation Serif;font-variant:normal;font-weight:normal;font-style:normal;font-size:10px">70%</text>
<text x="5" y="-458.97" transform="scale(1, -1)"
	style="font-family:Liberation Serif;font-variant:normal;font-weight:normal;font-style:normal;font-size:10px">80%</text>
<text x="5" y="-513.59" transform="scale(1, -1)"
	style="font-family:Liberation Serif;font-variant:normal;font-weight:normal;font-style:normal;font-size:10px">90%</text>
<path d="M25.83,24.324L33.83,24.324" style="fill:none;stroke:#000000;stroke-width:0.5" />
<path d="M25.83,297.41L33.83,297.41" style="fill:none;stroke:#000000;stroke-width:0.5" />
<path d="M25.83,570.49L33.83,570.49" style="fill:none;stroke:#000000;stroke-width:0.5" />
<path d="M25.83,78.941L33.83,78.941" style="fill:none;stroke:#000000;stroke-width:0.5" />
<path d="M25.83,133.56L33.83,133.56" style="fill:none;stroke:#000000;stroke-width:0.5" />
<path d="M25.83,188.17L33.83,188.17" style="fill:none;stroke:#000000;stroke-width:0.5" />
<path d="M25.83,242.79L33.83,242.79" style="fill:none;stroke:#000000;stroke-width:0.5" />
<path d="M25.83,352.02L33.83,352.02" style="fill:none;stroke:#000000;stroke-width:0.5" />
<path d="M25.83,406.64L33.83,406.64" style="fill:none;stroke:#000000;stroke-width:0.5" />
<path d="M25.83,461.26L33.83,461.26" style="fill:none;stroke:#000000;stroke-width:0.5" />
<path d="M25.83,515.87L33.83,515.87" style="fill:none;stroke:#000000;stroke-width:0.5" />
<path d="M33.83,24.324L33.83,570.49" style="fill:none;stroke:#000000;stroke-width:0.5" />
<path d="M74.724,24.324L74.724,570.49" style="fill:none;stroke:#808080;stroke-width:0.25" />
<path d="M419.97,24.324L419.97,570.49" style="fill:none;stroke:#808080;stroke-width:0.25" />
<path d="M765.22,24.324L765.22,570.49" style="fill:none;stroke:#808080;stroke-width:0.25" />
<path d="M247.35,24.324L247.35,570.49" style="fill:none;stroke:#808080;stroke-width:0.25" />
<path d="M592.6,24.324L592.6,570.49" style="fill:none;stroke:#808080;stroke-width:0.25" />
<path d="M937.84,24.324L937.84,570.49" style="fill:none;stroke:#808080;stroke-width:0.25" />
<path d="M39.58,24.324L987,24.324" style="fill:none;stroke:#808080;stroke-width:0.25" />
<path d="M39.58,297.41L987,297.41" style="fill:none;stroke:#808080;stroke-width:0.25" />
<path d="M39.58,570.49L987,570.49" style="fill:none;stroke:#808080;stroke-width:0.25" />
<path d="M39.58,78.941L987,78.941" style="fill:none;stroke:#808080;stroke-width:0.25" />
<path d="M39.58,133.56L987,133.56" style="fill:none;stroke:#808080;stroke-width:0.25" />
<path d="M39.58,188.17L987,188.17" style="fill:none;stroke:#808080;stroke-width:0.25" />
<path d="M39.58,242.79L987,242.79" style="fill:none;stroke:#808080;stroke-width:0.25" />
<path d="M39.58,352.02L987,352.02" style="fill:none;stroke:#808080;stroke-width:0.25" />
<path d="M39.58,406.64L987,406.64" style="fill:none;stroke:#808080;stroke-width:0.25" />
<path d="M39.58,461.26L987,461.26" style="fill:none;stroke:#808080;stroke-width:0.25" />
<path d="M39.58,515.87L987,515.87" style="fill:none;stroke:#808080;stroke-width:0.25" />
<path d="M39.58,24.324L39.596,24.56L39.599,24.56L39.64,24.796L40.686,25.032L40.725,25.032L40.845,25.268L42.719,25.504L42.735,25.74L44.333,25.976L44.346,26.212L44.374,26.212L45.77,26.448L45.791,26.448L45.799,26.683L45.844,26.683L49.648,26.919L49.669,27.155L49.714,27.155L49.91,27.391L50.143,27.627L51.101,27.863L51.11,27.863L51.145,28.099L51.69,28.335L51.728,28.571L53.194,28.807L53.211,28.807L53.238,29.043L57.768,29.279L57.783,29.515L57.795,29.751L60.028,29.986L60.062,29.986L60.079,30.222L60.09,30.458L61.635,30.694L61.644,30.694L61.809,30.93L61.848,31.166L63.63,31.402L63.64,31.402L63.67,31.638L63.691,31.874L65.138,32.11L356.03,32.346L356.04,32.582L357.61,32.818L359.07,33.053L359.07,33.053L360.49,33.289L360.5,33.525L360.52,33.761L360.55,33.997L363.42,34.233L363.56,34.469L364.45,34.705L369.52,34.941L369.53,35.177L369.54,35.177L372.5,35.413L372.53,35.649L375.33,35.885L375.34,35.885L375.37,36.12L947.55,36.356L947.56,36.356L947.67,36.356L947.89,36.592L947.9,36.828L947.96,37.064L949.3,37.3L949.35,37.3L949.42,37.536L951.16,37.772L952.72,38.008L954.24,38.244L955.63,38.48L957.85,38.716L957.86,38.952L957.88,39.188L959.93,39.423L959.96,39.659L966.15,39.895L982.44,40.131L982.45,40.367L985.42,40.603L987,40.839" style="fill:none;stroke:#FAA75B" />
</g>
</svg>
