<?xml version="1.0"?>
<!-- Generated by SVGo and Plotinum VG -->
<svg width="987pt" height="610pt" viewBox="0 0 987 610"
	xmlns="http://www.w3.org/2000/svg"
	xmlns:xlink="http://www.w3.org/1999/xlink">
<g transform="scale(1, -1) translate(0, -610)">
<path d="M0,0L987,0L987,610L0,610Z" style="fill:#FFFFFF" />
<text x="181.2" y="-594.48" transform="scale(1, -1)"
	style="font-family:Liberation Serif;font-variant:normal;font-weight:normal;font-style:normal;font-size:19.84px">Total: 2315, Done: 81, Remaining: 2234, Progress: 3.50, Updated: 2024-06-15</text>
<text x="204.77" y="-3.252" transform="scale(1, -1)"
	style="font-family:Liberation Serif;font-variant:normal;font-weight:normal;font-style:normal;font-size:10px">2022-12-02</text>
<text x="518.05" y="-3.252" transform="scale(1, -1)"
	style="font-family:Liberation Serif;font-variant:normal;font-weight:normal;font-style:normal;font-size:10px">2023-07-22</text>
<text x="831.32" y="-3.252" transform="scale(1, -1)"
	style="font-family:Liberation Serif;font-variant:normal;font-weight:normal;font-style:normal;font-size:10px">2024-03-09</text>
<text x="48.139" y="-3.252" transform="scale(1, -1)"
	style="font-family:Liberation Serif;font-variant:normal;font-weight:normal;font-style:normal;font-size:10px">2022-08-08</text>
<text x="361.41" y="-3.252" transform="scale(1, -1)"
	style="font-family:Liberation Serif;font-variant:normal;font-weight:normal;font-style:normal;font-size:10px">2023-03-28</text>
<text x="674.87" y="-3.252" transform="scale(1, -1)"
	style="font-family:Liberation Serif;font-variant:normal;font-weight:normal;font-style:normal;font-size:10px">2023-11-14</text>
<path d="M228.1,11.074L228.1,19.074" style="fill:none;stroke:#000000;stroke-width:0.5" />
<path d="M541.38,11.074L541.38,19.074" style="fill:none;stroke:#000000;stroke-width:0.5" />
<path d="M854.65,11.074L854.65,19.074" style="fill:none;stroke:#000000;stroke-width:0.5" />
<path d="M71.469,11.074L71.469,19.074" style="fill:none;stroke:#000000;stroke-width:0.5" />
<path d="M384.74,11.074L384.74,19.074" style="fill:none;stroke:#000000;stroke-width:0.5" />
<path d="M698.01,11.074L698.01,19.074" style="fill:none;stroke:#000000;stroke-width:0.5" />
<path d="M39.58,19.074L987,19.074" style="fill:none;stroke:#000000;stroke-width:0.5" />
<text x="18.33" y="-22.039" transform="scale(1, -1)"
	style="font-family:Liberation Serif;font-variant:normal;font-weight:normal;font-style:normal;font-size:10px">0</text>
<text x="5" y="-295.12" transform="scale(1, -1)"
	style="font-family:Liberation Serif;font-variant:normal;font-weight:normal;font-style:normal;font-size:10px">50%</text>
<text x="0" y="-568.21" transform="scale(1, -1)"
	style="font-family:Liberation Serif;font-variant:normal;font-weight:normal;font-style:normal;font-size:10px">100%</text>
<text x="5" y="-76.656" transform="scale(1, -1)"
	style="font-family:Liberation Serif;font-variant:normal;font-weight:normal;font-style:normal;font-size:10px">10%</text>
<text x="5" y="-131.27" transform="scale(1, -1)"
	style="font-family:Liberation Serif;font-variant:normal;font-weight:normal;font-style:normal;font-size:10px">20%</text>
<text x="5" y="-185.89" transform="scale(1, -1)"
	style="font-family:Liberation Serif;font-variant:normal;font-weight:normal;font-style:normal;font-size:10px">30%</text>
<text x="5" y="-240.51" transform="scale(1, -1)"
	style="font-family:Liberation Serif;font-variant:normal;font-weight:normal;font-style:normal;font-size:10px">40%</text>
<text x="5" y="-349.74" transform="scale(1, -1)"
	style="font-family:Liberation Serif;font-variant:normal;font-weight:normal;font-style:normal;font-size:10px">60%</text>
<text x="5" y="-404.36" transform="scale(1, -1)"
	style="font-family:Liberation Serif;font-variant:normal;font-weight:normal;font-style:normal;font-size:10px">70%</text>
<text x="5" y="-458.97" transform="scale(1, -1)"
	style="font-family:Liberation Serif;font-variant:normal;font-weight:normal;font-style:normal;font-size:10px">80%</text>
<text x="5" y="-513.59" transform="scale(1, -1)"
	style="font-family:Liberation Serif;font-variant:normal;font-weight:normal;font-style:normal;font-size:10px">90%</text>
<path d="M25.83,24.324L33.83,24.324" style="fill:none;stroke:#000000;stroke-width:0.5" />
<path d="M25.83,297.41L33.83,297.41" style="fill:none;stroke:#000000;stroke-width:0.5" />
<path d="M25.83,570.49L33.83,570.49" style="fill:none;stroke:#000000;stroke-width:0.5" />
<path d="M25.83,78.941L33.83,78.941" style="fill:none;stroke:#000000;stroke-width:0.5" />
<path d="M25.83,133.56L33.83,133.56" style="fill:none;stroke:#000000;stroke-width:0.5" />
<path d="M25.83,188.17L33.83,188.17" style="fill:none;stroke:#000000;stroke-width:0.5" />
<path d="M25.83,242.79L33.83,242.79" style="fill:none;stroke:#000000;stroke-width:0.5" />
<path d="M25.83,352.02L33.83,352.02" style="fill:none;stroke:#000000;stroke-width:0.5" />
<path d="M25.83,406.64L33.83,406.64" style="fill:none;stroke:#000000;stroke-width:0.5" />
<path d="M25.83,461.26L33.83,461.26" style="fill:none;stroke:#000000;stroke-width:0.5" />
<path d="M25.83,515.87L33.83,515.87" style="fill:none;stroke:#000000;stroke-width:0.5" />
<path d="M33.83,24.324L33.83,570.49" style="fill:none;stroke:#000000;stroke-width:0.5" />
<path d="M228.1,24.324L228.1,570.49" style="fill:none;stroke:#808080;stroke-width:0.25" />
<path d="M541.38,24.324L541.38,570.49" style="fill:none;stroke:#808080;stroke-width:0.25" />
<path d="M854.65,24.324L854.65,570.49" style="fill:none;stroke:#808080;stroke-width:0.25" />
<path d="M71.469,24.324L71.469,570.49" style="fill:none;stroke:#808080;stroke-width:0.25" />
<path d="M384.74,24.324L384.74,570.49" style="fill:none;stroke:#808080;stroke-width:0.25" />
<path d="M698.01,24.324L698.01,570.49" style="fill:none;stroke:#808080;stroke-width:0.25" />
<path d="M39.58,24.324L987,24.324" style="fill:none;stroke:#808080;stroke-width:0.25" />
<path d="M39.58,297.41L987,297.41" style="fill:none;stroke:#808080;stroke-width:0.25" />
<path d="M39.58,570.49L987,570.49" style="fill:none;stroke:#808080;stroke-width:0.25" />
<path d="M39.58,78.941L987,78.941" style="fill:none;stroke:#808080;stroke-width:0.25" />
<path d="M39.58,133.56L987,133.56" style="fill:none;stroke:#808080;stroke-width:0.25" />
<path d="M39.58,188.17L987,188.17" style="fill:none;stroke:#808080;stroke-width:0.25" />
<path d="M39.58,242.79L987,242.79" style="fill:none;stroke:#808080;stroke-width:0.25" />
<path d="M39.58,352.02L987,352.02" style="fill:none;stroke:#808080;stroke-width:0.25" />
<path d="M39.58,406.64L987,406.64" style="fill:none;stroke:#808080;stroke-width:0.25" />
<path d="M39.58,461.26L987,461.26" style="fill:none;stroke:#808080;stroke-width:0.25" />
<path d="M39.58,515.87L987,515.87" style="fill:none;stroke:#808080;stroke-width:0.25" />
<path d="M39.58,24.324L39.594,24.56L39.597,24.56L39.634,24.796L40.584,25.032L40.619,25.032L40.728,25.268L42.428,25.504L42.442,25.74L43.893,25.976L43.905,26.212L43.93,26.212L45.197,26.448L45.216,26.448L45.223,26.683L45.264,26.683L48.716,26.919L48.734,27.155L48.775,27.155L48.954,27.391L49.164,27.627L50.034,27.863L50.042,27.863L50.074,28.099L50.568,28.335L50.603,28.571L51.933,28.807L51.948,28.807L51.973,29.043L56.083,29.279L56.097,29.515L56.108,29.751L58.134,29.986L58.165,29.986L58.181,30.222L58.19,30.458L59.592,30.694L59.6,30.694L59.75,30.93L59.786,31.166L61.403,31.402L61.411,31.402L61.439,31.638L61.458,31.874L62.771,32.11L326.72,32.346L326.73,32.582L328.15,32.818L329.48,33.053L329.48,33.053L330.77,33.289L330.78,33.525L330.8,33.761L330.82,33.997L333.42,34.233L333.55,34.469L334.36,34.705L338.96,34.941L338.97,35.177L338.98,35.177L341.67,35.413L341.69,35.649L344.24,35.885L344.25,35.885L344.27,36.12L863.46,36.356L863.46,36.356L863.57,36.356L863.77,36.592L863.77,36.828L863.83,37.064L865.04,37.3L865.09,37.3L865.15,37.536L866.73,37.772L868.15,38.008L869.52,38.244L870.79,38.48L872.8,38.716L872.81,38.952L872.83,39.188L874.69,39.423L874.71,39.659L880.33,39.895L895.12,40.131L895.12,40.367L897.82,40.603L899.25,40.839L903.08,41.075L903.12,41.311L906,41.547L912.66,41.783L912.69,42.019L918.14,42.255L918.17,42.49L920.44,42.726L920.45,42.962L986.96,43.198L987,43.434" style="fill:none;stroke:#FAA75B" />
</g>
</svg>
