<?xml version="1.0"?>
<!-- Generated by SVGo and Plotinum VG -->
<svg width="987pt" height="610pt" viewBox="0 0 987 610"
	xmlns="http://www.w3.org/2000/svg"
	xmlns:xlink="http://www.w3.org/1999/xlink">
<g transform="scale(1, -1) translate(0, -610)">
<path d="M0,0L987,0L987,610L0,610Z" style="fill:#FFFFFF" />
<text x="181.2" y="-594.48" transform="scale(1, -1)"
	style="font-family:Liberation Serif;font-variant:normal;font-weight:normal;font-style:normal;font-size:19.84px">Total: 2315, Done: 69, Remaining: 2246, Progress: 2.98, Updated: 2024-04-10</text>
<text x="51.453" y="-3.252" transform="scale(1, -1)"
	style="font-family:Liberation Serif;font-variant:normal;font-weight:normal;font-style:normal;font-size:10px">2022-08-08</text>
<text x="397.28" y="-3.252" transform="scale(1, -1)"
	style="font-family:Liberation Serif;font-variant:normal;font-weight:normal;font-style:normal;font-size:10px">2023-03-28</text>
<text x="743.29" y="-3.252" transform="scale(1, -1)"
	style="font-family:Liberation Serif;font-variant:normal;font-weight:normal;font-style:normal;font-size:10px">2023-11-14</text>
<text x="224.37" y="-3.252" transform="scale(1, -1)"
	style="font-family:Liberation Serif;font-variant:normal;font-weight:normal;font-style:normal;font-size:10px">2022-12-02</text>
<text x="570.19" y="-3.252" transform="scale(1, -1)"
	style="font-family:Liberation Serif;font-variant:normal;font-weight:normal;font-style:normal;font-size:10px">2023-07-22</text>
<text x="916.02" y="-3.252" transform="scale(1, -1)"
	style="font-family:Liberation Serif;font-variant:normal;font-weight:normal;font-style:normal;font-size:10px">2024-03-09</text>
<path d="M74.783,11.074L74.783,19.074" style="fill:none;stroke:#000000;stroke-width:0.5" />
<path d="M420.61,11.074L420.61,19.074" style="fill:none;stroke:#000000;stroke-width:0.5" />
<path d="M766.43,11.074L766.43,19.074" style="fill:none;stroke:#000000;stroke-width:0.5" />
<path d="M247.7,11.074L247.7,19.074" style="fill:none;stroke:#000000;stroke-width:0.5" />
<path d="M593.52,11.074L593.52,19.074" style="fill:none;stroke:#000000;stroke-width:0.5" />
<path d="M939.35,11.074L939.35,19.074" style="fill:none;stroke:#000000;stroke-width:0.5" />
<path d="M39.58,19.074L987,19.074" style="fill:none;stroke:#000000;stroke-width:0.5" />
<text x="18.33" y="-22.039" transform="scale(1, -1)"
	style="font-family:Liberation Serif;font-variant:normal;font-weight:normal;font-style:normal;font-size:10px">0</text>
<text x="5" y="-295.12" transform="scale(1, -1)"
	style="font-family:Liberation Serif;font-variant:normal;font-weight:normal;font-style:normal;font-size:10px">50%</text>
<text x="0" y="-568.21" transform="scale(1, -1)"
	style="font-family:Liberation Serif;font-variant:normal;font-weight:normal;font-style:normal;font-size:10px">100%</text>
<text x="5" y="-76.656" transform="scale(1, -1)"
	style="font-family:Liberation Serif;font-variant:normal;font-weight:normal;font-style:normal;font-size:10px">10%</text>
<text x="5" y="-131.27" transform="scale(1, -1)"
	style="font-family:Liberation Serif;font-variant:normal;font-weight:normal;font-style:normal;font-size:10px">20%</text>
<text x="5" y="-185.89" transform="scale(1, -1)"
	style="font-family:Liberation Serif;font-variant:normal;font-weight:normal;font-style:normal;font-size:10px">30%</text>
<text x="5" y="-240.51" transform="scale(1, -1)"
	style="font-family:Liberation Serif;font-variant:normal;font-weight:normal;font-style:normal;font-size:10px">40%</text>
<text x="5" y="-349.74" transform="scale(1, -1)"
	style="font-family:Liberation Serif;font-variant:normal;font-weight:normal;font-style:normal;font-size:10px">60%</text>
<text x="5" y="-404.36" transform="scale(1, -1)"
	style="font-family:Liberation Serif;font-variant:normal;font-weight:normal;font-style:normal;font-size:10px">70%</text>
<text x="5" y="-458.97" transform="scale(1, -1)"
	style="font-family:Liberation Serif;font-variant:normal;font-weight:normal;font-style:normal;font-size:10px">80%</text>
<text x="5" y="-513.59" transform="scale(1, -1)"
	style="font-family:Liberation Serif;font-variant:normal;font-weight:normal;font-style:normal;font-size:10px">90%</text>
<path d="M25.83,24.324L33.83,24.324" style="fill:none;stroke:#000000;stroke-width:0.5" />
<path d="M25.83,297.41L33.83,297.41" style="fill:none;stroke:#000000;stroke-width:0.5" />
<path d="M25.83,570.49L33.83,570.49" style="fill:none;stroke:#000000;stroke-width:0.5" />
<path d="M25.83,78.941L33.83,78.941" style="fill:none;stroke:#000000;stroke-width:0.5" />
<path d="M25.83,133.56L33.83,133.56" style="fill:none;stroke:#000000;stroke-width:0.5" />
<path d="M25.83,188.17L33.83,188.17" style="fill:none;stroke:#000000;stroke-width:0.5" />
<path d="M25.83,242.79L33.83,242.79" style="fill:none;stroke:#000000;stroke-width:0.5" />
<path d="M25.83,352.02L33.83,352.02" style="fill:none;stroke:#000000;stroke-width:0.5" />
<path d="M25.83,406.64L33.83,406.64" style="fill:none;stroke:#000000;stroke-width:0.5" />
<path d="M25.83,461.26L33.83,461.26" style="fill:none;stroke:#000000;stroke-width:0.5" />
<path d="M25.83,515.87L33.83,515.87" style="fill:none;stroke:#000000;stroke-width:0.5" />
<path d="M33.83,24.324L33.83,570.49" style="fill:none;stroke:#000000;stroke-width:0.5" />
<path d="M74.783,24.324L74.783,570.49" style="fill:none;stroke:#808080;stroke-width:0.25" />
<path d="M420.61,24.324L420.61,570.49" style="fill:none;stroke:#808080;stroke-width:0.25" />
<path d="M766.43,24.324L766.43,570.49" style="fill:none;stroke:#808080;stroke-width:0.25" />
<path d="M247.7,24.324L247.7,570.49" style="fill:none;stroke:#808080;stroke-width:0.25" />
<path d="M593.52,24.324L593.52,570.49" style="fill:none;stroke:#808080;stroke-width:0.25" />
<path d="M939.35,24.324L939.35,570.49" style="fill:none;stroke:#808080;stroke-width:0.25" />
<path d="M39.58,24.324L987,24.324" style="fill:none;stroke:#808080;stroke-width:0.25" />
<path d="M39.58,297.41L987,297.41" style="fill:none;stroke:#808080;stroke-width:0.25" />
<path d="M39.58,570.49L987,570.49" style="fill:none;stroke:#808080;stroke-width:0.25" />
<path d="M39.58,78.941L987,78.941" style="fill:none;stroke:#808080;stroke-width:0.25" />
<path d="M39.58,133.56L987,133.56" style="fill:none;stroke:#808080;stroke-width:0.25" />
<path d="M39.58,188.17L987,188.17" style="fill:none;stroke:#808080;stroke-width:0.25" />
<path d="M39.58,242.79L987,242.79" style="fill:none;stroke:#808080;stroke-width:0.25" />
<path d="M39.58,352.02L987,352.02" style="fill:none;stroke:#808080;stroke-width:0.25" />
<path d="M39.58,406.64L987,406.64" style="fill:none;stroke:#808080;stroke-width:0.25" />
<path d="M39.58,461.26L987,461.26" style="fill:none;stroke:#808080;stroke-width:0.25" />
<path d="M39.58,515.87L987,515.87" style="fill:none;stroke:#808080;stroke-width:0.25" />
<path d="M39.58,24.324L39.596,24.56L39.599,24.56L39.64,24.796L40.688,25.032L40.727,25.032L40.848,25.268L42.724,25.504L42.74,25.74L44.341,25.976L44.354,26.212L44.382,26.212L45.78,26.448L45.801,26.448L45.809,26.683L45.855,26.683L49.665,26.919L49.686,27.155L49.731,27.155L49.928,27.391L50.16,27.627L51.121,27.863L51.129,27.863L51.165,28.099L51.71,28.335L51.748,28.571L53.217,28.807L53.234,28.807L53.261,29.043L57.798,29.279L57.813,29.515L57.825,29.751L60.063,29.986L60.096,29.986L60.114,30.222L60.124,30.458L61.672,30.694L61.681,30.694L61.846,30.93L61.885,31.166L63.671,31.402L63.68,31.402L63.71,31.638L63.731,31.874L65.181,32.11L356.56,32.346L356.57,32.582L358.14,32.818L359.6,33.053L359.6,33.053L361.03,33.289L361.04,33.525L361.06,33.761L361.09,33.997L363.96,34.233L364.1,34.469L364.99,34.705L370.07,34.941L370.08,35.177L370.1,35.177L373.06,35.413L373.09,35.649L375.9,35.885L375.91,35.885L375.94,36.12L949.07,36.356L949.08,36.356L949.19,36.356L949.41,36.592L949.42,36.828L949.48,37.064L950.82,37.3L950.87,37.3L950.94,37.536L952.69,37.772L954.25,38.008L955.77,38.244L957.17,38.48L959.39,38.716L959.39,38.952L959.42,39.188L961.48,39.423L961.5,39.659L967.7,39.895L984.02,40.131L984.03,40.367L987,40.603" style="fill:none;stroke:#FAA75B" />
</g>
</svg>
