<?xml version="1.0"?>
<!-- Generated by SVGo and Plotinum VG -->
<svg width="987pt" height="610pt" viewBox="0 0 987 610"
	xmlns="http://www.w3.org/2000/svg"
	xmlns:xlink="http://www.w3.org/1999/xlink">
<g transform="scale(1, -1) translate(0, -610)">
<path d="M0,0L987,0L987,610L0,610Z" style="fill:#FFFFFF" />
<text x="181.2" y="-594.48" transform="scale(1, -1)"
	style="font-family:Liberation Serif;font-variant:normal;font-weight:normal;font-style:normal;font-size:19.84px">Total: 1806, Done: 29, Remaining: 1777, Progress: 1.61, Updated: 2022-07-31</text>
<text x="42.598" y="-3.252" transform="scale(1, -1)"
	style="font-family:Liberation Serif;font-variant:normal;font-weight:normal;font-style:normal;font-size:10px">2022-07-16</text>
<text x="336.38" y="-3.252" transform="scale(1, -1)"
	style="font-family:Liberation Serif;font-variant:normal;font-weight:normal;font-style:normal;font-size:10px">2022-07-21</text>
<text x="630.15" y="-3.252" transform="scale(1, -1)"
	style="font-family:Liberation Serif;font-variant:normal;font-weight:normal;font-style:normal;font-size:10px">2022-07-26</text>
<text x="923.93" y="-3.252" transform="scale(1, -1)"
	style="font-family:Liberation Serif;font-variant:normal;font-weight:normal;font-style:normal;font-size:10px">2022-07-30</text>
<text x="116.04" y="-3.252" transform="scale(1, -1)"
	style="font-family:Liberation Serif;font-variant:normal;font-weight:normal;font-style:normal;font-size:10px">2022-07-17</text>
<text x="189.49" y="-3.252" transform="scale(1, -1)"
	style="font-family:Liberation Serif;font-variant:normal;font-weight:normal;font-style:normal;font-size:10px">2022-07-19</text>
<text x="262.93" y="-3.252" transform="scale(1, -1)"
	style="font-family:Liberation Serif;font-variant:normal;font-weight:normal;font-style:normal;font-size:10px">2022-07-20</text>
<text x="409.82" y="-3.252" transform="scale(1, -1)"
	style="font-family:Liberation Serif;font-variant:normal;font-weight:normal;font-style:normal;font-size:10px">2022-07-22</text>
<text x="483.27" y="-3.252" transform="scale(1, -1)"
	style="font-family:Liberation Serif;font-variant:normal;font-weight:normal;font-style:normal;font-size:10px">2022-07-23</text>
<text x="556.71" y="-3.252" transform="scale(1, -1)"
	style="font-family:Liberation Serif;font-variant:normal;font-weight:normal;font-style:normal;font-size:10px">2022-07-24</text>
<text x="703.6" y="-3.252" transform="scale(1, -1)"
	style="font-family:Liberation Serif;font-variant:normal;font-weight:normal;font-style:normal;font-size:10px">2022-07-27</text>
<text x="777.04" y="-3.252" transform="scale(1, -1)"
	style="font-family:Liberation Serif;font-variant:normal;font-weight:normal;font-style:normal;font-size:10px">2022-07-28</text>
<text x="850.49" y="-3.252" transform="scale(1, -1)"
	style="font-family:Liberation Serif;font-variant:normal;font-weight:normal;font-style:normal;font-size:10px">2022-07-29</text>
<path d="M65.928,11.074L65.928,19.074" style="fill:none;stroke:#000000;stroke-width:0.5" />
<path d="M359.71,11.074L359.71,19.074" style="fill:none;stroke:#000000;stroke-width:0.5" />
<path d="M653.48,11.074L653.48,19.074" style="fill:none;stroke:#000000;stroke-width:0.5" />
<path d="M947.26,11.074L947.26,19.074" style="fill:none;stroke:#000000;stroke-width:0.5" />
<path d="M139.37,11.074L139.37,19.074" style="fill:none;stroke:#000000;stroke-width:0.5" />
<path d="M212.82,11.074L212.82,19.074" style="fill:none;stroke:#000000;stroke-width:0.5" />
<path d="M286.26,11.074L286.26,19.074" style="fill:none;stroke:#000000;stroke-width:0.5" />
<path d="M433.15,11.074L433.15,19.074" style="fill:none;stroke:#000000;stroke-width:0.5" />
<path d="M506.6,11.074L506.6,19.074" style="fill:none;stroke:#000000;stroke-width:0.5" />
<path d="M580.04,11.074L580.04,19.074" style="fill:none;stroke:#000000;stroke-width:0.5" />
<path d="M726.93,11.074L726.93,19.074" style="fill:none;stroke:#000000;stroke-width:0.5" />
<path d="M800.37,11.074L800.37,19.074" style="fill:none;stroke:#000000;stroke-width:0.5" />
<path d="M873.82,11.074L873.82,19.074" style="fill:none;stroke:#000000;stroke-width:0.5" />
<path d="M39.58,19.074L987,19.074" style="fill:none;stroke:#000000;stroke-width:0.5" />
<text x="18.33" y="-22.039" transform="scale(1, -1)"
	style="font-family:Liberation Serif;font-variant:normal;font-weight:normal;font-style:normal;font-size:10px">0</text>
<text x="5" y="-295.12" transform="scale(1, -1)"
	style="font-family:Liberation Serif;font-variant:normal;font-weight:normal;font-style:normal;font-size:10px">50%</text>
<text x="0" y="-568.21" transform="scale(1, -1)"
	style="font-family:Liberation Serif;font-variant:normal;font-weight:normal;font-style:normal;font-size:10px">100%</text>
<text x="5" y="-76.656" transform="scale(1, -1)"
	style="font-family:Liberation Serif;font-variant:normal;font-weight:normal;font-style:normal;font-size:10px">10%</text>
<text x="5" y="-131.27" transform="scale(1, -1)"
	style="font-family:Liberation Serif;font-variant:normal;font-weight:normal;font-style:normal;font-size:10px">20%</text>
<text x="5" y="-185.89" transform="scale(1, -1)"
	style="font-family:Liberation Serif;font-variant:normal;font-weight:normal;font-style:normal;font-size:10px">30%</text>
<text x="5" y="-240.51" transform="scale(1, -1)"
	style="font-family:Liberation Serif;font-variant:normal;font-weight:normal;font-style:normal;font-size:10px">40%</text>
<text x="5" y="-349.74" transform="scale(1, -1)"
	style="font-family:Liberation Serif;font-variant:normal;font-weight:normal;font-style:normal;font-size:10px">60%</text>
<text x="5" y="-404.36" transform="scale(1, -1)"
	style="font-family:Liberation Serif;font-variant:normal;font-weight:normal;font-style:normal;font-size:10px">70%</text>
<text x="5" y="-458.97" transform="scale(1, -1)"
	style="font-family:Liberation Serif;font-variant:normal;font-weight:normal;font-style:normal;font-size:10px">80%</text>
<text x="5" y="-513.59" transform="scale(1, -1)"
	style="font-family:Liberation Serif;font-variant:normal;font-weight:normal;font-style:normal;font-size:10px">90%</text>
<path d="M25.83,24.324L33.83,24.324" style="fill:none;stroke:#000000;stroke-width:0.5" />
<path d="M25.83,297.41L33.83,297.41" style="fill:none;stroke:#000000;stroke-width:0.5" />
<path d="M25.83,570.49L33.83,570.49" style="fill:none;stroke:#000000;stroke-width:0.5" />
<path d="M25.83,78.941L33.83,78.941" style="fill:none;stroke:#000000;stroke-width:0.5" />
<path d="M25.83,133.56L33.83,133.56" style="fill:none;stroke:#000000;stroke-width:0.5" />
<path d="M25.83,188.17L33.83,188.17" style="fill:none;stroke:#000000;stroke-width:0.5" />
<path d="M25.83,242.79L33.83,242.79" style="fill:none;stroke:#000000;stroke-width:0.5" />
<path d="M25.83,352.02L33.83,352.02" style="fill:none;stroke:#000000;stroke-width:0.5" />
<path d="M25.83,406.64L33.83,406.64" style="fill:none;stroke:#000000;stroke-width:0.5" />
<path d="M25.83,461.26L33.83,461.26" style="fill:none;stroke:#000000;stroke-width:0.5" />
<path d="M25.83,515.87L33.83,515.87" style="fill:none;stroke:#000000;stroke-width:0.5" />
<path d="M33.83,24.324L33.83,570.49" style="fill:none;stroke:#000000;stroke-width:0.5" />
<path d="M65.928,24.324L65.928,570.49" style="fill:none;stroke:#808080;stroke-width:0.25" />
<path d="M359.71,24.324L359.71,570.49" style="fill:none;stroke:#808080;stroke-width:0.25" />
<path d="M653.48,24.324L653.48,570.49" style="fill:none;stroke:#808080;stroke-width:0.25" />
<path d="M947.26,24.324L947.26,570.49" style="fill:none;stroke:#808080;stroke-width:0.25" />
<path d="M139.37,24.324L139.37,570.49" style="fill:none;stroke:#808080;stroke-width:0.25" />
<path d="M212.82,24.324L212.82,570.49" style="fill:none;stroke:#808080;stroke-width:0.25" />
<path d="M286.26,24.324L286.26,570.49" style="fill:none;stroke:#808080;stroke-width:0.25" />
<path d="M433.15,24.324L433.15,570.49" style="fill:none;stroke:#808080;stroke-width:0.25" />
<path d="M506.6,24.324L506.6,570.49" style="fill:none;stroke:#808080;stroke-width:0.25" />
<path d="M580.04,24.324L580.04,570.49" style="fill:none;stroke:#808080;stroke-width:0.25" />
<path d="M726.93,24.324L726.93,570.49" style="fill:none;stroke:#808080;stroke-width:0.25" />
<path d="M800.37,24.324L800.37,570.49" style="fill:none;stroke:#808080;stroke-width:0.25" />
<path d="M873.82,24.324L873.82,570.49" style="fill:none;stroke:#808080;stroke-width:0.25" />
<path d="M39.58,24.324L987,24.324" style="fill:none;stroke:#808080;stroke-width:0.25" />
<path d="M39.58,297.41L987,297.41" style="fill:none;stroke:#808080;stroke-width:0.25" />
<path d="M39.58,570.49L987,570.49" style="fill:none;stroke:#808080;stroke-width:0.25" />
<path d="M39.58,78.941L987,78.941" style="fill:none;stroke:#808080;stroke-width:0.25" />
<path d="M39.58,133.56L987,133.56" style="fill:none;stroke:#808080;stroke-width:0.25" />
<path d="M39.58,188.17L987,188.17" style="fill:none;stroke:#808080;stroke-width:0.25" />
<path d="M39.58,242.79L987,242.79" style="fill:none;stroke:#808080;stroke-width:0.25" />
<path d="M39.58,352.02L987,352.02" style="fill:none;stroke:#808080;stroke-width:0.25" />
<path d="M39.58,406.64L987,406.64" style="fill:none;stroke:#808080;stroke-width:0.25" />
<path d="M39.58,461.26L987,461.26" style="fill:none;stroke:#808080;stroke-width:0.25" />
<path d="M39.58,515.87L987,515.87" style="fill:none;stroke:#808080;stroke-width:0.25" />
<path d="M39.58,24.324L40.248,24.627L40.385,24.627L42.13,24.929L86.64,25.231L88.31,25.231L93.415,25.534L173.13,25.836L173.79,26.139L241.8,26.441L242.35,26.744L243.54,26.744L302.94,27.046L303.82,27.046L304.16,27.348L306.1,27.348L467.95,27.651L468.81,27.953L470.73,27.953L479.1,28.256L488.98,28.558L529.77,28.86L530.12,28.86L531.64,29.163L554.79,29.465L556.41,29.768L618.81,30.07L619.51,30.07L620.67,30.373L813.39,30.675L814.02,30.977L814.54,31.28L909.57,31.582L911.01,31.582L911.74,31.885L912.2,32.187L977.93,32.49L978.31,32.49L985.32,32.792L987,33.094" style="fill:none;stroke:#FAA75B" />
</g>
</svg>
