<?xml version="1.0"?>
<!-- Generated by SVGo and Plotinum VG -->
<svg width="987pt" height="610pt" viewBox="0 0 987 610"
	xmlns="http://www.w3.org/2000/svg"
	xmlns:xlink="http://www.w3.org/1999/xlink">
<g transform="scale(1, -1) translate(0, -610)">
<path d="M0,0L987,0L987,610L0,610Z" style="fill:#FFFFFF" />
<text x="181.2" y="-594.48" transform="scale(1, -1)"
	style="font-family:Liberation Serif;font-variant:normal;font-weight:normal;font-style:normal;font-size:19.84px">Total: 1806, Done: 26, Remaining: 1780, Progress: 1.44, Updated: 2022-07-30</text>
<text x="44.857" y="-3.252" transform="scale(1, -1)"
	style="font-family:Liberation Serif;font-variant:normal;font-weight:normal;font-style:normal;font-size:10px">2022-07-16</text>
<text x="443.56" y="-3.252" transform="scale(1, -1)"
	style="font-family:Liberation Serif;font-variant:normal;font-weight:normal;font-style:normal;font-size:10px">2022-07-22</text>
<text x="842.26" y="-3.252" transform="scale(1, -1)"
	style="font-family:Liberation Serif;font-variant:normal;font-weight:normal;font-style:normal;font-size:10px">2022-07-28</text>
<text x="124.6" y="-3.252" transform="scale(1, -1)"
	style="font-family:Liberation Serif;font-variant:normal;font-weight:normal;font-style:normal;font-size:10px">2022-07-17</text>
<text x="204.34" y="-3.252" transform="scale(1, -1)"
	style="font-family:Liberation Serif;font-variant:normal;font-weight:normal;font-style:normal;font-size:10px">2022-07-19</text>
<text x="284.08" y="-3.252" transform="scale(1, -1)"
	style="font-family:Liberation Serif;font-variant:normal;font-weight:normal;font-style:normal;font-size:10px">2022-07-20</text>
<text x="363.82" y="-3.252" transform="scale(1, -1)"
	style="font-family:Liberation Serif;font-variant:normal;font-weight:normal;font-style:normal;font-size:10px">2022-07-21</text>
<text x="523.3" y="-3.252" transform="scale(1, -1)"
	style="font-family:Liberation Serif;font-variant:normal;font-weight:normal;font-style:normal;font-size:10px">2022-07-23</text>
<text x="603.04" y="-3.252" transform="scale(1, -1)"
	style="font-family:Liberation Serif;font-variant:normal;font-weight:normal;font-style:normal;font-size:10px">2022-07-24</text>
<text x="682.78" y="-3.252" transform="scale(1, -1)"
	style="font-family:Liberation Serif;font-variant:normal;font-weight:normal;font-style:normal;font-size:10px">2022-07-26</text>
<text x="762.52" y="-3.252" transform="scale(1, -1)"
	style="font-family:Liberation Serif;font-variant:normal;font-weight:normal;font-style:normal;font-size:10px">2022-07-27</text>
<text x="922" y="-3.252" transform="scale(1, -1)"
	style="font-family:Liberation Serif;font-variant:normal;font-weight:normal;font-style:normal;font-size:10px">2022-07-29</text>
<path d="M68.187,11.074L68.187,19.074" style="fill:none;stroke:#000000;stroke-width:0.5" />
<path d="M466.89,11.074L466.89,19.074" style="fill:none;stroke:#000000;stroke-width:0.5" />
<path d="M865.59,11.074L865.59,19.074" style="fill:none;stroke:#000000;stroke-width:0.5" />
<path d="M147.93,11.074L147.93,19.074" style="fill:none;stroke:#000000;stroke-width:0.5" />
<path d="M227.67,11.074L227.67,19.074" style="fill:none;stroke:#000000;stroke-width:0.5" />
<path d="M307.41,11.074L307.41,19.074" style="fill:none;stroke:#000000;stroke-width:0.5" />
<path d="M387.15,11.074L387.15,19.074" style="fill:none;stroke:#000000;stroke-width:0.5" />
<path d="M546.63,11.074L546.63,19.074" style="fill:none;stroke:#000000;stroke-width:0.5" />
<path d="M626.37,11.074L626.37,19.074" style="fill:none;stroke:#000000;stroke-width:0.5" />
<path d="M706.11,11.074L706.11,19.074" style="fill:none;stroke:#000000;stroke-width:0.5" />
<path d="M785.85,11.074L785.85,19.074" style="fill:none;stroke:#000000;stroke-width:0.5" />
<path d="M945.33,11.074L945.33,19.074" style="fill:none;stroke:#000000;stroke-width:0.5" />
<path d="M39.58,19.074L987,19.074" style="fill:none;stroke:#000000;stroke-width:0.5" />
<text x="18.33" y="-22.039" transform="scale(1, -1)"
	style="font-family:Liberation Serif;font-variant:normal;font-weight:normal;font-style:normal;font-size:10px">0</text>
<text x="5" y="-295.12" transform="scale(1, -1)"
	style="font-family:Liberation Serif;font-variant:normal;font-weight:normal;font-style:normal;font-size:10px">50%</text>
<text x="0" y="-568.21" transform="scale(1, -1)"
	style="font-family:Liberation Serif;font-variant:normal;font-weight:normal;font-style:normal;font-size:10px">100%</text>
<text x="5" y="-76.656" transform="scale(1, -1)"
	style="font-family:Liberation Serif;font-variant:normal;font-weight:normal;font-style:normal;font-size:10px">10%</text>
<text x="5" y="-131.27" transform="scale(1, -1)"
	style="font-family:Liberation Serif;font-variant:normal;font-weight:normal;font-style:normal;font-size:10px">20%</text>
<text x="5" y="-185.89" transform="scale(1, -1)"
	style="font-family:Liberation Serif;font-variant:normal;font-weight:normal;font-style:normal;font-size:10px">30%</text>
<text x="5" y="-240.51" transform="scale(1, -1)"
	style="font-family:Liberation Serif;font-variant:normal;font-weight:normal;font-style:normal;font-size:10px">40%</text>
<text x="5" y="-349.74" transform="scale(1, -1)"
	style="font-family:Liberation Serif;font-variant:normal;font-weight:normal;font-style:normal;font-size:10px">60%</text>
<text x="5" y="-404.36" transform="scale(1, -1)"
	style="font-family:Liberation Serif;font-variant:normal;font-weight:normal;font-style:normal;font-size:10px">70%</text>
<text x="5" y="-458.97" transform="scale(1, -1)"
	style="font-family:Liberation Serif;font-variant:normal;font-weight:normal;font-style:normal;font-size:10px">80%</text>
<text x="5" y="-513.59" transform="scale(1, -1)"
	style="font-family:Liberation Serif;font-variant:normal;font-weight:normal;font-style:normal;font-size:10px">90%</text>
<path d="M25.83,24.324L33.83,24.324" style="fill:none;stroke:#000000;stroke-width:0.5" />
<path d="M25.83,297.41L33.83,297.41" style="fill:none;stroke:#000000;stroke-width:0.5" />
<path d="M25.83,570.49L33.83,570.49" style="fill:none;stroke:#000000;stroke-width:0.5" />
<path d="M25.83,78.941L33.83,78.941" style="fill:none;stroke:#000000;stroke-width:0.5" />
<path d="M25.83,133.56L33.83,133.56" style="fill:none;stroke:#000000;stroke-width:0.5" />
<path d="M25.83,188.17L33.83,188.17" style="fill:none;stroke:#000000;stroke-width:0.5" />
<path d="M25.83,242.79L33.83,242.79" style="fill:none;stroke:#000000;stroke-width:0.5" />
<path d="M25.83,352.02L33.83,352.02" style="fill:none;stroke:#000000;stroke-width:0.5" />
<path d="M25.83,406.64L33.83,406.64" style="fill:none;stroke:#000000;stroke-width:0.5" />
<path d="M25.83,461.26L33.83,461.26" style="fill:none;stroke:#000000;stroke-width:0.5" />
<path d="M25.83,515.87L33.83,515.87" style="fill:none;stroke:#000000;stroke-width:0.5" />
<path d="M33.83,24.324L33.83,570.49" style="fill:none;stroke:#000000;stroke-width:0.5" />
<path d="M68.187,24.324L68.187,570.49" style="fill:none;stroke:#808080;stroke-width:0.25" />
<path d="M466.89,24.324L466.89,570.49" style="fill:none;stroke:#808080;stroke-width:0.25" />
<path d="M865.59,24.324L865.59,570.49" style="fill:none;stroke:#808080;stroke-width:0.25" />
<path d="M147.93,24.324L147.93,570.49" style="fill:none;stroke:#808080;stroke-width:0.25" />
<path d="M227.67,24.324L227.67,570.49" style="fill:none;stroke:#808080;stroke-width:0.25" />
<path d="M307.41,24.324L307.41,570.49" style="fill:none;stroke:#808080;stroke-width:0.25" />
<path d="M387.15,24.324L387.15,570.49" style="fill:none;stroke:#808080;stroke-width:0.25" />
<path d="M546.63,24.324L546.63,570.49" style="fill:none;stroke:#808080;stroke-width:0.25" />
<path d="M626.37,24.324L626.37,570.49" style="fill:none;stroke:#808080;stroke-width:0.25" />
<path d="M706.11,24.324L706.11,570.49" style="fill:none;stroke:#808080;stroke-width:0.25" />
<path d="M785.85,24.324L785.85,570.49" style="fill:none;stroke:#808080;stroke-width:0.25" />
<path d="M945.33,24.324L945.33,570.49" style="fill:none;stroke:#808080;stroke-width:0.25" />
<path d="M39.58,24.324L987,24.324" style="fill:none;stroke:#808080;stroke-width:0.25" />
<path d="M39.58,297.41L987,297.41" style="fill:none;stroke:#808080;stroke-width:0.25" />
<path d="M39.58,570.49L987,570.49" style="fill:none;stroke:#808080;stroke-width:0.25" />
<path d="M39.58,78.941L987,78.941" style="fill:none;stroke:#808080;stroke-width:0.25" />
<path d="M39.58,133.56L987,133.56" style="fill:none;stroke:#808080;stroke-width:0.25" />
<path d="M39.58,188.17L987,188.17" style="fill:none;stroke:#808080;stroke-width:0.25" />
<path d="M39.58,242.79L987,242.79" style="fill:none;stroke:#808080;stroke-width:0.25" />
<path d="M39.58,352.02L987,352.02" style="fill:none;stroke:#808080;stroke-width:0.25" />
<path d="M39.58,406.64L987,406.64" style="fill:none;stroke:#808080;stroke-width:0.25" />
<path d="M39.58,461.26L987,461.26" style="fill:none;stroke:#808080;stroke-width:0.25" />
<path d="M39.58,515.87L987,515.87" style="fill:none;stroke:#808080;stroke-width:0.25" />
<path d="M39.58,24.324L40.305,24.627L40.454,24.627L42.349,24.929L90.674,25.231L92.487,25.231L98.03,25.534L184.58,25.836L185.3,26.139L259.13,26.441L259.74,26.744L261.02,26.744L325.52,27.046L326.47,27.046L326.84,27.348L328.95,27.348L504.67,27.651L505.61,27.953L507.69,27.953L516.77,28.256L527.5,28.558L571.79,28.86L572.17,28.86L573.82,29.163L598.96,29.465L600.71,29.768L668.46,30.07L669.22,30.07L670.48,30.373L879.73,30.675L880.41,30.977L880.97,31.28L984.15,31.582L985.71,31.582L986.51,31.885L987,32.187" style="fill:none;stroke:#FAA75B" />
</g>
</svg>
