<?xml version="1.0"?>
<!-- Generated by SVGo and Plotinum VG -->
<svg width="987pt" height="610pt" viewBox="0 0 987 610"
	xmlns="http://www.w3.org/2000/svg"
	xmlns:xlink="http://www.w3.org/1999/xlink">
<g transform="scale(1, -1) translate(0, -610)">
<path d="M0,0L987,0L987,610L0,610Z" style="fill:#FFFFFF" />
<text x="181.2" y="-594.48" transform="scale(1, -1)"
	style="font-family:Liberation Serif;font-variant:normal;font-weight:normal;font-style:normal;font-size:19.84px">Total: 1806, Done: 27, Remaining: 1779, Progress: 1.50, Updated: 2022-07-31</text>
<text x="42.853" y="-3.252" transform="scale(1, -1)"
	style="font-family:Liberation Serif;font-variant:normal;font-weight:normal;font-style:normal;font-size:10px">2022-07-16</text>
<text x="339.47" y="-3.252" transform="scale(1, -1)"
	style="font-family:Liberation Serif;font-variant:normal;font-weight:normal;font-style:normal;font-size:10px">2022-07-21</text>
<text x="636.09" y="-3.252" transform="scale(1, -1)"
	style="font-family:Liberation Serif;font-variant:normal;font-weight:normal;font-style:normal;font-size:10px">2022-07-26</text>
<text x="932.71" y="-3.252" transform="scale(1, -1)"
	style="font-family:Liberation Serif;font-variant:normal;font-weight:normal;font-style:normal;font-size:10px">2022-07-30</text>
<text x="117.01" y="-3.252" transform="scale(1, -1)"
	style="font-family:Liberation Serif;font-variant:normal;font-weight:normal;font-style:normal;font-size:10px">2022-07-17</text>
<text x="191.16" y="-3.252" transform="scale(1, -1)"
	style="font-family:Liberation Serif;font-variant:normal;font-weight:normal;font-style:normal;font-size:10px">2022-07-19</text>
<text x="265.32" y="-3.252" transform="scale(1, -1)"
	style="font-family:Liberation Serif;font-variant:normal;font-weight:normal;font-style:normal;font-size:10px">2022-07-20</text>
<text x="413.62" y="-3.252" transform="scale(1, -1)"
	style="font-family:Liberation Serif;font-variant:normal;font-weight:normal;font-style:normal;font-size:10px">2022-07-22</text>
<text x="487.78" y="-3.252" transform="scale(1, -1)"
	style="font-family:Liberation Serif;font-variant:normal;font-weight:normal;font-style:normal;font-size:10px">2022-07-23</text>
<text x="561.93" y="-3.252" transform="scale(1, -1)"
	style="font-family:Liberation Serif;font-variant:normal;font-weight:normal;font-style:normal;font-size:10px">2022-07-24</text>
<text x="710.24" y="-3.252" transform="scale(1, -1)"
	style="font-family:Liberation Serif;font-variant:normal;font-weight:normal;font-style:normal;font-size:10px">2022-07-27</text>
<text x="784.4" y="-3.252" transform="scale(1, -1)"
	style="font-family:Liberation Serif;font-variant:normal;font-weight:normal;font-style:normal;font-size:10px">2022-07-28</text>
<text x="858.55" y="-3.252" transform="scale(1, -1)"
	style="font-family:Liberation Serif;font-variant:normal;font-weight:normal;font-style:normal;font-size:10px">2022-07-29</text>
<path d="M66.183,11.074L66.183,19.074" style="fill:none;stroke:#000000;stroke-width:0.5" />
<path d="M362.8,11.074L362.8,19.074" style="fill:none;stroke:#000000;stroke-width:0.5" />
<path d="M659.42,11.074L659.42,19.074" style="fill:none;stroke:#000000;stroke-width:0.5" />
<path d="M956.04,11.074L956.04,19.074" style="fill:none;stroke:#000000;stroke-width:0.5" />
<path d="M140.34,11.074L140.34,19.074" style="fill:none;stroke:#000000;stroke-width:0.5" />
<path d="M214.49,11.074L214.49,19.074" style="fill:none;stroke:#000000;stroke-width:0.5" />
<path d="M288.65,11.074L288.65,19.074" style="fill:none;stroke:#000000;stroke-width:0.5" />
<path d="M436.95,11.074L436.95,19.074" style="fill:none;stroke:#000000;stroke-width:0.5" />
<path d="M511.11,11.074L511.11,19.074" style="fill:none;stroke:#000000;stroke-width:0.5" />
<path d="M585.26,11.074L585.26,19.074" style="fill:none;stroke:#000000;stroke-width:0.5" />
<path d="M733.57,11.074L733.57,19.074" style="fill:none;stroke:#000000;stroke-width:0.5" />
<path d="M807.73,11.074L807.73,19.074" style="fill:none;stroke:#000000;stroke-width:0.5" />
<path d="M881.88,11.074L881.88,19.074" style="fill:none;stroke:#000000;stroke-width:0.5" />
<path d="M39.58,19.074L987,19.074" style="fill:none;stroke:#000000;stroke-width:0.5" />
<text x="18.33" y="-22.039" transform="scale(1, -1)"
	style="font-family:Liberation Serif;font-variant:normal;font-weight:normal;font-style:normal;font-size:10px">0</text>
<text x="5" y="-295.12" transform="scale(1, -1)"
	style="font-family:Liberation Serif;font-variant:normal;font-weight:normal;font-style:normal;font-size:10px">50%</text>
<text x="0" y="-568.21" transform="scale(1, -1)"
	style="font-family:Liberation Serif;font-variant:normal;font-weight:normal;font-style:normal;font-size:10px">100%</text>
<text x="5" y="-76.656" transform="scale(1, -1)"
	style="font-family:Liberation Serif;font-variant:normal;font-weight:normal;font-style:normal;font-size:10px">10%</text>
<text x="5" y="-131.27" transform="scale(1, -1)"
	style="font-family:Liberation Serif;font-variant:normal;font-weight:normal;font-style:normal;font-size:10px">20%</text>
<text x="5" y="-185.89" transform="scale(1, -1)"
	style="font-family:Liberation Serif;font-variant:normal;font-weight:normal;font-style:normal;font-size:10px">30%</text>
<text x="5" y="-240.51" transform="scale(1, -1)"
	style="font-family:Liberation Serif;font-variant:normal;font-weight:normal;font-style:normal;font-size:10px">40%</text>
<text x="5" y="-349.74" transform="scale(1, -1)"
	style="font-family:Liberation Serif;font-variant:normal;font-weight:normal;font-style:normal;font-size:10px">60%</text>
<text x="5" y="-404.36" transform="scale(1, -1)"
	style="font-family:Liberation Serif;font-variant:normal;font-weight:normal;font-style:normal;font-size:10px">70%</text>
<text x="5" y="-458.97" transform="scale(1, -1)"
	style="font-family:Liberation Serif;font-variant:normal;font-weight:normal;font-style:normal;font-size:10px">80%</text>
<text x="5" y="-513.59" transform="scale(1, -1)"
	style="font-family:Liberation Serif;font-variant:normal;font-weight:normal;font-style:normal;font-size:10px">90%</text>
<path d="M25.83,24.324L33.83,24.324" style="fill:none;stroke:#000000;stroke-width:0.5" />
<path d="M25.83,297.41L33.83,297.41" style="fill:none;stroke:#000000;stroke-width:0.5" />
<path d="M25.83,570.49L33.83,570.49" style="fill:none;stroke:#000000;stroke-width:0.5" />
<path d="M25.83,78.941L33.83,78.941" style="fill:none;stroke:#000000;stroke-width:0.5" />
<path d="M25.83,133.56L33.83,133.56" style="fill:none;stroke:#000000;stroke-width:0.5" />
<path d="M25.83,188.17L33.83,188.17" style="fill:none;stroke:#000000;stroke-width:0.5" />
<path d="M25.83,242.79L33.83,242.79" style="fill:none;stroke:#000000;stroke-width:0.5" />
<path d="M25.83,352.02L33.83,352.02" style="fill:none;stroke:#000000;stroke-width:0.5" />
<path d="M25.83,406.64L33.83,406.64" style="fill:none;stroke:#000000;stroke-width:0.5" />
<path d="M25.83,461.26L33.83,461.26" style="fill:none;stroke:#000000;stroke-width:0.5" />
<path d="M25.83,515.87L33.83,515.87" style="fill:none;stroke:#000000;stroke-width:0.5" />
<path d="M33.83,24.324L33.83,570.49" style="fill:none;stroke:#000000;stroke-width:0.5" />
<path d="M66.183,24.324L66.183,570.49" style="fill:none;stroke:#808080;stroke-width:0.25" />
<path d="M362.8,24.324L362.8,570.49" style="fill:none;stroke:#808080;stroke-width:0.25" />
<path d="M659.42,24.324L659.42,570.49" style="fill:none;stroke:#808080;stroke-width:0.25" />
<path d="M956.04,24.324L956.04,570.49" style="fill:none;stroke:#808080;stroke-width:0.25" />
<path d="M140.34,24.324L140.34,570.49" style="fill:none;stroke:#808080;stroke-width:0.25" />
<path d="M214.49,24.324L214.49,570.49" style="fill:none;stroke:#808080;stroke-width:0.25" />
<path d="M288.65,24.324L288.65,570.49" style="fill:none;stroke:#808080;stroke-width:0.25" />
<path d="M436.95,24.324L436.95,570.49" style="fill:none;stroke:#808080;stroke-width:0.25" />
<path d="M511.11,24.324L511.11,570.49" style="fill:none;stroke:#808080;stroke-width:0.25" />
<path d="M585.26,24.324L585.26,570.49" style="fill:none;stroke:#808080;stroke-width:0.25" />
<path d="M733.57,24.324L733.57,570.49" style="fill:none;stroke:#808080;stroke-width:0.25" />
<path d="M807.73,24.324L807.73,570.49" style="fill:none;stroke:#808080;stroke-width:0.25" />
<path d="M881.88,24.324L881.88,570.49" style="fill:none;stroke:#808080;stroke-width:0.25" />
<path d="M39.58,24.324L987,24.324" style="fill:none;stroke:#808080;stroke-width:0.25" />
<path d="M39.58,297.41L987,297.41" style="fill:none;stroke:#808080;stroke-width:0.25" />
<path d="M39.58,570.49L987,570.49" style="fill:none;stroke:#808080;stroke-width:0.25" />
<path d="M39.58,78.941L987,78.941" style="fill:none;stroke:#808080;stroke-width:0.25" />
<path d="M39.58,133.56L987,133.56" style="fill:none;stroke:#808080;stroke-width:0.25" />
<path d="M39.58,188.17L987,188.17" style="fill:none;stroke:#808080;stroke-width:0.25" />
<path d="M39.58,242.79L987,242.79" style="fill:none;stroke:#808080;stroke-width:0.25" />
<path d="M39.58,352.02L987,352.02" style="fill:none;stroke:#808080;stroke-width:0.25" />
<path d="M39.58,406.64L987,406.64" style="fill:none;stroke:#808080;stroke-width:0.25" />
<path d="M39.58,461.26L987,461.26" style="fill:none;stroke:#808080;stroke-width:0.25" />
<path d="M39.58,515.87L987,515.87" style="fill:none;stroke:#808080;stroke-width:0.25" />
<path d="M39.58,24.324L40.254,24.627L40.393,24.627L42.155,24.929L87.094,25.231L88.781,25.231L93.935,25.534L174.42,25.836L175.09,26.139L243.75,26.441L244.31,26.744L245.51,26.744L305.49,27.046L306.37,27.046L306.72,27.348L308.68,27.348L472.09,27.651L472.96,27.953L474.9,27.953L483.34,28.256L493.32,28.558L534.51,28.86L534.86,28.86L536.39,29.163L559.77,29.465L561.4,29.768L624.4,30.07L625.11,30.07L626.28,30.373L820.87,30.675L821.51,30.977L822.03,31.28L917.98,31.582L919.43,31.582L920.17,31.885L920.63,32.187L987,32.49" style="fill:none;stroke:#FAA75B" />
</g>
</svg>
