<?xml version="1.0"?>
<!-- Generated by SVGo and Plotinum VG -->
<svg width="987pt" height="610pt" viewBox="0 0 987 610"
	xmlns="http://www.w3.org/2000/svg"
	xmlns:xlink="http://www.w3.org/1999/xlink">
<g transform="scale(1, -1) translate(0, -610)">
<path d="M0,0L987,0L987,610L0,610Z" style="fill:#FFFFFF" />
<text x="186.16" y="-594.48" transform="scale(1, -1)"
	style="font-family:Liberation Serif;font-variant:normal;font-weight:normal;font-style:normal;font-size:19.84px">Total: 1798, Done: 8, Remaining: 1790, Progress: 0.44, Updated: 2022-07-19</text>
<text x="136.42" y="-3.252" transform="scale(1, -1)"
	style="font-family:Liberation Serif;font-variant:normal;font-weight:normal;font-style:normal;font-size:10px">2022-07-16</text>
<text x="471.39" y="-3.252" transform="scale(1, -1)"
	style="font-family:Liberation Serif;font-variant:normal;font-weight:normal;font-style:normal;font-size:10px">2022-07-17</text>
<text x="806.35" y="-3.252" transform="scale(1, -1)"
	style="font-family:Liberation Serif;font-variant:normal;font-weight:normal;font-style:normal;font-size:10px">2022-07-19</text>
<text x="69.426" y="-3.252" transform="scale(1, -1)"
	style="font-family:Liberation Serif;font-variant:normal;font-weight:normal;font-style:normal;font-size:10px">2022-07-16</text>
<text x="203.41" y="-3.252" transform="scale(1, -1)"
	style="font-family:Liberation Serif;font-variant:normal;font-weight:normal;font-style:normal;font-size:10px">2022-07-17</text>
<text x="270.41" y="-3.252" transform="scale(1, -1)"
	style="font-family:Liberation Serif;font-variant:normal;font-weight:normal;font-style:normal;font-size:10px">2022-07-17</text>
<text x="337.4" y="-3.252" transform="scale(1, -1)"
	style="font-family:Liberation Serif;font-variant:normal;font-weight:normal;font-style:normal;font-size:10px">2022-07-17</text>
<text x="404.39" y="-3.252" transform="scale(1, -1)"
	style="font-family:Liberation Serif;font-variant:normal;font-weight:normal;font-style:normal;font-size:10px">2022-07-17</text>
<text x="538.38" y="-3.252" transform="scale(1, -1)"
	style="font-family:Liberation Serif;font-variant:normal;font-weight:normal;font-style:normal;font-size:10px">2022-07-18</text>
<text x="605.37" y="-3.252" transform="scale(1, -1)"
	style="font-family:Liberation Serif;font-variant:normal;font-weight:normal;font-style:normal;font-size:10px">2022-07-18</text>
<text x="672.37" y="-3.252" transform="scale(1, -1)"
	style="font-family:Liberation Serif;font-variant:normal;font-weight:normal;font-style:normal;font-size:10px">2022-07-18</text>
<text x="739.36" y="-3.252" transform="scale(1, -1)"
	style="font-family:Liberation Serif;font-variant:normal;font-weight:normal;font-style:normal;font-size:10px">2022-07-18</text>
<text x="873.35" y="-3.252" transform="scale(1, -1)"
	style="font-family:Liberation Serif;font-variant:normal;font-weight:normal;font-style:normal;font-size:10px">2022-07-19</text>
<text x="940.34" y="-3.252" transform="scale(1, -1)"
	style="font-family:Liberation Serif;font-variant:normal;font-weight:normal;font-style:normal;font-size:10px">2022-07-19</text>
<path d="M159.75,11.074L159.75,19.074" style="fill:none;stroke:#000000;stroke-width:0.5" />
<path d="M494.72,11.074L494.72,19.074" style="fill:none;stroke:#000000;stroke-width:0.5" />
<path d="M829.68,11.074L829.68,19.074" style="fill:none;stroke:#000000;stroke-width:0.5" />
<path d="M92.756,11.074L92.756,19.074" style="fill:none;stroke:#000000;stroke-width:0.5" />
<path d="M226.74,11.074L226.74,19.074" style="fill:none;stroke:#000000;stroke-width:0.5" />
<path d="M293.74,11.074L293.74,19.074" style="fill:none;stroke:#000000;stroke-width:0.5" />
<path d="M360.73,11.074L360.73,19.074" style="fill:none;stroke:#000000;stroke-width:0.5" />
<path d="M427.72,11.074L427.72,19.074" style="fill:none;stroke:#000000;stroke-width:0.5" />
<path d="M561.71,11.074L561.71,19.074" style="fill:none;stroke:#000000;stroke-width:0.5" />
<path d="M628.7,11.074L628.7,19.074" style="fill:none;stroke:#000000;stroke-width:0.5" />
<path d="M695.7,11.074L695.7,19.074" style="fill:none;stroke:#000000;stroke-width:0.5" />
<path d="M762.69,11.074L762.69,19.074" style="fill:none;stroke:#000000;stroke-width:0.5" />
<path d="M896.68,11.074L896.68,19.074" style="fill:none;stroke:#000000;stroke-width:0.5" />
<path d="M963.67,11.074L963.67,19.074" style="fill:none;stroke:#000000;stroke-width:0.5" />
<path d="M39.58,19.074L964.39,19.074" style="fill:none;stroke:#000000;stroke-width:0.5" />
<text x="18.33" y="-22.039" transform="scale(1, -1)"
	style="font-family:Liberation Serif;font-variant:normal;font-weight:normal;font-style:normal;font-size:10px">0</text>
<text x="5" y="-295.12" transform="scale(1, -1)"
	style="font-family:Liberation Serif;font-variant:normal;font-weight:normal;font-style:normal;font-size:10px">50%</text>
<text x="0" y="-568.21" transform="scale(1, -1)"
	style="font-family:Liberation Serif;font-variant:normal;font-weight:normal;font-style:normal;font-size:10px">100%</text>
<text x="5" y="-76.656" transform="scale(1, -1)"
	style="font-family:Liberation Serif;font-variant:normal;font-weight:normal;font-style:normal;font-size:10px">10%</text>
<text x="5" y="-131.27" transform="scale(1, -1)"
	style="font-family:Liberation Serif;font-variant:normal;font-weight:normal;font-style:normal;font-size:10px">20%</text>
<text x="5" y="-185.89" transform="scale(1, -1)"
	style="font-family:Liberation Serif;font-variant:normal;font-weight:normal;font-style:normal;font-size:10px">30%</text>
<text x="5" y="-240.51" transform="scale(1, -1)"
	style="font-family:Liberation Serif;font-variant:normal;font-weight:normal;font-style:normal;font-size:10px">40%</text>
<text x="5" y="-349.74" transform="scale(1, -1)"
	style="font-family:Liberation Serif;font-variant:normal;font-weight:normal;font-style:normal;font-size:10px">60%</text>
<text x="5" y="-404.36" transform="scale(1, -1)"
	style="font-family:Liberation Serif;font-variant:normal;font-weight:normal;font-style:normal;font-size:10px">70%</text>
<text x="5" y="-458.97" transform="scale(1, -1)"
	style="font-family:Liberation Serif;font-variant:normal;font-weight:normal;font-style:normal;font-size:10px">80%</text>
<text x="5" y="-513.59" transform="scale(1, -1)"
	style="font-family:Liberation Serif;font-variant:normal;font-weight:normal;font-style:normal;font-size:10px">90%</text>
<path d="M25.83,24.324L33.83,24.324" style="fill:none;stroke:#000000;stroke-width:0.5" />
<path d="M25.83,297.41L33.83,297.41" style="fill:none;stroke:#000000;stroke-width:0.5" />
<path d="M25.83,570.49L33.83,570.49" style="fill:none;stroke:#000000;stroke-width:0.5" />
<path d="M25.83,78.941L33.83,78.941" style="fill:none;stroke:#000000;stroke-width:0.5" />
<path d="M25.83,133.56L33.83,133.56" style="fill:none;stroke:#000000;stroke-width:0.5" />
<path d="M25.83,188.17L33.83,188.17" style="fill:none;stroke:#000000;stroke-width:0.5" />
<path d="M25.83,242.79L33.83,242.79" style="fill:none;stroke:#000000;stroke-width:0.5" />
<path d="M25.83,352.02L33.83,352.02" style="fill:none;stroke:#000000;stroke-width:0.5" />
<path d="M25.83,406.64L33.83,406.64" style="fill:none;stroke:#000000;stroke-width:0.5" />
<path d="M25.83,461.26L33.83,461.26" style="fill:none;stroke:#000000;stroke-width:0.5" />
<path d="M25.83,515.87L33.83,515.87" style="fill:none;stroke:#000000;stroke-width:0.5" />
<path d="M33.83,24.324L33.83,570.49" style="fill:none;stroke:#000000;stroke-width:0.5" />
<path d="M159.75,24.324L159.75,570.49" style="fill:none;stroke:#808080;stroke-width:0.25" />
<path d="M494.72,24.324L494.72,570.49" style="fill:none;stroke:#808080;stroke-width:0.25" />
<path d="M829.68,24.324L829.68,570.49" style="fill:none;stroke:#808080;stroke-width:0.25" />
<path d="M92.756,24.324L92.756,570.49" style="fill:none;stroke:#808080;stroke-width:0.25" />
<path d="M226.74,24.324L226.74,570.49" style="fill:none;stroke:#808080;stroke-width:0.25" />
<path d="M293.74,24.324L293.74,570.49" style="fill:none;stroke:#808080;stroke-width:0.25" />
<path d="M360.73,24.324L360.73,570.49" style="fill:none;stroke:#808080;stroke-width:0.25" />
<path d="M427.72,24.324L427.72,570.49" style="fill:none;stroke:#808080;stroke-width:0.25" />
<path d="M561.71,24.324L561.71,570.49" style="fill:none;stroke:#808080;stroke-width:0.25" />
<path d="M628.7,24.324L628.7,570.49" style="fill:none;stroke:#808080;stroke-width:0.25" />
<path d="M695.7,24.324L695.7,570.49" style="fill:none;stroke:#808080;stroke-width:0.25" />
<path d="M762.69,24.324L762.69,570.49" style="fill:none;stroke:#808080;stroke-width:0.25" />
<path d="M896.68,24.324L896.68,570.49" style="fill:none;stroke:#808080;stroke-width:0.25" />
<path d="M963.67,24.324L963.67,570.49" style="fill:none;stroke:#808080;stroke-width:0.25" />
<path d="M39.58,24.324L964.39,24.324" style="fill:none;stroke:#808080;stroke-width:0.25" />
<path d="M39.58,297.41L964.39,297.41" style="fill:none;stroke:#808080;stroke-width:0.25" />
<path d="M39.58,570.49L964.39,570.49" style="fill:none;stroke:#808080;stroke-width:0.25" />
<path d="M39.58,78.941L964.39,78.941" style="fill:none;stroke:#808080;stroke-width:0.25" />
<path d="M39.58,133.56L964.39,133.56" style="fill:none;stroke:#808080;stroke-width:0.25" />
<path d="M39.58,188.17L964.39,188.17" style="fill:none;stroke:#808080;stroke-width:0.25" />
<path d="M39.58,242.79L964.39,242.79" style="fill:none;stroke:#808080;stroke-width:0.25" />
<path d="M39.58,352.02L964.39,352.02" style="fill:none;stroke:#808080;stroke-width:0.25" />
<path d="M39.58,406.64L964.39,406.64" style="fill:none;stroke:#808080;stroke-width:0.25" />
<path d="M39.58,461.26L964.39,461.26" style="fill:none;stroke:#808080;stroke-width:0.25" />
<path d="M39.58,515.87L964.39,515.87" style="fill:none;stroke:#808080;stroke-width:0.25" />
<path d="M39.58,24.324L42.625,24.628L43.251,24.628L51.21,24.932L254.21,25.236L261.83,25.236L285.11,25.539L648.68,25.843L651.7,26.147L961.86,26.451L964.39,26.754" style="fill:none;stroke:#FAA75B" />
</g>
</svg>
