<?xml version="1.0"?>
<!-- Generated by SVGo and Plotinum VG -->
<svg width="987pt" height="610pt" viewBox="0 0 987 610"
	xmlns="http://www.w3.org/2000/svg"
	xmlns:xlink="http://www.w3.org/1999/xlink">
<g transform="scale(1, -1) translate(0, -610)">
<path d="M0,0L987,0L987,610L0,610Z" style="fill:#FFFFFF" />
<text x="181.2" y="-594.48" transform="scale(1, -1)"
	style="font-family:Liberation Serif;font-variant:normal;font-weight:normal;font-style:normal;font-size:19.84px">Total: 2315, Done: 66, Remaining: 2249, Progress: 2.85, Updated: 2024-03-28</text>
<text x="52.185" y="-3.252" transform="scale(1, -1)"
	style="font-family:Liberation Serif;font-variant:normal;font-weight:normal;font-style:normal;font-size:10px">2022-08-08</text>
<text x="405.2" y="-3.252" transform="scale(1, -1)"
	style="font-family:Liberation Serif;font-variant:normal;font-weight:normal;font-style:normal;font-size:10px">2023-03-28</text>
<text x="758.41" y="-3.252" transform="scale(1, -1)"
	style="font-family:Liberation Serif;font-variant:normal;font-weight:normal;font-style:normal;font-size:10px">2023-11-14</text>
<text x="228.69" y="-3.252" transform="scale(1, -1)"
	style="font-family:Liberation Serif;font-variant:normal;font-weight:normal;font-style:normal;font-size:10px">2022-12-02</text>
<text x="581.71" y="-3.252" transform="scale(1, -1)"
	style="font-family:Liberation Serif;font-variant:normal;font-weight:normal;font-style:normal;font-size:10px">2023-07-22</text>
<text x="934.73" y="-3.252" transform="scale(1, -1)"
	style="font-family:Liberation Serif;font-variant:normal;font-weight:normal;font-style:normal;font-size:10px">2024-03-09</text>
<path d="M75.515,11.074L75.515,19.074" style="fill:none;stroke:#000000;stroke-width:0.5" />
<path d="M428.53,11.074L428.53,19.074" style="fill:none;stroke:#000000;stroke-width:0.5" />
<path d="M781.55,11.074L781.55,19.074" style="fill:none;stroke:#000000;stroke-width:0.5" />
<path d="M252.02,11.074L252.02,19.074" style="fill:none;stroke:#000000;stroke-width:0.5" />
<path d="M605.04,11.074L605.04,19.074" style="fill:none;stroke:#000000;stroke-width:0.5" />
<path d="M958.06,11.074L958.06,19.074" style="fill:none;stroke:#000000;stroke-width:0.5" />
<path d="M39.58,19.074L987,19.074" style="fill:none;stroke:#000000;stroke-width:0.5" />
<text x="18.33" y="-22.039" transform="scale(1, -1)"
	style="font-family:Liberation Serif;font-variant:normal;font-weight:normal;font-style:normal;font-size:10px">0</text>
<text x="5" y="-295.12" transform="scale(1, -1)"
	style="font-family:Liberation Serif;font-variant:normal;font-weight:normal;font-style:normal;font-size:10px">50%</text>
<text x="0" y="-568.21" transform="scale(1, -1)"
	style="font-family:Liberation Serif;font-variant:normal;font-weight:normal;font-style:normal;font-size:10px">100%</text>
<text x="5" y="-76.656" transform="scale(1, -1)"
	style="font-family:Liberation Serif;font-variant:normal;font-weight:normal;font-style:normal;font-size:10px">10%</text>
<text x="5" y="-131.27" transform="scale(1, -1)"
	style="font-family:Liberation Serif;font-variant:normal;font-weight:normal;font-style:normal;font-size:10px">20%</text>
<text x="5" y="-185.89" transform="scale(1, -1)"
	style="font-family:Liberation Serif;font-variant:normal;font-weight:normal;font-style:normal;font-size:10px">30%</text>
<text x="5" y="-240.51" transform="scale(1, -1)"
	style="font-family:Liberation Serif;font-variant:normal;font-weight:normal;font-style:normal;font-size:10px">40%</text>
<text x="5" y="-349.74" transform="scale(1, -1)"
	style="font-family:Liberation Serif;font-variant:normal;font-weight:normal;font-style:normal;font-size:10px">60%</text>
<text x="5" y="-404.36" transform="scale(1, -1)"
	style="font-family:Liberation Serif;font-variant:normal;font-weight:normal;font-style:normal;font-size:10px">70%</text>
<text x="5" y="-458.97" transform="scale(1, -1)"
	style="font-family:Liberation Serif;font-variant:normal;font-weight:normal;font-style:normal;font-size:10px">80%</text>
<text x="5" y="-513.59" transform="scale(1, -1)"
	style="font-family:Liberation Serif;font-variant:normal;font-weight:normal;font-style:normal;font-size:10px">90%</text>
<path d="M25.83,24.324L33.83,24.324" style="fill:none;stroke:#000000;stroke-width:0.5" />
<path d="M25.83,297.41L33.83,297.41" style="fill:none;stroke:#000000;stroke-width:0.5" />
<path d="M25.83,570.49L33.83,570.49" style="fill:none;stroke:#000000;stroke-width:0.5" />
<path d="M25.83,78.941L33.83,78.941" style="fill:none;stroke:#000000;stroke-width:0.5" />
<path d="M25.83,133.56L33.83,133.56" style="fill:none;stroke:#000000;stroke-width:0.5" />
<path d="M25.83,188.17L33.83,188.17" style="fill:none;stroke:#000000;stroke-width:0.5" />
<path d="M25.83,242.79L33.83,242.79" style="fill:none;stroke:#000000;stroke-width:0.5" />
<path d="M25.83,352.02L33.83,352.02" style="fill:none;stroke:#000000;stroke-width:0.5" />
<path d="M25.83,406.64L33.83,406.64" style="fill:none;stroke:#000000;stroke-width:0.5" />
<path d="M25.83,461.26L33.83,461.26" style="fill:none;stroke:#000000;stroke-width:0.5" />
<path d="M25.83,515.87L33.83,515.87" style="fill:none;stroke:#000000;stroke-width:0.5" />
<path d="M33.83,24.324L33.83,570.49" style="fill:none;stroke:#000000;stroke-width:0.5" />
<path d="M75.515,24.324L75.515,570.49" style="fill:none;stroke:#808080;stroke-width:0.25" />
<path d="M428.53,24.324L428.53,570.49" style="fill:none;stroke:#808080;stroke-width:0.25" />
<path d="M781.55,24.324L781.55,570.49" style="fill:none;stroke:#808080;stroke-width:0.25" />
<path d="M252.02,24.324L252.02,570.49" style="fill:none;stroke:#808080;stroke-width:0.25" />
<path d="M605.04,24.324L605.04,570.49" style="fill:none;stroke:#808080;stroke-width:0.25" />
<path d="M958.06,24.324L958.06,570.49" style="fill:none;stroke:#808080;stroke-width:0.25" />
<path d="M39.58,24.324L987,24.324" style="fill:none;stroke:#808080;stroke-width:0.25" />
<path d="M39.58,297.41L987,297.41" style="fill:none;stroke:#808080;stroke-width:0.25" />
<path d="M39.58,570.49L987,570.49" style="fill:none;stroke:#808080;stroke-width:0.25" />
<path d="M39.58,78.941L987,78.941" style="fill:none;stroke:#808080;stroke-width:0.25" />
<path d="M39.58,133.56L987,133.56" style="fill:none;stroke:#808080;stroke-width:0.25" />
<path d="M39.58,188.17L987,188.17" style="fill:none;stroke:#808080;stroke-width:0.25" />
<path d="M39.58,242.79L987,242.79" style="fill:none;stroke:#808080;stroke-width:0.25" />
<path d="M39.58,352.02L987,352.02" style="fill:none;stroke:#808080;stroke-width:0.25" />
<path d="M39.58,406.64L987,406.64" style="fill:none;stroke:#808080;stroke-width:0.25" />
<path d="M39.58,461.26L987,461.26" style="fill:none;stroke:#808080;stroke-width:0.25" />
<path d="M39.58,515.87L987,515.87" style="fill:none;stroke:#808080;stroke-width:0.25" />
<path d="M39.58,24.324L39.596,24.56L39.599,24.56L39.641,24.796L40.711,25.032L40.751,25.032L40.874,25.268L42.79,25.504L42.806,25.74L44.44,25.976L44.453,26.212L44.482,26.212L45.909,26.448L45.931,26.448L45.939,26.683L45.985,26.683L49.875,26.919L49.896,27.155L49.942,27.155L50.143,27.391L50.38,27.627L51.361,27.863L51.369,27.863L51.406,28.099L51.962,28.335L52.001,28.571L53.501,28.807L53.517,28.807L53.545,29.043L58.177,29.279L58.192,29.515L58.205,29.751L60.489,29.986L60.523,29.986L60.541,30.222L60.552,30.458L62.131,30.694L62.141,30.694L62.309,30.93L62.349,31.166L64.172,31.402L64.181,31.402L64.212,31.638L64.234,31.874L65.713,32.11L363.15,32.346L363.16,32.582L364.76,32.818L366.26,33.053L366.26,33.053L367.71,33.289L367.73,33.525L367.74,33.761L367.77,33.997L370.71,34.233L370.85,34.469L371.76,34.705L376.94,34.941L376.96,35.177L376.97,35.177L379.99,35.413L380.03,35.649L382.89,35.885L382.9,35.885L382.93,36.12L967.99,36.356L967.99,36.356L968.11,36.356L968.33,36.592L968.34,36.828L968.41,37.064L969.77,37.3L969.82,37.3L969.89,37.536L971.68,37.772L973.27,38.008L974.82,38.244L976.25,38.48L978.51,38.716L978.52,38.952L978.55,39.188L980.65,39.423L980.67,39.659L987,39.895" style="fill:none;stroke:#FAA75B" />
</g>
</svg>
