<?xml version="1.0"?>
<!-- Generated by SVGo and Plotinum VG -->
<svg width="987pt" height="610pt" viewBox="0 0 987 610"
	xmlns="http://www.w3.org/2000/svg"
	xmlns:xlink="http://www.w3.org/1999/xlink">
<g transform="scale(1, -1) translate(0, -610)">
<path d="M0,0L987,0L987,610L0,610Z" style="fill:#FFFFFF" />
<text x="181.2" y="-594.48" transform="scale(1, -1)"
	style="font-family:Liberation Serif;font-variant:normal;font-weight:normal;font-style:normal;font-size:19.84px">Total: 2315, Done: 73, Remaining: 2242, Progress: 3.15, Updated: 2024-04-16</text>
<text x="51.12" y="-3.252" transform="scale(1, -1)"
	style="font-family:Liberation Serif;font-variant:normal;font-weight:normal;font-style:normal;font-size:10px">2022-08-08</text>
<text x="393.68" y="-3.252" transform="scale(1, -1)"
	style="font-family:Liberation Serif;font-variant:normal;font-weight:normal;font-style:normal;font-size:10px">2023-03-28</text>
<text x="736.42" y="-3.252" transform="scale(1, -1)"
	style="font-family:Liberation Serif;font-variant:normal;font-weight:normal;font-style:normal;font-size:10px">2023-11-14</text>
<text x="222.4" y="-3.252" transform="scale(1, -1)"
	style="font-family:Liberation Serif;font-variant:normal;font-weight:normal;font-style:normal;font-size:10px">2022-12-02</text>
<text x="564.96" y="-3.252" transform="scale(1, -1)"
	style="font-family:Liberation Serif;font-variant:normal;font-weight:normal;font-style:normal;font-size:10px">2023-07-22</text>
<text x="907.51" y="-3.252" transform="scale(1, -1)"
	style="font-family:Liberation Serif;font-variant:normal;font-weight:normal;font-style:normal;font-size:10px">2024-03-09</text>
<path d="M74.45,11.074L74.45,19.074" style="fill:none;stroke:#000000;stroke-width:0.5" />
<path d="M417.01,11.074L417.01,19.074" style="fill:none;stroke:#000000;stroke-width:0.5" />
<path d="M759.57,11.074L759.57,19.074" style="fill:none;stroke:#000000;stroke-width:0.5" />
<path d="M245.73,11.074L245.73,19.074" style="fill:none;stroke:#000000;stroke-width:0.5" />
<path d="M588.29,11.074L588.29,19.074" style="fill:none;stroke:#000000;stroke-width:0.5" />
<path d="M930.84,11.074L930.84,19.074" style="fill:none;stroke:#000000;stroke-width:0.5" />
<path d="M39.58,19.074L987,19.074" style="fill:none;stroke:#000000;stroke-width:0.5" />
<text x="18.33" y="-22.039" transform="scale(1, -1)"
	style="font-family:Liberation Serif;font-variant:normal;font-weight:normal;font-style:normal;font-size:10px">0</text>
<text x="5" y="-295.12" transform="scale(1, -1)"
	style="font-family:Liberation Serif;font-variant:normal;font-weight:normal;font-style:normal;font-size:10px">50%</text>
<text x="0" y="-568.21" transform="scale(1, -1)"
	style="font-family:Liberation Serif;font-variant:normal;font-weight:normal;font-style:normal;font-size:10px">100%</text>
<text x="5" y="-76.656" transform="scale(1, -1)"
	style="font-family:Liberation Serif;font-variant:normal;font-weight:normal;font-style:normal;font-size:10px">10%</text>
<text x="5" y="-131.27" transform="scale(1, -1)"
	style="font-family:Liberation Serif;font-variant:normal;font-weight:normal;font-style:normal;font-size:10px">20%</text>
<text x="5" y="-185.89" transform="scale(1, -1)"
	style="font-family:Liberation Serif;font-variant:normal;font-weight:normal;font-style:normal;font-size:10px">30%</text>
<text x="5" y="-240.51" transform="scale(1, -1)"
	style="font-family:Liberation Serif;font-variant:normal;font-weight:normal;font-style:normal;font-size:10px">40%</text>
<text x="5" y="-349.74" transform="scale(1, -1)"
	style="font-family:Liberation Serif;font-variant:normal;font-weight:normal;font-style:normal;font-size:10px">60%</text>
<text x="5" y="-404.36" transform="scale(1, -1)"
	style="font-family:Liberation Serif;font-variant:normal;font-weight:normal;font-style:normal;font-size:10px">70%</text>
<text x="5" y="-458.97" transform="scale(1, -1)"
	style="font-family:Liberation Serif;font-variant:normal;font-weight:normal;font-style:normal;font-size:10px">80%</text>
<text x="5" y="-513.59" transform="scale(1, -1)"
	style="font-family:Liberation Serif;font-variant:normal;font-weight:normal;font-style:normal;font-size:10px">90%</text>
<path d="M25.83,24.324L33.83,24.324" style="fill:none;stroke:#000000;stroke-width:0.5" />
<path d="M25.83,297.41L33.83,297.41" style="fill:none;stroke:#000000;stroke-width:0.5" />
<path d="M25.83,570.49L33.83,570.49" style="fill:none;stroke:#000000;stroke-width:0.5" />
<path d="M25.83,78.941L33.83,78.941" style="fill:none;stroke:#000000;stroke-width:0.5" />
<path d="M25.83,133.56L33.83,133.56" style="fill:none;stroke:#000000;stroke-width:0.5" />
<path d="M25.83,188.17L33.83,188.17" style="fill:none;stroke:#000000;stroke-width:0.5" />
<path d="M25.83,242.79L33.83,242.79" style="fill:none;stroke:#000000;stroke-width:0.5" />
<path d="M25.83,352.02L33.83,352.02" style="fill:none;stroke:#000000;stroke-width:0.5" />
<path d="M25.83,406.64L33.83,406.64" style="fill:none;stroke:#000000;stroke-width:0.5" />
<path d="M25.83,461.26L33.83,461.26" style="fill:none;stroke:#000000;stroke-width:0.5" />
<path d="M25.83,515.87L33.83,515.87" style="fill:none;stroke:#000000;stroke-width:0.5" />
<path d="M33.83,24.324L33.83,570.49" style="fill:none;stroke:#000000;stroke-width:0.5" />
<path d="M74.45,24.324L74.45,570.49" style="fill:none;stroke:#808080;stroke-width:0.25" />
<path d="M417.01,24.324L417.01,570.49" style="fill:none;stroke:#808080;stroke-width:0.25" />
<path d="M759.57,24.324L759.57,570.49" style="fill:none;stroke:#808080;stroke-width:0.25" />
<path d="M245.73,24.324L245.73,570.49" style="fill:none;stroke:#808080;stroke-width:0.25" />
<path d="M588.29,24.324L588.29,570.49" style="fill:none;stroke:#808080;stroke-width:0.25" />
<path d="M930.84,24.324L930.84,570.49" style="fill:none;stroke:#808080;stroke-width:0.25" />
<path d="M39.58,24.324L987,24.324" style="fill:none;stroke:#808080;stroke-width:0.25" />
<path d="M39.58,297.41L987,297.41" style="fill:none;stroke:#808080;stroke-width:0.25" />
<path d="M39.58,570.49L987,570.49" style="fill:none;stroke:#808080;stroke-width:0.25" />
<path d="M39.58,78.941L987,78.941" style="fill:none;stroke:#808080;stroke-width:0.25" />
<path d="M39.58,133.56L987,133.56" style="fill:none;stroke:#808080;stroke-width:0.25" />
<path d="M39.58,188.17L987,188.17" style="fill:none;stroke:#808080;stroke-width:0.25" />
<path d="M39.58,242.79L987,242.79" style="fill:none;stroke:#808080;stroke-width:0.25" />
<path d="M39.58,352.02L987,352.02" style="fill:none;stroke:#808080;stroke-width:0.25" />
<path d="M39.58,406.64L987,406.64" style="fill:none;stroke:#808080;stroke-width:0.25" />
<path d="M39.58,461.26L987,461.26" style="fill:none;stroke:#808080;stroke-width:0.25" />
<path d="M39.58,515.87L987,515.87" style="fill:none;stroke:#808080;stroke-width:0.25" />
<path d="M39.58,24.324L39.596,24.56L39.599,24.56L39.64,24.796L40.678,25.032L40.716,25.032L40.836,25.268L42.695,25.504L42.71,25.74L44.296,25.976L44.309,26.212L44.337,26.212L45.722,26.448L45.742,26.448L45.75,26.683L45.796,26.683L49.57,26.919L49.59,27.155L49.635,27.155L49.83,27.391L50.06,27.627L51.012,27.863L51.02,27.863L51.055,28.099L51.595,28.335L51.633,28.571L53.088,28.807L53.105,28.807L53.131,29.043L57.626,29.279L57.641,29.515L57.653,29.751L59.869,29.986L59.902,29.986L59.92,30.222L59.93,30.458L61.463,30.694L61.472,30.694L61.636,30.93L61.675,31.166L63.443,31.402L63.452,31.402L63.482,31.638L63.503,31.874L64.939,32.11L353.56,32.346L353.58,32.582L355.13,32.818L356.58,33.053L356.58,33.053L357.99,33.289L358,33.525L358.02,33.761L358.05,33.997L360.89,34.233L361.04,34.469L361.92,34.705L366.95,34.941L366.96,35.177L366.97,35.177L369.91,35.413L369.94,35.649L372.72,35.885L372.73,35.885L372.76,36.12L940.48,36.356L940.48,36.356L940.6,36.356L940.81,36.592L940.82,36.828L940.88,37.064L942.21,37.3L942.26,37.3L942.33,37.536L944.06,37.772L945.61,38.008L947.11,38.244L948.5,38.48L950.69,38.716L950.7,38.952L950.73,39.188L952.76,39.423L952.79,39.659L958.93,39.895L975.09,40.131L975.1,40.367L978.05,40.603L979.62,40.839L983.81,41.075L983.85,41.311L987,41.547" style="fill:none;stroke:#FAA75B" />
</g>
</svg>
