<?xml version="1.0"?>
<!-- Generated by SVGo and Plotinum VG -->
<svg width="987pt" height="610pt" viewBox="0 0 987 610"
	xmlns="http://www.w3.org/2000/svg"
	xmlns:xlink="http://www.w3.org/1999/xlink">
<g transform="scale(1, -1) translate(0, -610)">
<path d="M0,0L987,0L987,610L0,610Z" style="fill:#FFFFFF" />
<text x="181.2" y="-594.48" transform="scale(1, -1)"
	style="font-family:Liberation Serif;font-variant:normal;font-weight:normal;font-style:normal;font-size:19.84px">Total: 1979, Done: 36, Remaining: 1943, Progress: 1.82, Updated: 2023-02-14</text>
<text x="120.56" y="-3.252" transform="scale(1, -1)"
	style="font-family:Liberation Serif;font-variant:normal;font-weight:normal;font-style:normal;font-size:10px">2022-08-08</text>
<text x="376.74" y="-3.252" transform="scale(1, -1)"
	style="font-family:Liberation Serif;font-variant:normal;font-weight:normal;font-style:normal;font-size:10px">2022-10-05</text>
<text x="632.92" y="-3.252" transform="scale(1, -1)"
	style="font-family:Liberation Serif;font-variant:normal;font-weight:normal;font-style:normal;font-size:10px">2022-12-02</text>
<text x="889.1" y="-3.252" transform="scale(1, -1)"
	style="font-family:Liberation Serif;font-variant:normal;font-weight:normal;font-style:normal;font-size:10px">2023-01-29</text>
<text x="18.088" y="-3.252" transform="scale(1, -1)"
	style="font-family:Liberation Serif;font-variant:normal;font-weight:normal;font-style:normal;font-size:10px">2022-07-16</text>
<text x="69.324" y="-3.252" transform="scale(1, -1)"
	style="font-family:Liberation Serif;font-variant:normal;font-weight:normal;font-style:normal;font-size:10px">2022-07-28</text>
<text x="171.8" y="-3.252" transform="scale(1, -1)"
	style="font-family:Liberation Serif;font-variant:normal;font-weight:normal;font-style:normal;font-size:10px">2022-08-20</text>
<text x="223.03" y="-3.252" transform="scale(1, -1)"
	style="font-family:Liberation Serif;font-variant:normal;font-weight:normal;font-style:normal;font-size:10px">2022-09-01</text>
<text x="274.27" y="-3.252" transform="scale(1, -1)"
	style="font-family:Liberation Serif;font-variant:normal;font-weight:normal;font-style:normal;font-size:10px">2022-09-12</text>
<text x="325.51" y="-3.252" transform="scale(1, -1)"
	style="font-family:Liberation Serif;font-variant:normal;font-weight:normal;font-style:normal;font-size:10px">2022-09-24</text>
<text x="427.98" y="-3.252" transform="scale(1, -1)"
	style="font-family:Liberation Serif;font-variant:normal;font-weight:normal;font-style:normal;font-size:10px">2022-10-17</text>
<text x="479.21" y="-3.252" transform="scale(1, -1)"
	style="font-family:Liberation Serif;font-variant:normal;font-weight:normal;font-style:normal;font-size:10px">2022-10-28</text>
<text x="530.64" y="-3.252" transform="scale(1, -1)"
	style="font-family:Liberation Serif;font-variant:normal;font-weight:normal;font-style:normal;font-size:10px">2022-11-09</text>
<text x="581.87" y="-3.252" transform="scale(1, -1)"
	style="font-family:Liberation Serif;font-variant:normal;font-weight:normal;font-style:normal;font-size:10px">2022-11-21</text>
<text x="684.16" y="-3.252" transform="scale(1, -1)"
	style="font-family:Liberation Serif;font-variant:normal;font-weight:normal;font-style:normal;font-size:10px">2022-12-14</text>
<text x="735.4" y="-3.252" transform="scale(1, -1)"
	style="font-family:Liberation Serif;font-variant:normal;font-weight:normal;font-style:normal;font-size:10px">2022-12-25</text>
<text x="786.63" y="-3.252" transform="scale(1, -1)"
	style="font-family:Liberation Serif;font-variant:normal;font-weight:normal;font-style:normal;font-size:10px">2023-01-06</text>
<text x="837.87" y="-3.252" transform="scale(1, -1)"
	style="font-family:Liberation Serif;font-variant:normal;font-weight:normal;font-style:normal;font-size:10px">2023-01-18</text>
<text x="940.34" y="-3.252" transform="scale(1, -1)"
	style="font-family:Liberation Serif;font-variant:normal;font-weight:normal;font-style:normal;font-size:10px">2023-02-10</text>
<path d="M143.89,11.074L143.89,19.074" style="fill:none;stroke:#000000;stroke-width:0.5" />
<path d="M400.07,11.074L400.07,19.074" style="fill:none;stroke:#000000;stroke-width:0.5" />
<path d="M656.25,11.074L656.25,19.074" style="fill:none;stroke:#000000;stroke-width:0.5" />
<path d="M912.43,11.074L912.43,19.074" style="fill:none;stroke:#000000;stroke-width:0.5" />
<path d="M41.418,11.074L41.418,19.074" style="fill:none;stroke:#000000;stroke-width:0.5" />
<path d="M92.654,11.074L92.654,19.074" style="fill:none;stroke:#000000;stroke-width:0.5" />
<path d="M195.13,11.074L195.13,19.074" style="fill:none;stroke:#000000;stroke-width:0.5" />
<path d="M246.36,11.074L246.36,19.074" style="fill:none;stroke:#000000;stroke-width:0.5" />
<path d="M297.6,11.074L297.6,19.074" style="fill:none;stroke:#000000;stroke-width:0.5" />
<path d="M348.84,11.074L348.84,19.074" style="fill:none;stroke:#000000;stroke-width:0.5" />
<path d="M451.31,11.074L451.31,19.074" style="fill:none;stroke:#000000;stroke-width:0.5" />
<path d="M502.54,11.074L502.54,19.074" style="fill:none;stroke:#000000;stroke-width:0.5" />
<path d="M553.78,11.074L553.78,19.074" style="fill:none;stroke:#000000;stroke-width:0.5" />
<path d="M605.02,11.074L605.02,19.074" style="fill:none;stroke:#000000;stroke-width:0.5" />
<path d="M707.49,11.074L707.49,19.074" style="fill:none;stroke:#000000;stroke-width:0.5" />
<path d="M758.73,11.074L758.73,19.074" style="fill:none;stroke:#000000;stroke-width:0.5" />
<path d="M809.96,11.074L809.96,19.074" style="fill:none;stroke:#000000;stroke-width:0.5" />
<path d="M861.2,11.074L861.2,19.074" style="fill:none;stroke:#000000;stroke-width:0.5" />
<path d="M963.67,11.074L963.67,19.074" style="fill:none;stroke:#000000;stroke-width:0.5" />
<path d="M39.58,19.074L983.51,19.074" style="fill:none;stroke:#000000;stroke-width:0.5" />
<text x="18.33" y="-22.039" transform="scale(1, -1)"
	style="font-family:Liberation Serif;font-variant:normal;font-weight:normal;font-style:normal;font-size:10px">0</text>
<text x="5" y="-295.12" transform="scale(1, -1)"
	style="font-family:Liberation Serif;font-variant:normal;font-weight:normal;font-style:normal;font-size:10px">50%</text>
<text x="0" y="-568.21" transform="scale(1, -1)"
	style="font-family:Liberation Serif;font-variant:normal;font-weight:normal;font-style:normal;font-size:10px">100%</text>
<text x="5" y="-76.656" transform="scale(1, -1)"
	style="font-family:Liberation Serif;font-variant:normal;font-weight:normal;font-style:normal;font-size:10px">10%</text>
<text x="5" y="-131.27" transform="scale(1, -1)"
	style="font-family:Liberation Serif;font-variant:normal;font-weight:normal;font-style:normal;font-size:10px">20%</text>
<text x="5" y="-185.89" transform="scale(1, -1)"
	style="font-family:Liberation Serif;font-variant:normal;font-weight:normal;font-style:normal;font-size:10px">30%</text>
<text x="5" y="-240.51" transform="scale(1, -1)"
	style="font-family:Liberation Serif;font-variant:normal;font-weight:normal;font-style:normal;font-size:10px">40%</text>
<text x="5" y="-349.74" transform="scale(1, -1)"
	style="font-family:Liberation Serif;font-variant:normal;font-weight:normal;font-style:normal;font-size:10px">60%</text>
<text x="5" y="-404.36" transform="scale(1, -1)"
	style="font-family:Liberation Serif;font-variant:normal;font-weight:normal;font-style:normal;font-size:10px">70%</text>
<text x="5" y="-458.97" transform="scale(1, -1)"
	style="font-family:Liberation Serif;font-variant:normal;font-weight:normal;font-style:normal;font-size:10px">80%</text>
<text x="5" y="-513.59" transform="scale(1, -1)"
	style="font-family:Liberation Serif;font-variant:normal;font-weight:normal;font-style:normal;font-size:10px">90%</text>
<path d="M25.83,24.324L33.83,24.324" style="fill:none;stroke:#000000;stroke-width:0.5" />
<path d="M25.83,297.41L33.83,297.41" style="fill:none;stroke:#000000;stroke-width:0.5" />
<path d="M25.83,570.49L33.83,570.49" style="fill:none;stroke:#000000;stroke-width:0.5" />
<path d="M25.83,78.941L33.83,78.941" style="fill:none;stroke:#000000;stroke-width:0.5" />
<path d="M25.83,133.56L33.83,133.56" style="fill:none;stroke:#000000;stroke-width:0.5" />
<path d="M25.83,188.17L33.83,188.17" style="fill:none;stroke:#000000;stroke-width:0.5" />
<path d="M25.83,242.79L33.83,242.79" style="fill:none;stroke:#000000;stroke-width:0.5" />
<path d="M25.83,352.02L33.83,352.02" style="fill:none;stroke:#000000;stroke-width:0.5" />
<path d="M25.83,406.64L33.83,406.64" style="fill:none;stroke:#000000;stroke-width:0.5" />
<path d="M25.83,461.26L33.83,461.26" style="fill:none;stroke:#000000;stroke-width:0.5" />
<path d="M25.83,515.87L33.83,515.87" style="fill:none;stroke:#000000;stroke-width:0.5" />
<path d="M33.83,24.324L33.83,570.49" style="fill:none;stroke:#000000;stroke-width:0.5" />
<path d="M143.89,24.324L143.89,570.49" style="fill:none;stroke:#808080;stroke-width:0.25" />
<path d="M400.07,24.324L400.07,570.49" style="fill:none;stroke:#808080;stroke-width:0.25" />
<path d="M656.25,24.324L656.25,570.49" style="fill:none;stroke:#808080;stroke-width:0.25" />
<path d="M912.43,24.324L912.43,570.49" style="fill:none;stroke:#808080;stroke-width:0.25" />
<path d="M41.418,24.324L41.418,570.49" style="fill:none;stroke:#808080;stroke-width:0.25" />
<path d="M92.654,24.324L92.654,570.49" style="fill:none;stroke:#808080;stroke-width:0.25" />
<path d="M195.13,24.324L195.13,570.49" style="fill:none;stroke:#808080;stroke-width:0.25" />
<path d="M246.36,24.324L246.36,570.49" style="fill:none;stroke:#808080;stroke-width:0.25" />
<path d="M297.6,24.324L297.6,570.49" style="fill:none;stroke:#808080;stroke-width:0.25" />
<path d="M348.84,24.324L348.84,570.49" style="fill:none;stroke:#808080;stroke-width:0.25" />
<path d="M451.31,24.324L451.31,570.49" style="fill:none;stroke:#808080;stroke-width:0.25" />
<path d="M502.54,24.324L502.54,570.49" style="fill:none;stroke:#808080;stroke-width:0.25" />
<path d="M553.78,24.324L553.78,570.49" style="fill:none;stroke:#808080;stroke-width:0.25" />
<path d="M605.02,24.324L605.02,570.49" style="fill:none;stroke:#808080;stroke-width:0.25" />
<path d="M707.49,24.324L707.49,570.49" style="fill:none;stroke:#808080;stroke-width:0.25" />
<path d="M758.73,24.324L758.73,570.49" style="fill:none;stroke:#808080;stroke-width:0.25" />
<path d="M809.96,24.324L809.96,570.49" style="fill:none;stroke:#808080;stroke-width:0.25" />
<path d="M861.2,24.324L861.2,570.49" style="fill:none;stroke:#808080;stroke-width:0.25" />
<path d="M963.67,24.324L963.67,570.49" style="fill:none;stroke:#808080;stroke-width:0.25" />
<path d="M39.58,24.324L983.51,24.324" style="fill:none;stroke:#808080;stroke-width:0.25" />
<path d="M39.58,297.41L983.51,297.41" style="fill:none;stroke:#808080;stroke-width:0.25" />
<path d="M39.58,570.49L983.51,570.49" style="fill:none;stroke:#808080;stroke-width:0.25" />
<path d="M39.58,78.941L983.51,78.941" style="fill:none;stroke:#808080;stroke-width:0.25" />
<path d="M39.58,133.56L983.51,133.56" style="fill:none;stroke:#808080;stroke-width:0.25" />
<path d="M39.58,188.17L983.51,188.17" style="fill:none;stroke:#808080;stroke-width:0.25" />
<path d="M39.58,242.79L983.51,242.79" style="fill:none;stroke:#808080;stroke-width:0.25" />
<path d="M39.58,352.02L983.51,352.02" style="fill:none;stroke:#808080;stroke-width:0.25" />
<path d="M39.58,406.64L983.51,406.64" style="fill:none;stroke:#808080;stroke-width:0.25" />
<path d="M39.58,461.26L983.51,461.26" style="fill:none;stroke:#808080;stroke-width:0.25" />
<path d="M39.58,515.87L983.51,515.87" style="fill:none;stroke:#808080;stroke-width:0.25" />
<path d="M39.58,24.324L39.627,24.6L39.636,24.6L39.758,24.876L42.863,25.152L42.98,25.152L43.336,25.428L48.897,25.704L48.943,25.98L53.687,26.256L53.726,26.532L53.809,26.532L57.953,26.808L58.014,26.808L58.038,27.084L58.173,27.084L69.464,27.36L69.524,27.636L69.658,27.636L70.241,27.912L70.931,28.188L73.777,28.464L73.801,28.464L73.907,28.74L75.522,29.016L75.635,29.292L79.988,29.568L80.037,29.568L80.118,29.844L93.563,30.12L93.607,30.396L93.643,30.672L100.27,30.948L100.37,30.948L100.42,31.224L100.46,31.5L105.04,31.776L105.07,31.776L105.56,32.052L105.67,32.328L110.96,32.604L110.99,32.604L111.08,32.88L111.14,33.156L115.44,33.432L978.82,33.708L978.87,33.984L983.51,34.26" style="fill:none;stroke:#FAA75B" />
</g>
</svg>
