<?xml version="1.0"?>
<!-- Generated by SVGo and Plotinum VG -->
<svg width="987pt" height="610pt" viewBox="0 0 987 610"
	xmlns="http://www.w3.org/2000/svg"
	xmlns:xlink="http://www.w3.org/1999/xlink">
<g transform="scale(1, -1) translate(0, -610)">
<path d="M0,0L987,0L987,610L0,610Z" style="fill:#FFFFFF" />
<text x="181.2" y="-594.48" transform="scale(1, -1)"
	style="font-family:Liberation Serif;font-variant:normal;font-weight:normal;font-style:normal;font-size:19.84px">Total: 1806, Done: 23, Remaining: 1783, Progress: 1.27, Updated: 2022-07-28</text>
<text x="48.254" y="-3.252" transform="scale(1, -1)"
	style="font-family:Liberation Serif;font-variant:normal;font-weight:normal;font-style:normal;font-size:10px">2022-07-16</text>
<text x="494.3" y="-3.252" transform="scale(1, -1)"
	style="font-family:Liberation Serif;font-variant:normal;font-weight:normal;font-style:normal;font-size:10px">2022-07-22</text>
<text x="940.34" y="-3.252" transform="scale(1, -1)"
	style="font-family:Liberation Serif;font-variant:normal;font-weight:normal;font-style:normal;font-size:10px">2022-07-28</text>
<text x="137.46" y="-3.252" transform="scale(1, -1)"
	style="font-family:Liberation Serif;font-variant:normal;font-weight:normal;font-style:normal;font-size:10px">2022-07-17</text>
<text x="226.67" y="-3.252" transform="scale(1, -1)"
	style="font-family:Liberation Serif;font-variant:normal;font-weight:normal;font-style:normal;font-size:10px">2022-07-19</text>
<text x="315.88" y="-3.252" transform="scale(1, -1)"
	style="font-family:Liberation Serif;font-variant:normal;font-weight:normal;font-style:normal;font-size:10px">2022-07-20</text>
<text x="405.09" y="-3.252" transform="scale(1, -1)"
	style="font-family:Liberation Serif;font-variant:normal;font-weight:normal;font-style:normal;font-size:10px">2022-07-21</text>
<text x="583.51" y="-3.252" transform="scale(1, -1)"
	style="font-family:Liberation Serif;font-variant:normal;font-weight:normal;font-style:normal;font-size:10px">2022-07-23</text>
<text x="672.71" y="-3.252" transform="scale(1, -1)"
	style="font-family:Liberation Serif;font-variant:normal;font-weight:normal;font-style:normal;font-size:10px">2022-07-24</text>
<text x="761.92" y="-3.252" transform="scale(1, -1)"
	style="font-family:Liberation Serif;font-variant:normal;font-weight:normal;font-style:normal;font-size:10px">2022-07-26</text>
<text x="851.13" y="-3.252" transform="scale(1, -1)"
	style="font-family:Liberation Serif;font-variant:normal;font-weight:normal;font-style:normal;font-size:10px">2022-07-27</text>
<path d="M71.584,11.074L71.584,19.074" style="fill:none;stroke:#000000;stroke-width:0.5" />
<path d="M517.63,11.074L517.63,19.074" style="fill:none;stroke:#000000;stroke-width:0.5" />
<path d="M963.67,11.074L963.67,19.074" style="fill:none;stroke:#000000;stroke-width:0.5" />
<path d="M160.79,11.074L160.79,19.074" style="fill:none;stroke:#000000;stroke-width:0.5" />
<path d="M250,11.074L250,19.074" style="fill:none;stroke:#000000;stroke-width:0.5" />
<path d="M339.21,11.074L339.21,19.074" style="fill:none;stroke:#000000;stroke-width:0.5" />
<path d="M428.42,11.074L428.42,19.074" style="fill:none;stroke:#000000;stroke-width:0.5" />
<path d="M606.84,11.074L606.84,19.074" style="fill:none;stroke:#000000;stroke-width:0.5" />
<path d="M696.04,11.074L696.04,19.074" style="fill:none;stroke:#000000;stroke-width:0.5" />
<path d="M785.25,11.074L785.25,19.074" style="fill:none;stroke:#000000;stroke-width:0.5" />
<path d="M874.46,11.074L874.46,19.074" style="fill:none;stroke:#000000;stroke-width:0.5" />
<path d="M39.58,19.074L980.88,19.074" style="fill:none;stroke:#000000;stroke-width:0.5" />
<text x="18.33" y="-22.039" transform="scale(1, -1)"
	style="font-family:Liberation Serif;font-variant:normal;font-weight:normal;font-style:normal;font-size:10px">0</text>
<text x="5" y="-295.12" transform="scale(1, -1)"
	style="font-family:Liberation Serif;font-variant:normal;font-weight:normal;font-style:normal;font-size:10px">50%</text>
<text x="0" y="-568.21" transform="scale(1, -1)"
	style="font-family:Liberation Serif;font-variant:normal;font-weight:normal;font-style:normal;font-size:10px">100%</text>
<text x="5" y="-76.656" transform="scale(1, -1)"
	style="font-family:Liberation Serif;font-variant:normal;font-weight:normal;font-style:normal;font-size:10px">10%</text>
<text x="5" y="-131.27" transform="scale(1, -1)"
	style="font-family:Liberation Serif;font-variant:normal;font-weight:normal;font-style:normal;font-size:10px">20%</text>
<text x="5" y="-185.89" transform="scale(1, -1)"
	style="font-family:Liberation Serif;font-variant:normal;font-weight:normal;font-style:normal;font-size:10px">30%</text>
<text x="5" y="-240.51" transform="scale(1, -1)"
	style="font-family:Liberation Serif;font-variant:normal;font-weight:normal;font-style:normal;font-size:10px">40%</text>
<text x="5" y="-349.74" transform="scale(1, -1)"
	style="font-family:Liberation Serif;font-variant:normal;font-weight:normal;font-style:normal;font-size:10px">60%</text>
<text x="5" y="-404.36" transform="scale(1, -1)"
	style="font-family:Liberation Serif;font-variant:normal;font-weight:normal;font-style:normal;font-size:10px">70%</text>
<text x="5" y="-458.97" transform="scale(1, -1)"
	style="font-family:Liberation Serif;font-variant:normal;font-weight:normal;font-style:normal;font-size:10px">80%</text>
<text x="5" y="-513.59" transform="scale(1, -1)"
	style="font-family:Liberation Serif;font-variant:normal;font-weight:normal;font-style:normal;font-size:10px">90%</text>
<path d="M25.83,24.324L33.83,24.324" style="fill:none;stroke:#000000;stroke-width:0.5" />
<path d="M25.83,297.41L33.83,297.41" style="fill:none;stroke:#000000;stroke-width:0.5" />
<path d="M25.83,570.49L33.83,570.49" style="fill:none;stroke:#000000;stroke-width:0.5" />
<path d="M25.83,78.941L33.83,78.941" style="fill:none;stroke:#000000;stroke-width:0.5" />
<path d="M25.83,133.56L33.83,133.56" style="fill:none;stroke:#000000;stroke-width:0.5" />
<path d="M25.83,188.17L33.83,188.17" style="fill:none;stroke:#000000;stroke-width:0.5" />
<path d="M25.83,242.79L33.83,242.79" style="fill:none;stroke:#000000;stroke-width:0.5" />
<path d="M25.83,352.02L33.83,352.02" style="fill:none;stroke:#000000;stroke-width:0.5" />
<path d="M25.83,406.64L33.83,406.64" style="fill:none;stroke:#000000;stroke-width:0.5" />
<path d="M25.83,461.26L33.83,461.26" style="fill:none;stroke:#000000;stroke-width:0.5" />
<path d="M25.83,515.87L33.83,515.87" style="fill:none;stroke:#000000;stroke-width:0.5" />
<path d="M33.83,24.324L33.83,570.49" style="fill:none;stroke:#000000;stroke-width:0.5" />
<path d="M71.584,24.324L71.584,570.49" style="fill:none;stroke:#808080;stroke-width:0.25" />
<path d="M517.63,24.324L517.63,570.49" style="fill:none;stroke:#808080;stroke-width:0.25" />
<path d="M963.67,24.324L963.67,570.49" style="fill:none;stroke:#808080;stroke-width:0.25" />
<path d="M160.79,24.324L160.79,570.49" style="fill:none;stroke:#808080;stroke-width:0.25" />
<path d="M250,24.324L250,570.49" style="fill:none;stroke:#808080;stroke-width:0.25" />
<path d="M339.21,24.324L339.21,570.49" style="fill:none;stroke:#808080;stroke-width:0.25" />
<path d="M428.42,24.324L428.42,570.49" style="fill:none;stroke:#808080;stroke-width:0.25" />
<path d="M606.84,24.324L606.84,570.49" style="fill:none;stroke:#808080;stroke-width:0.25" />
<path d="M696.04,24.324L696.04,570.49" style="fill:none;stroke:#808080;stroke-width:0.25" />
<path d="M785.25,24.324L785.25,570.49" style="fill:none;stroke:#808080;stroke-width:0.25" />
<path d="M874.46,24.324L874.46,570.49" style="fill:none;stroke:#808080;stroke-width:0.25" />
<path d="M39.58,24.324L980.88,24.324" style="fill:none;stroke:#808080;stroke-width:0.25" />
<path d="M39.58,297.41L980.88,297.41" style="fill:none;stroke:#808080;stroke-width:0.25" />
<path d="M39.58,570.49L980.88,570.49" style="fill:none;stroke:#808080;stroke-width:0.25" />
<path d="M39.58,78.941L980.88,78.941" style="fill:none;stroke:#808080;stroke-width:0.25" />
<path d="M39.58,133.56L980.88,133.56" style="fill:none;stroke:#808080;stroke-width:0.25" />
<path d="M39.58,188.17L980.88,188.17" style="fill:none;stroke:#808080;stroke-width:0.25" />
<path d="M39.58,242.79L980.88,242.79" style="fill:none;stroke:#808080;stroke-width:0.25" />
<path d="M39.58,352.02L980.88,352.02" style="fill:none;stroke:#808080;stroke-width:0.25" />
<path d="M39.58,406.64L980.88,406.64" style="fill:none;stroke:#808080;stroke-width:0.25" />
<path d="M39.58,461.26L980.88,461.26" style="fill:none;stroke:#808080;stroke-width:0.25" />
<path d="M39.58,515.87L980.88,515.87" style="fill:none;stroke:#808080;stroke-width:0.25" />
<path d="M39.58,24.324L40.391,24.627L40.558,24.627L42.677,24.929L96.741,25.231L98.769,25.231L104.97,25.534L201.8,25.836L202.6,26.139L285.2,26.441L285.88,26.744L287.32,26.744L359.47,27.046L360.54,27.046L360.95,27.348L363.31,27.348L559.89,27.651L560.94,27.953L563.27,27.953L573.43,28.256L585.43,28.558L634.98,28.86L635.41,28.86L637.25,29.163L665.38,29.465L667.34,29.768L743.13,30.07L743.98,30.07L745.39,30.373L979.49,30.675L980.25,30.977L980.88,31.28" style="fill:none;stroke:#FAA75B" />
</g>
</svg>
