<?xml version="1.0"?>
<!-- Generated by SVGo and Plotinum VG -->
<svg width="987pt" height="610pt" viewBox="0 0 987 610"
	xmlns="http://www.w3.org/2000/svg"
	xmlns:xlink="http://www.w3.org/1999/xlink">
<g transform="scale(1, -1) translate(0, -610)">
<path d="M0,0L987,0L987,610L0,610Z" style="fill:#FFFFFF" />
<text x="186.16" y="-594.48" transform="scale(1, -1)"
	style="font-family:Liberation Serif;font-variant:normal;font-weight:normal;font-style:normal;font-size:19.84px">Total: 1798, Done: 9, Remaining: 1789, Progress: 0.50, Updated: 2022-07-20</text>
<text x="109.41" y="-3.252" transform="scale(1, -1)"
	style="font-family:Liberation Serif;font-variant:normal;font-weight:normal;font-style:normal;font-size:10px">2022-07-16</text>
<text x="369.07" y="-3.252" transform="scale(1, -1)"
	style="font-family:Liberation Serif;font-variant:normal;font-weight:normal;font-style:normal;font-size:10px">2022-07-17</text>
<text x="628.74" y="-3.252" transform="scale(1, -1)"
	style="font-family:Liberation Serif;font-variant:normal;font-weight:normal;font-style:normal;font-size:10px">2022-07-19</text>
<text x="888.41" y="-3.252" transform="scale(1, -1)"
	style="font-family:Liberation Serif;font-variant:normal;font-weight:normal;font-style:normal;font-size:10px">2022-07-20</text>
<text x="57.472" y="-3.252" transform="scale(1, -1)"
	style="font-family:Liberation Serif;font-variant:normal;font-weight:normal;font-style:normal;font-size:10px">2022-07-16</text>
<text x="161.34" y="-3.252" transform="scale(1, -1)"
	style="font-family:Liberation Serif;font-variant:normal;font-weight:normal;font-style:normal;font-size:10px">2022-07-17</text>
<text x="213.27" y="-3.252" transform="scale(1, -1)"
	style="font-family:Liberation Serif;font-variant:normal;font-weight:normal;font-style:normal;font-size:10px">2022-07-17</text>
<text x="265.21" y="-3.252" transform="scale(1, -1)"
	style="font-family:Liberation Serif;font-variant:normal;font-weight:normal;font-style:normal;font-size:10px">2022-07-17</text>
<text x="317.14" y="-3.252" transform="scale(1, -1)"
	style="font-family:Liberation Serif;font-variant:normal;font-weight:normal;font-style:normal;font-size:10px">2022-07-17</text>
<text x="421.01" y="-3.252" transform="scale(1, -1)"
	style="font-family:Liberation Serif;font-variant:normal;font-weight:normal;font-style:normal;font-size:10px">2022-07-18</text>
<text x="472.94" y="-3.252" transform="scale(1, -1)"
	style="font-family:Liberation Serif;font-variant:normal;font-weight:normal;font-style:normal;font-size:10px">2022-07-18</text>
<text x="524.87" y="-3.252" transform="scale(1, -1)"
	style="font-family:Liberation Serif;font-variant:normal;font-weight:normal;font-style:normal;font-size:10px">2022-07-18</text>
<text x="576.81" y="-3.252" transform="scale(1, -1)"
	style="font-family:Liberation Serif;font-variant:normal;font-weight:normal;font-style:normal;font-size:10px">2022-07-18</text>
<text x="680.67" y="-3.252" transform="scale(1, -1)"
	style="font-family:Liberation Serif;font-variant:normal;font-weight:normal;font-style:normal;font-size:10px">2022-07-19</text>
<text x="732.61" y="-3.252" transform="scale(1, -1)"
	style="font-family:Liberation Serif;font-variant:normal;font-weight:normal;font-style:normal;font-size:10px">2022-07-19</text>
<text x="784.54" y="-3.252" transform="scale(1, -1)"
	style="font-family:Liberation Serif;font-variant:normal;font-weight:normal;font-style:normal;font-size:10px">2022-07-19</text>
<text x="836.47" y="-3.252" transform="scale(1, -1)"
	style="font-family:Liberation Serif;font-variant:normal;font-weight:normal;font-style:normal;font-size:10px">2022-07-20</text>
<text x="940.34" y="-3.252" transform="scale(1, -1)"
	style="font-family:Liberation Serif;font-variant:normal;font-weight:normal;font-style:normal;font-size:10px">2022-07-20</text>
<path d="M132.74,11.074L132.74,19.074" style="fill:none;stroke:#000000;stroke-width:0.5" />
<path d="M392.4,11.074L392.4,19.074" style="fill:none;stroke:#000000;stroke-width:0.5" />
<path d="M652.07,11.074L652.07,19.074" style="fill:none;stroke:#000000;stroke-width:0.5" />
<path d="M911.74,11.074L911.74,19.074" style="fill:none;stroke:#000000;stroke-width:0.5" />
<path d="M80.802,11.074L80.802,19.074" style="fill:none;stroke:#000000;stroke-width:0.5" />
<path d="M184.67,11.074L184.67,19.074" style="fill:none;stroke:#000000;stroke-width:0.5" />
<path d="M236.6,11.074L236.6,19.074" style="fill:none;stroke:#000000;stroke-width:0.5" />
<path d="M288.54,11.074L288.54,19.074" style="fill:none;stroke:#000000;stroke-width:0.5" />
<path d="M340.47,11.074L340.47,19.074" style="fill:none;stroke:#000000;stroke-width:0.5" />
<path d="M444.34,11.074L444.34,19.074" style="fill:none;stroke:#000000;stroke-width:0.5" />
<path d="M496.27,11.074L496.27,19.074" style="fill:none;stroke:#000000;stroke-width:0.5" />
<path d="M548.2,11.074L548.2,19.074" style="fill:none;stroke:#000000;stroke-width:0.5" />
<path d="M600.14,11.074L600.14,19.074" style="fill:none;stroke:#000000;stroke-width:0.5" />
<path d="M704,11.074L704,19.074" style="fill:none;stroke:#000000;stroke-width:0.5" />
<path d="M755.94,11.074L755.94,19.074" style="fill:none;stroke:#000000;stroke-width:0.5" />
<path d="M807.87,11.074L807.87,19.074" style="fill:none;stroke:#000000;stroke-width:0.5" />
<path d="M859.8,11.074L859.8,19.074" style="fill:none;stroke:#000000;stroke-width:0.5" />
<path d="M963.67,11.074L963.67,19.074" style="fill:none;stroke:#000000;stroke-width:0.5" />
<path d="M39.58,19.074L970.7,19.074" style="fill:none;stroke:#000000;stroke-width:0.5" />
<text x="18.33" y="-22.039" transform="scale(1, -1)"
	style="font-family:Liberation Serif;font-variant:normal;font-weight:normal;font-style:normal;font-size:10px">0</text>
<text x="5" y="-295.12" transform="scale(1, -1)"
	style="font-family:Liberation Serif;font-variant:normal;font-weight:normal;font-style:normal;font-size:10px">50%</text>
<text x="0" y="-568.21" transform="scale(1, -1)"
	style="font-family:Liberation Serif;font-variant:normal;font-weight:normal;font-style:normal;font-size:10px">100%</text>
<text x="5" y="-76.656" transform="scale(1, -1)"
	style="font-family:Liberation Serif;font-variant:normal;font-weight:normal;font-style:normal;font-size:10px">10%</text>
<text x="5" y="-131.27" transform="scale(1, -1)"
	style="font-family:Liberation Serif;font-variant:normal;font-weight:normal;font-style:normal;font-size:10px">20%</text>
<text x="5" y="-185.89" transform="scale(1, -1)"
	style="font-family:Liberation Serif;font-variant:normal;font-weight:normal;font-style:normal;font-size:10px">30%</text>
<text x="5" y="-240.51" transform="scale(1, -1)"
	style="font-family:Liberation Serif;font-variant:normal;font-weight:normal;font-style:normal;font-size:10px">40%</text>
<text x="5" y="-349.74" transform="scale(1, -1)"
	style="font-family:Liberation Serif;font-variant:normal;font-weight:normal;font-style:normal;font-size:10px">60%</text>
<text x="5" y="-404.36" transform="scale(1, -1)"
	style="font-family:Liberation Serif;font-variant:normal;font-weight:normal;font-style:normal;font-size:10px">70%</text>
<text x="5" y="-458.97" transform="scale(1, -1)"
	style="font-family:Liberation Serif;font-variant:normal;font-weight:normal;font-style:normal;font-size:10px">80%</text>
<text x="5" y="-513.59" transform="scale(1, -1)"
	style="font-family:Liberation Serif;font-variant:normal;font-weight:normal;font-style:normal;font-size:10px">90%</text>
<path d="M25.83,24.324L33.83,24.324" style="fill:none;stroke:#000000;stroke-width:0.5" />
<path d="M25.83,297.41L33.83,297.41" style="fill:none;stroke:#000000;stroke-width:0.5" />
<path d="M25.83,570.49L33.83,570.49" style="fill:none;stroke:#000000;stroke-width:0.5" />
<path d="M25.83,78.941L33.83,78.941" style="fill:none;stroke:#000000;stroke-width:0.5" />
<path d="M25.83,133.56L33.83,133.56" style="fill:none;stroke:#000000;stroke-width:0.5" />
<path d="M25.83,188.17L33.83,188.17" style="fill:none;stroke:#000000;stroke-width:0.5" />
<path d="M25.83,242.79L33.83,242.79" style="fill:none;stroke:#000000;stroke-width:0.5" />
<path d="M25.83,352.02L33.83,352.02" style="fill:none;stroke:#000000;stroke-width:0.5" />
<path d="M25.83,406.64L33.83,406.64" style="fill:none;stroke:#000000;stroke-width:0.5" />
<path d="M25.83,461.26L33.83,461.26" style="fill:none;stroke:#000000;stroke-width:0.5" />
<path d="M25.83,515.87L33.83,515.87" style="fill:none;stroke:#000000;stroke-width:0.5" />
<path d="M33.83,24.324L33.83,570.49" style="fill:none;stroke:#000000;stroke-width:0.5" />
<path d="M132.74,24.324L132.74,570.49" style="fill:none;stroke:#808080;stroke-width:0.25" />
<path d="M392.4,24.324L392.4,570.49" style="fill:none;stroke:#808080;stroke-width:0.25" />
<path d="M652.07,24.324L652.07,570.49" style="fill:none;stroke:#808080;stroke-width:0.25" />
<path d="M911.74,24.324L911.74,570.49" style="fill:none;stroke:#808080;stroke-width:0.25" />
<path d="M80.802,24.324L80.802,570.49" style="fill:none;stroke:#808080;stroke-width:0.25" />
<path d="M184.67,24.324L184.67,570.49" style="fill:none;stroke:#808080;stroke-width:0.25" />
<path d="M236.6,24.324L236.6,570.49" style="fill:none;stroke:#808080;stroke-width:0.25" />
<path d="M288.54,24.324L288.54,570.49" style="fill:none;stroke:#808080;stroke-width:0.25" />
<path d="M340.47,24.324L340.47,570.49" style="fill:none;stroke:#808080;stroke-width:0.25" />
<path d="M444.34,24.324L444.34,570.49" style="fill:none;stroke:#808080;stroke-width:0.25" />
<path d="M496.27,24.324L496.27,570.49" style="fill:none;stroke:#808080;stroke-width:0.25" />
<path d="M548.2,24.324L548.2,570.49" style="fill:none;stroke:#808080;stroke-width:0.25" />
<path d="M600.14,24.324L600.14,570.49" style="fill:none;stroke:#808080;stroke-width:0.25" />
<path d="M704,24.324L704,570.49" style="fill:none;stroke:#808080;stroke-width:0.25" />
<path d="M755.94,24.324L755.94,570.49" style="fill:none;stroke:#808080;stroke-width:0.25" />
<path d="M807.87,24.324L807.87,570.49" style="fill:none;stroke:#808080;stroke-width:0.25" />
<path d="M859.8,24.324L859.8,570.49" style="fill:none;stroke:#808080;stroke-width:0.25" />
<path d="M963.67,24.324L963.67,570.49" style="fill:none;stroke:#808080;stroke-width:0.25" />
<path d="M39.58,24.324L970.7,24.324" style="fill:none;stroke:#808080;stroke-width:0.25" />
<path d="M39.58,297.41L970.7,297.41" style="fill:none;stroke:#808080;stroke-width:0.25" />
<path d="M39.58,570.49L970.7,570.49" style="fill:none;stroke:#808080;stroke-width:0.25" />
<path d="M39.58,78.941L970.7,78.941" style="fill:none;stroke:#808080;stroke-width:0.25" />
<path d="M39.58,133.56L970.7,133.56" style="fill:none;stroke:#808080;stroke-width:0.25" />
<path d="M39.58,188.17L970.7,188.17" style="fill:none;stroke:#808080;stroke-width:0.25" />
<path d="M39.58,242.79L970.7,242.79" style="fill:none;stroke:#808080;stroke-width:0.25" />
<path d="M39.58,352.02L970.7,352.02" style="fill:none;stroke:#808080;stroke-width:0.25" />
<path d="M39.58,406.64L970.7,406.64" style="fill:none;stroke:#808080;stroke-width:0.25" />
<path d="M39.58,461.26L970.7,461.26" style="fill:none;stroke:#808080;stroke-width:0.25" />
<path d="M39.58,515.87L970.7,515.87" style="fill:none;stroke:#808080;stroke-width:0.25" />
<path d="M39.58,24.324L41.94,24.628L42.426,24.628L48.596,24.932L205.96,25.236L211.87,25.236L229.92,25.539L511.76,25.843L514.1,26.147L754.53,26.451L756.5,26.754L760.69,26.754L970.7,27.058" style="fill:none;stroke:#FAA75B" />
</g>
</svg>
