<?xml version="1.0"?>
<!-- Generated by SVGo and Plotinum VG -->
<svg width="987pt" height="610pt" viewBox="0 0 987 610"
	xmlns="http://www.w3.org/2000/svg"
	xmlns:xlink="http://www.w3.org/1999/xlink">
<g transform="scale(1, -1) translate(0, -610)">
<path d="M0,0L987,0L987,610L0,610Z" style="fill:#FFFFFF" />
<text x="181.2" y="-594.48" transform="scale(1, -1)"
	style="font-family:Liberation Serif;font-variant:normal;font-weight:normal;font-style:normal;font-size:19.84px">Total: 1806, Done: 24, Remaining: 1782, Progress: 1.33, Updated: 2022-07-30</text>
<text x="44.943" y="-3.252" transform="scale(1, -1)"
	style="font-family:Liberation Serif;font-variant:normal;font-weight:normal;font-style:normal;font-size:10px">2022-07-16</text>
<text x="444.85" y="-3.252" transform="scale(1, -1)"
	style="font-family:Liberation Serif;font-variant:normal;font-weight:normal;font-style:normal;font-size:10px">2022-07-22</text>
<text x="844.75" y="-3.252" transform="scale(1, -1)"
	style="font-family:Liberation Serif;font-variant:normal;font-weight:normal;font-style:normal;font-size:10px">2022-07-28</text>
<text x="124.92" y="-3.252" transform="scale(1, -1)"
	style="font-family:Liberation Serif;font-variant:normal;font-weight:normal;font-style:normal;font-size:10px">2022-07-17</text>
<text x="204.9" y="-3.252" transform="scale(1, -1)"
	style="font-family:Liberation Serif;font-variant:normal;font-weight:normal;font-style:normal;font-size:10px">2022-07-19</text>
<text x="284.89" y="-3.252" transform="scale(1, -1)"
	style="font-family:Liberation Serif;font-variant:normal;font-weight:normal;font-style:normal;font-size:10px">2022-07-20</text>
<text x="364.87" y="-3.252" transform="scale(1, -1)"
	style="font-family:Liberation Serif;font-variant:normal;font-weight:normal;font-style:normal;font-size:10px">2022-07-21</text>
<text x="524.83" y="-3.252" transform="scale(1, -1)"
	style="font-family:Liberation Serif;font-variant:normal;font-weight:normal;font-style:normal;font-size:10px">2022-07-23</text>
<text x="604.81" y="-3.252" transform="scale(1, -1)"
	style="font-family:Liberation Serif;font-variant:normal;font-weight:normal;font-style:normal;font-size:10px">2022-07-24</text>
<text x="684.79" y="-3.252" transform="scale(1, -1)"
	style="font-family:Liberation Serif;font-variant:normal;font-weight:normal;font-style:normal;font-size:10px">2022-07-26</text>
<text x="764.77" y="-3.252" transform="scale(1, -1)"
	style="font-family:Liberation Serif;font-variant:normal;font-weight:normal;font-style:normal;font-size:10px">2022-07-27</text>
<text x="924.73" y="-3.252" transform="scale(1, -1)"
	style="font-family:Liberation Serif;font-variant:normal;font-weight:normal;font-style:normal;font-size:10px">2022-07-29</text>
<path d="M68.273,11.074L68.273,19.074" style="fill:none;stroke:#000000;stroke-width:0.5" />
<path d="M468.18,11.074L468.18,19.074" style="fill:none;stroke:#000000;stroke-width:0.5" />
<path d="M868.08,11.074L868.08,19.074" style="fill:none;stroke:#000000;stroke-width:0.5" />
<path d="M148.25,11.074L148.25,19.074" style="fill:none;stroke:#000000;stroke-width:0.5" />
<path d="M228.23,11.074L228.23,19.074" style="fill:none;stroke:#000000;stroke-width:0.5" />
<path d="M308.22,11.074L308.22,19.074" style="fill:none;stroke:#000000;stroke-width:0.5" />
<path d="M388.2,11.074L388.2,19.074" style="fill:none;stroke:#000000;stroke-width:0.5" />
<path d="M548.16,11.074L548.16,19.074" style="fill:none;stroke:#000000;stroke-width:0.5" />
<path d="M628.14,11.074L628.14,19.074" style="fill:none;stroke:#000000;stroke-width:0.5" />
<path d="M708.12,11.074L708.12,19.074" style="fill:none;stroke:#000000;stroke-width:0.5" />
<path d="M788.1,11.074L788.1,19.074" style="fill:none;stroke:#000000;stroke-width:0.5" />
<path d="M948.06,11.074L948.06,19.074" style="fill:none;stroke:#000000;stroke-width:0.5" />
<path d="M39.58,19.074L987,19.074" style="fill:none;stroke:#000000;stroke-width:0.5" />
<text x="18.33" y="-22.039" transform="scale(1, -1)"
	style="font-family:Liberation Serif;font-variant:normal;font-weight:normal;font-style:normal;font-size:10px">0</text>
<text x="5" y="-295.12" transform="scale(1, -1)"
	style="font-family:Liberation Serif;font-variant:normal;font-weight:normal;font-style:normal;font-size:10px">50%</text>
<text x="0" y="-568.21" transform="scale(1, -1)"
	style="font-family:Liberation Serif;font-variant:normal;font-weight:normal;font-style:normal;font-size:10px">100%</text>
<text x="5" y="-76.656" transform="scale(1, -1)"
	style="font-family:Liberation Serif;font-variant:normal;font-weight:normal;font-style:normal;font-size:10px">10%</text>
<text x="5" y="-131.27" transform="scale(1, -1)"
	style="font-family:Liberation Serif;font-variant:normal;font-weight:normal;font-style:normal;font-size:10px">20%</text>
<text x="5" y="-185.89" transform="scale(1, -1)"
	style="font-family:Liberation Serif;font-variant:normal;font-weight:normal;font-style:normal;font-size:10px">30%</text>
<text x="5" y="-240.51" transform="scale(1, -1)"
	style="font-family:Liberation Serif;font-variant:normal;font-weight:normal;font-style:normal;font-size:10px">40%</text>
<text x="5" y="-349.74" transform="scale(1, -1)"
	style="font-family:Liberation Serif;font-variant:normal;font-weight:normal;font-style:normal;font-size:10px">60%</text>
<text x="5" y="-404.36" transform="scale(1, -1)"
	style="font-family:Liberation Serif;font-variant:normal;font-weight:normal;font-style:normal;font-size:10px">70%</text>
<text x="5" y="-458.97" transform="scale(1, -1)"
	style="font-family:Liberation Serif;font-variant:normal;font-weight:normal;font-style:normal;font-size:10px">80%</text>
<text x="5" y="-513.59" transform="scale(1, -1)"
	style="font-family:Liberation Serif;font-variant:normal;font-weight:normal;font-style:normal;font-size:10px">90%</text>
<path d="M25.83,24.324L33.83,24.324" style="fill:none;stroke:#000000;stroke-width:0.5" />
<path d="M25.83,297.41L33.83,297.41" style="fill:none;stroke:#000000;stroke-width:0.5" />
<path d="M25.83,570.49L33.83,570.49" style="fill:none;stroke:#000000;stroke-width:0.5" />
<path d="M25.83,78.941L33.83,78.941" style="fill:none;stroke:#000000;stroke-width:0.5" />
<path d="M25.83,133.56L33.83,133.56" style="fill:none;stroke:#000000;stroke-width:0.5" />
<path d="M25.83,188.17L33.83,188.17" style="fill:none;stroke:#000000;stroke-width:0.5" />
<path d="M25.83,242.79L33.83,242.79" style="fill:none;stroke:#000000;stroke-width:0.5" />
<path d="M25.83,352.02L33.83,352.02" style="fill:none;stroke:#000000;stroke-width:0.5" />
<path d="M25.83,406.64L33.83,406.64" style="fill:none;stroke:#000000;stroke-width:0.5" />
<path d="M25.83,461.26L33.83,461.26" style="fill:none;stroke:#000000;stroke-width:0.5" />
<path d="M25.83,515.87L33.83,515.87" style="fill:none;stroke:#000000;stroke-width:0.5" />
<path d="M33.83,24.324L33.83,570.49" style="fill:none;stroke:#000000;stroke-width:0.5" />
<path d="M68.273,24.324L68.273,570.49" style="fill:none;stroke:#808080;stroke-width:0.25" />
<path d="M468.18,24.324L468.18,570.49" style="fill:none;stroke:#808080;stroke-width:0.25" />
<path d="M868.08,24.324L868.08,570.49" style="fill:none;stroke:#808080;stroke-width:0.25" />
<path d="M148.25,24.324L148.25,570.49" style="fill:none;stroke:#808080;stroke-width:0.25" />
<path d="M228.23,24.324L228.23,570.49" style="fill:none;stroke:#808080;stroke-width:0.25" />
<path d="M308.22,24.324L308.22,570.49" style="fill:none;stroke:#808080;stroke-width:0.25" />
<path d="M388.2,24.324L388.2,570.49" style="fill:none;stroke:#808080;stroke-width:0.25" />
<path d="M548.16,24.324L548.16,570.49" style="fill:none;stroke:#808080;stroke-width:0.25" />
<path d="M628.14,24.324L628.14,570.49" style="fill:none;stroke:#808080;stroke-width:0.25" />
<path d="M708.12,24.324L708.12,570.49" style="fill:none;stroke:#808080;stroke-width:0.25" />
<path d="M788.1,24.324L788.1,570.49" style="fill:none;stroke:#808080;stroke-width:0.25" />
<path d="M948.06,24.324L948.06,570.49" style="fill:none;stroke:#808080;stroke-width:0.25" />
<path d="M39.58,24.324L987,24.324" style="fill:none;stroke:#808080;stroke-width:0.25" />
<path d="M39.58,297.41L987,297.41" style="fill:none;stroke:#808080;stroke-width:0.25" />
<path d="M39.58,570.49L987,570.49" style="fill:none;stroke:#808080;stroke-width:0.25" />
<path d="M39.58,78.941L987,78.941" style="fill:none;stroke:#808080;stroke-width:0.25" />
<path d="M39.58,133.56L987,133.56" style="fill:none;stroke:#808080;stroke-width:0.25" />
<path d="M39.58,188.17L987,188.17" style="fill:none;stroke:#808080;stroke-width:0.25" />
<path d="M39.58,242.79L987,242.79" style="fill:none;stroke:#808080;stroke-width:0.25" />
<path d="M39.58,352.02L987,352.02" style="fill:none;stroke:#808080;stroke-width:0.25" />
<path d="M39.58,406.64L987,406.64" style="fill:none;stroke:#808080;stroke-width:0.25" />
<path d="M39.58,461.26L987,461.26" style="fill:none;stroke:#808080;stroke-width:0.25" />
<path d="M39.58,515.87L987,515.87" style="fill:none;stroke:#808080;stroke-width:0.25" />
<path d="M39.58,24.324L40.307,24.627L40.457,24.627L42.357,24.929L90.828,25.231L92.647,25.231L98.206,25.534L185.02,25.836L185.74,26.139L259.8,26.441L260.4,26.744L261.69,26.744L326.38,27.046L327.34,27.046L327.71,27.348L329.82,27.348L506.07,27.651L507.01,27.953L509.1,27.953L518.21,28.256L528.97,28.558L573.39,28.86L573.77,28.86L575.43,29.163L600.64,29.465L602.41,29.768L670.35,30.07L671.12,30.07L672.38,30.373L882.26,30.675L882.95,30.977L883.51,31.28L987,31.582" style="fill:none;stroke:#FAA75B" />
</g>
</svg>
